<svg xmlns="http://www.w3.org/2000/svg" xmlns:xlink="http://www.w3.org/1999/xlink" x="0" y="0" width="462.5" height="37.98828125" style="
        width:462.5px;
        height:37.98828125px;
        background: transparent;
        fill: none;
">
        
        
        <svg xmlns="http://www.w3.org/2000/svg" class="role-diagram-draw-area"><g class="shapes-region" style="stroke: black; fill: none;"><g class="grouped-shape"><g class="grouped-shape"><g class="composite-shape"><path class="real" d=" M166.18,14.66 C166.18,10.54 169.52,7.2 173.64,7.2 C177.76,7.2 181.1,10.54 181.1,14.66 C181.1,18.78 177.76,22.12 173.64,22.12 C169.52,22.12 166.18,18.78 166.18,14.66 Z" style="stroke-width: 1; stroke: rgb(0, 0, 0); fill: rgb(255, 255, 255); fill-opacity: 1;"/></g></g><g class="grouped-shape"><g class="composite-shape"><path class="real" d=" M224.41,15.16 C224.41,11.04 227.75,7.7 231.87,7.7 C235.99,7.7 239.33,11.04 239.33,15.16 C239.33,19.28 235.99,22.62 231.87,22.62 C227.75,22.62 224.41,19.28 224.41,15.16 Z" style="stroke-width: 1; stroke: rgb(0, 0, 0); fill: rgb(255, 255, 255); fill-opacity: 1;"/></g></g><g class="grouped-shape"><g class="composite-shape"><path class="real" d=" M282.68,15.83 C282.68,11.71 286.02,8.37 290.14,8.37 C294.26,8.37 297.6,11.71 297.6,15.83 C297.6,19.95 294.26,23.29 290.14,23.29 C286.02,23.29 282.68,19.95 282.68,15.83 Z" style="stroke-width: 1; stroke: rgb(0, 0, 0); fill: rgb(255, 255, 255); fill-opacity: 1;"/></g></g><g class="grouped-shape"><g class="composite-shape"><path class="real" d=" M340.68,16 C340.68,11.88 344.02,8.54 348.14,8.54 C352.26,8.54 355.6,11.88 355.6,16 C355.6,20.12 352.26,23.46 348.14,23.46 C344.02,23.46 340.68,20.12 340.68,16 Z" style="stroke-width: 1; stroke: rgb(0, 0, 0); fill: rgb(255, 255, 255); fill-opacity: 1;"/></g></g><g class="grouped-shape"><g class="composite-shape"><path class="real" d=" M107.18,14.6 C107.18,10.48 110.52,7.14 114.64,7.14 C118.76,7.14 122.1,10.48 122.1,14.6 C122.1,18.72 118.76,22.06 114.64,22.06 C110.52,22.06 107.18,18.72 107.18,14.6 Z" style="stroke-width: 1; stroke: rgb(0, 0, 0); fill: rgb(255, 255, 255); fill-opacity: 1;"/></g></g><g class="arrow-line"><path class="connection real" stroke-dasharray="2.25 3.685" d="  M399.23,16 L453.23,16" style="stroke: rgb(0, 0, 0); stroke-width: 2; fill: none; fill-opacity: 1;"/></g><g class="arrow-line"><path class="connection real" stroke-dasharray="2.25 3.685" d="  M9.55,14.6 L63.55,14.6" style="stroke: rgb(0, 0, 0); stroke-width: 2; fill: none; fill-opacity: 1;"/></g><g class="arrow-line"><path class="connection real" stroke-dasharray="" d="  M63.55,14.6 L107.18,14.6" style="stroke: rgb(0, 0, 0); stroke-width: 2; fill: none; fill-opacity: 1;"/></g><g class="arrow-line"><path class="connection real" stroke-dasharray="" d="  M122.1,14.6 L165.73,14.6" style="stroke: rgb(0, 0, 0); stroke-width: 2; fill: none; fill-opacity: 1;"/></g><g class="arrow-line"><path class="connection real" stroke-dasharray="" d="  M181.1,14.66 L224.73,14.66" style="stroke: rgb(0, 0, 0); stroke-width: 2; fill: none; fill-opacity: 1;"/></g><g class="arrow-line"><path class="connection real" stroke-dasharray="" d="  M239.05,15.83 L282.68,15.83" style="stroke: rgb(0, 0, 0); stroke-width: 2; fill: none; fill-opacity: 1;"/></g><g class="arrow-line"><path class="connection real" stroke-dasharray="" d="  M297.6,15.83 L341.23,15.83" style="stroke: rgb(0, 0, 0); stroke-width: 2; fill: none; fill-opacity: 1;"/></g><g class="arrow-line"><path class="connection real" stroke-dasharray="" d="  M355.6,16 L399.23,16" style="stroke: rgb(0, 0, 0); stroke-width: 2; fill: none; fill-opacity: 1;"/></g></g><g/></g><g/><g/><g/></svg>
        <svg xmlns="http://www.w3.org/2000/svg" xmlns:xlink="http://www.w3.org/1999/xlink" width="460" height="35.48828125" style="width:460px;height:35.48828125px;font-family:Asana-Math, Asana;background:transparent;"><g><g><g><text x="108.0078125" y="7.3828125" style="white-space:pre;stroke:none;fill:rgb(0,0,0);fill-opacity:1;font-size:12px;font-family:Arial, Helvetica, sans-serif;font-weight:400;font-style:normal;dominant-baseline:text-before-edge;text-decoration:none solid rgb(0, 0, 0);">-2</text></g></g></g><g><g><g><text x="344.51171875" y="8.76953125" style="white-space:pre;stroke:none;fill:rgb(0,0,0);fill-opacity:1;font-size:12px;font-family:Arial, Helvetica, sans-serif;font-weight:400;font-style:normal;dominant-baseline:text-before-edge;text-decoration:none solid rgb(0, 0, 0);">2</text></g></g></g><g><g><g><text x="286.5234375" y="8.61328125" style="white-space:pre;stroke:none;fill:rgb(0,0,0);fill-opacity:1;font-size:12px;font-family:Arial, Helvetica, sans-serif;font-weight:400;font-style:normal;dominant-baseline:text-before-edge;text-decoration:none solid rgb(0, 0, 0);">1</text></g></g></g><g><g><g><text x="228.2421875" y="7.94921875" style="white-space:pre;stroke:none;fill:rgb(0,0,0);fill-opacity:1;font-size:12px;font-family:Arial, Helvetica, sans-serif;font-weight:400;font-style:normal;dominant-baseline:text-before-edge;text-decoration:none solid rgb(0, 0, 0);">0</text></g></g></g><g><g><g><text x="167.01171875" y="7.44140625" style="white-space:pre;stroke:none;fill:rgb(0,0,0);fill-opacity:1;font-size:12px;font-family:Arial, Helvetica, sans-serif;font-weight:400;font-style:normal;dominant-baseline:text-before-edge;text-decoration:none solid rgb(0, 0, 0);">-1</text></g></g></g></svg>
</svg>
