<svg xmlns="http://www.w3.org/2000/svg" xmlns:xlink="http://www.w3.org/1999/xlink" x="0" y="0" width="762.5" height="240.625" style="
        width:762.5px;
        height:240.625px;
        background: transparent;
        fill: none;
">
        
        
        <svg xmlns="http://www.w3.org/2000/svg" class="role-diagram-draw-area"><g class="shapes-region" style="stroke: black; fill: none;"><g class="arrow-line"><path class="connection real" stroke-dasharray="" d="  M593.25,92.33 C590.42,135.25 677.09,159.92 733.25,92.33" style="stroke: rgb(0, 0, 0); stroke-width: 1; fill: none; fill-opacity: 1;"/></g><g class="arrow-line"><path class="connection real" stroke-dasharray="" d="  M523.25,92.33 C523.76,33.25 661.09,37.25 663.25,92.33" style="stroke: rgb(0, 0, 0); stroke-width: 1; fill: none; fill-opacity: 1;"/></g><g class="arrow-line"><path class="connection real" stroke-dasharray="" d="  M523.25,92.33 C517.09,171.92 697.76,190.59 733.25,92.33" style="stroke: rgb(0, 0, 0); stroke-width: 1; fill: none; fill-opacity: 1;"/></g><g class="arrow-line"><path class="connection real" stroke-dasharray="" d="  M593.25,92.33 L663.25,92.33" style="stroke: rgb(0, 0, 0); stroke-width: 1; fill: none; fill-opacity: 1;"/></g><g class="arrow-line"><path class="connection real" stroke-dasharray="" d="  M663.25,92.33 L733.25,92.33" style="stroke: rgb(0, 0, 0); stroke-width: 1; fill: none; fill-opacity: 1;"/></g><g class="arrow-line"><path class="connection real" stroke-dasharray="" d="  M523.25,92.33 L593.25,92.33" style="stroke: rgb(0, 0, 0); stroke-width: 1; fill: none; fill-opacity: 1;"/></g><g class="grouped-shape"><g class="arrow-line"><path class="connection real" stroke-dasharray="" d="  M348.25,46.67 C446.59,-60.08 555.26,92.59 455.33,153.75" style="stroke: rgb(0, 0, 0); stroke-width: 1; fill: none; fill-opacity: 1;"/></g><g class="composite-shape"><path class="real" d=" M348.25,46.67 L455.33,46.67 L455.33,153.75 L348.25,153.75 Z" style="stroke-width: 1; stroke: rgb(0, 0, 0); fill: none; fill-opacity: 1;"/></g><g class="arrow-line"><path class="connection real" stroke-dasharray="" d="  M348.25,153.75 L455.33,46.67" style="stroke: rgb(0, 0, 0); stroke-width: 1; fill: none; fill-opacity: 1;"/></g><g class="composite-shape"><path class="real" d=" M445.46,46.67 C445.46,41.21 449.88,36.79 455.33,36.79 C460.79,36.79 465.21,41.21 465.21,46.67 C465.21,52.12 460.79,56.54 455.33,56.54 C449.88,56.54 445.46,52.12 445.46,46.67 Z" style="stroke-width: 1; stroke: rgb(0, 0, 0); fill: rgb(255, 255, 255); fill-opacity: 1;"/></g><g class="composite-shape"><path class="real" d=" M338.37,46.67 C338.37,41.21 342.79,36.79 348.25,36.79 C353.7,36.79 358.12,41.21 358.12,46.67 C358.12,52.12 353.7,56.54 348.25,56.54 C342.79,56.54 338.37,52.12 338.37,46.67 Z" style="stroke-width: 1; stroke: rgb(0, 0, 0); fill: rgb(255, 255, 255); fill-opacity: 1;"/></g><g class="composite-shape"><path class="real" d=" M338.37,153.75 C338.37,148.3 342.79,143.88 348.25,143.88 C353.7,143.88 358.12,148.3 358.12,153.75 C358.12,159.21 353.7,163.63 348.25,163.63 C342.79,163.63 338.37,159.21 338.37,153.75 Z" style="stroke-width: 1; stroke: rgb(0, 0, 0); fill: rgb(255, 255, 255); fill-opacity: 1;"/></g><g class="composite-shape"><path class="real" d=" M445.46,153.75 C445.46,148.3 449.88,143.88 455.33,143.88 C460.79,143.88 465.21,148.3 465.21,153.75 C465.21,159.21 460.79,163.63 455.33,163.63 C449.88,163.63 445.46,159.21 445.46,153.75 Z" style="stroke-width: 1; stroke: rgb(0, 0, 0); fill: rgb(255, 255, 255); fill-opacity: 1;"/></g></g><g class="grouped-shape"><g class="composite-shape"><path class="real" d=" M23.25,45 L130.33,45 L130.33,152.09 L23.25,152.09 Z" style="stroke-width: 1; stroke: rgb(0, 0, 0); fill: none; fill-opacity: 1;"/></g><g class="arrow-line"><path class="connection real" stroke-dasharray="" d="  M23.25,45 L130.33,152.09" style="stroke: rgb(0, 0, 0); stroke-width: 1; fill: none; fill-opacity: 1;"/></g><g class="arrow-line"><path class="connection real" stroke-dasharray="" d="  M23.25,152.09 L130.33,45" style="stroke: rgb(0, 0, 0); stroke-width: 1; fill: none; fill-opacity: 1;"/></g><g class="composite-shape"><path class="real" d=" M13.37,45 C13.37,39.55 17.79,35.13 23.25,35.13 C28.7,35.13 33.12,39.55 33.12,45 C33.12,50.45 28.7,54.87 23.25,54.87 C17.79,54.87 13.37,50.45 13.37,45 Z" style="stroke-width: 1; stroke: rgb(0, 0, 0); fill: rgb(255, 255, 255); fill-opacity: 1;"/></g><g class="composite-shape"><path class="real" d=" M120.46,45 C120.46,39.55 124.88,35.13 130.33,35.13 C135.79,35.13 140.21,39.55 140.21,45 C140.21,50.45 135.79,54.87 130.33,54.87 C124.88,54.87 120.46,50.45 120.46,45 Z" style="stroke-width: 1; stroke: rgb(0, 0, 0); fill: rgb(255, 255, 255); fill-opacity: 1;"/></g><g class="composite-shape"><path class="real" d=" M13.37,152.09 C13.37,146.63 17.79,142.21 23.25,142.21 C28.7,142.21 33.12,146.63 33.12,152.09 C33.12,157.54 28.7,161.96 23.25,161.96 C17.79,161.96 13.37,157.54 13.37,152.09 Z" style="stroke-width: 1; stroke: rgb(0, 0, 0); fill: rgb(255, 255, 255); fill-opacity: 1;"/></g><g class="composite-shape"><path class="real" d=" M120.46,152.09 C120.46,146.63 124.88,142.21 130.33,142.21 C135.79,142.21 140.21,146.63 140.21,152.09 C140.21,157.54 135.79,161.96 130.33,161.96 C124.88,161.96 120.46,157.54 120.46,152.09 Z" style="stroke-width: 1; stroke: rgb(0, 0, 0); fill: rgb(255, 255, 255); fill-opacity: 1;"/></g></g><g class="grouped-shape"><g class="composite-shape"><path class="real" d=" M239.58,69.75 L313.26,152.42 L165.91,152.42 Z" style="stroke-width: 1; stroke: rgb(0, 0, 0); fill: none; fill-opacity: 1;"/></g><g class="arrow-line"><path class="connection real" stroke-dasharray="" d="  M239.58,69.75 L239.58,111.09" style="stroke: rgb(0, 0, 0); stroke-width: 1; fill: none; fill-opacity: 1;"/></g><g class="arrow-line"><path class="connection real" stroke-dasharray="" d="  M165.91,152.42 L239.58,111.09" style="stroke: rgb(0, 0, 0); stroke-width: 1; fill: none; fill-opacity: 1;"/></g><g class="arrow-line"><path class="connection real" stroke-dasharray="" d="  M313.26,152.42 L239.58,111.09" style="stroke: rgb(0, 0, 0); stroke-width: 1; fill: none; fill-opacity: 1;"/></g><g class="composite-shape"><path class="real" d=" M229.71,111.09 C229.71,105.63 234.13,101.21 239.58,101.21 C245.04,101.21 249.46,105.63 249.46,111.09 C249.46,116.54 245.04,120.96 239.58,120.96 C234.13,120.96 229.71,116.54 229.71,111.09 Z" style="stroke-width: 1; stroke: rgb(0, 0, 0); fill: rgb(255, 255, 255); fill-opacity: 1;"/></g><g class="composite-shape"><path class="real" d=" M303.38,152.42 C303.38,146.97 307.8,142.55 313.26,142.55 C318.71,142.55 323.13,146.97 323.13,152.42 C323.13,157.87 318.71,162.29 313.26,162.29 C307.8,162.29 303.38,157.87 303.38,152.42 Z" style="stroke-width: 1; stroke: rgb(0, 0, 0); fill: rgb(255, 255, 255); fill-opacity: 1;"/></g><g class="composite-shape"><path class="real" d=" M156.04,152.42 C156.04,146.97 160.46,142.55 165.91,142.55 C171.37,142.55 175.79,146.97 175.79,152.42 C175.79,157.87 171.37,162.29 165.91,162.29 C160.46,162.29 156.04,157.87 156.04,152.42 Z" style="stroke-width: 1; stroke: rgb(0, 0, 0); fill: rgb(255, 255, 255); fill-opacity: 1;"/></g><g class="composite-shape"><path class="real" d=" M229.71,69.75 C229.71,64.3 234.13,59.88 239.58,59.88 C245.04,59.88 249.46,64.3 249.46,69.75 C249.46,75.21 245.04,79.63 239.58,79.63 C234.13,79.63 229.71,75.21 229.71,69.75 Z" style="stroke-width: 1; stroke: rgb(0, 0, 0); fill: rgb(255, 255, 255); fill-opacity: 1;"/></g></g><g class="composite-shape"><path class="real" d=" M513.37,92.33 C513.37,86.88 517.79,82.46 523.25,82.46 C528.7,82.46 533.12,86.88 533.12,92.33 C533.12,97.79 528.7,102.21 523.25,102.21 C517.79,102.21 513.37,97.79 513.37,92.33 Z" style="stroke-width: 1; stroke: rgb(0, 0, 0); fill: rgb(255, 255, 255); fill-opacity: 1;"/></g><g class="composite-shape"><path class="real" d=" M583.37,92.33 C583.37,86.88 587.79,82.46 593.25,82.46 C598.7,82.46 603.12,86.88 603.12,92.33 C603.12,97.79 598.7,102.21 593.25,102.21 C587.79,102.21 583.37,97.79 583.37,92.33 Z" style="stroke-width: 1; stroke: rgb(0, 0, 0); fill: rgb(255, 255, 255); fill-opacity: 1;"/></g><g class="composite-shape"><path class="real" d=" M653.37,92.33 C653.37,86.88 657.79,82.46 663.25,82.46 C668.7,82.46 673.12,86.88 673.12,92.33 C673.12,97.79 668.7,102.21 663.25,102.21 C657.79,102.21 653.37,97.79 653.37,92.33 Z" style="stroke-width: 1; stroke: rgb(0, 0, 0); fill: rgb(255, 255, 255); fill-opacity: 1;"/></g><g class="composite-shape"><path class="real" d=" M723.37,92.33 C723.37,86.88 727.79,82.46 733.25,82.46 C738.7,82.46 743.12,86.88 743.12,92.33 C743.12,97.79 738.7,102.21 733.25,102.21 C727.79,102.21 723.37,97.79 723.37,92.33 Z" style="stroke-width: 1; stroke: rgb(0, 0, 0); fill: rgb(255, 255, 255); fill-opacity: 1;"/></g><g class="composite-shape"><path class="real" d=" M151.09,161.92 Q151.12,168.92 158.12,168.89 L440.45,167.61 Q450.45,167.56 450.49,174.56 Q450.45,167.56 460.45,167.52 M457.45,167.53 L742.79,166.24 Q749.79,166.2 749.75,159.2" style="stroke-width: 1; stroke: rgb(0, 0, 0); fill: none; fill-opacity: 1;"/></g><g class="composite-shape"><path class="real" d=" M9.09,163.92 Q9.16,170.92 16.16,170.85 L66.82,170.36 Q76.82,170.26 76.89,177.26 Q76.82,170.26 86.82,170.16 M83.82,170.19 L137.49,169.67 Q144.49,169.6 144.42,162.6" style="stroke-width: 1; stroke: rgb(0, 0, 0); fill: none; fill-opacity: 1;"/></g><g/></g><g/><g/><g/></svg>
        <svg xmlns="http://www.w3.org/2000/svg" xmlns:xlink="http://www.w3.org/1999/xlink" width="760" height="238.125" style="width:760px;height:238.125px;font-family:Asana-Math, Asana;background:transparent;"><g><g><g><text x="354.90234375" y="183.3984375" style="white-space:pre;stroke:none;fill:rgb(0,0,0);fill-opacity:1;font-size:15px;font-family:Arial, Helvetica, sans-serif;font-weight:400;font-style:normal;dominant-baseline:text-before-edge;text-decoration:none solid rgb(0, 0, 0);">Representações planas do </text></g><g><g><g><g><g transform="matrix(1,0,0,1,537.5390625,196.6484375)"><path transform="matrix(0.017,0,0,-0.017,0,0)" d="M434 653C511 653 565 639 621 603L621 519L648 519C653 576 661 619 675 665C592 695 535 706 466 706C374 706 301 683 229 632C112 548 50 424 50 274C50 87 159 -18 355 -18C412 -21 559 6 608 37C628 193 632 216 633 219C635 228 647 238 660 240L692 246L694 274C655 270 620 269 569 269C518 269 482 270 440 274L435 246L469 244C544 240 553 236 553 212C553 197 533 84 528 60C483 36 444 27 390 27C224 27 138 120 138 297C138 443 197 653 434 653Z" stroke="rgb(0,0,0)" stroke-opacity="1" stroke-width="8" fill="rgb(0,0,0)" fill-opacity="1"></path></g></g><g><g><g><g><g transform="matrix(1,0,0,1,550.3125,200.90390625)"><path transform="matrix(0.0119,0,0,-0.0119,0,0)" d="M418 -3L418 27L366 30C311 33 301 44 301 96L301 700L60 598L67 548L217 614L217 96C217 44 206 33 152 30L96 27L96 -3C250 0 250 0 261 0C292 0 402 -3 418 -3Z" stroke="rgb(0,0,0)" stroke-opacity="1" stroke-width="8" fill="rgb(0,0,0)" fill-opacity="1"></path></g></g></g></g></g></g></g></g></g></g><g><g><g><text x="20.8984375" y="182.83203125" style="white-space:pre;stroke:none;fill:rgb(0,0,0);fill-opacity:1;font-size:15px;font-family:Arial, Helvetica, sans-serif;font-weight:400;font-style:normal;dominant-baseline:text-before-edge;text-decoration:none solid rgb(0, 0, 0);">Representação</text></g></g><g><g><text x="20.8984375" y="205.078125" style="white-space:pre;stroke:none;fill:rgb(0,0,0);fill-opacity:1;font-size:15px;font-family:Arial, Helvetica, sans-serif;font-weight:400;font-style:normal;dominant-baseline:text-before-edge;text-decoration:none solid rgb(0, 0, 0);">não plana do </text></g><g><g><g><g><g transform="matrix(1,0,0,1,111.81640625,218.328125)"><path transform="matrix(0.017,0,0,-0.017,0,0)" d="M434 653C511 653 565 639 621 603L621 519L648 519C653 576 661 619 675 665C592 695 535 706 466 706C374 706 301 683 229 632C112 548 50 424 50 274C50 87 159 -18 355 -18C412 -21 559 6 608 37C628 193 632 216 633 219C635 228 647 238 660 240L692 246L694 274C655 270 620 269 569 269C518 269 482 270 440 274L435 246L469 244C544 240 553 236 553 212C553 197 533 84 528 60C483 36 444 27 390 27C224 27 138 120 138 297C138 443 197 653 434 653Z" stroke="rgb(0,0,0)" stroke-opacity="1" stroke-width="8" fill="rgb(0,0,0)" fill-opacity="1"></path></g></g><g><g><g><g><g transform="matrix(1,0,0,1,124.58984375,222.58359375)"><path transform="matrix(0.0119,0,0,-0.0119,0,0)" d="M418 -3L418 27L366 30C311 33 301 44 301 96L301 700L60 598L67 548L217 614L217 96C217 44 206 33 152 30L96 27L96 -3C250 0 250 0 261 0C292 0 402 -3 418 -3Z" stroke="rgb(0,0,0)" stroke-opacity="1" stroke-width="8" fill="rgb(0,0,0)" fill-opacity="1"></path></g></g></g></g></g></g></g></g></g></g></svg>
</svg>
