<svg xmlns="http://www.w3.org/2000/svg" xmlns:xlink="http://www.w3.org/1999/xlink" x="0" y="0" width="662.5" height="279.4921875" style="
        width:662.5px;
        height:279.4921875px;
        background: transparent;
        fill: none;
">
        
        
        <svg xmlns="http://www.w3.org/2000/svg" class="role-diagram-draw-area"><g class="shapes-region" style="stroke: black; fill: none;"><g class="composite-shape"><path class="real" d=" M3,6 L221,6 L221,265 L3,265 Z" style="stroke-width: 1; stroke: rgb(0, 0, 0); fill: none; fill-opacity: 1;"/></g><g class="composite-shape"><path class="real" d=" M221,6 L439,6 L439,265 L221,265 Z" style="stroke-width: 1; stroke: rgb(0, 0, 0); fill: none; fill-opacity: 1;"/></g><g class="composite-shape"><path class="real" d=" M439,6 L657,6 L657,265 L439,265 Z" style="stroke-width: 1; stroke: rgb(0, 0, 0); fill: none; fill-opacity: 1;"/></g><g class="arrow-line"><path class="connection real" stroke-dasharray="" d="  M49.42,252.53 L49.42,41.41" style="stroke: rgb(0, 0, 0); stroke-width: 1; fill: none; fill-opacity: 1;"/><g stroke="none" fill="#000" transform="matrix(3.061616997868383e-16,1,-1,3.061616997868383e-16,49.42499999999997,38.41302083333312)" style="stroke: none; fill: rgb(0, 0, 0); stroke-width: 1;"><path d=" M8.93,-4.29 L0,0 L8.93,4.29 Z"/></g></g><g class="arrow-line"><path class="connection real" stroke-dasharray="" d="  M49.42,252.53 L175.54,252.53" style="stroke: rgb(0, 0, 0); stroke-width: 1; fill: none; fill-opacity: 1;"/><g stroke="none" fill="#000" transform="matrix(-1,1.2246467991473532e-16,-1.2246467991473532e-16,-1,178.54062499999998,252.52864583333317)" style="stroke: none; fill: rgb(0, 0, 0); stroke-width: 1;"><path d=" M8.93,-4.29 L0,0 L8.93,4.29 Z"/></g></g><g class="arrow-line"><path class="connection real" stroke-dasharray="" d="  M40.42,212.06 L60.34,212.06" style="stroke: rgb(0, 0, 0); stroke-width: 1; fill: none; fill-opacity: 1;"/></g><g class="arrow-line"><path class="connection real" stroke-dasharray="" d="  M40.74,172.06 L60.66,172.06" style="stroke: rgb(0, 0, 0); stroke-width: 1; fill: none; fill-opacity: 1;"/></g><g class="arrow-line"><path class="connection real" stroke-dasharray="" d="  M40.74,132.53 L60.66,132.53" style="stroke: rgb(0, 0, 0); stroke-width: 1; fill: none; fill-opacity: 1;"/></g><g class="arrow-line"><path class="connection real" stroke-dasharray="" d="  M40.74,81.53 L80.89,81.53" style="stroke: rgb(0, 0, 0); stroke-width: 1; fill: none; fill-opacity: 1;"/></g><g class="arrow-line"><path class="connection real" stroke-dasharray="" d="  M71.24,221.97 L71.24,206.5" style="stroke: rgb(0, 0, 0); stroke-width: 1; fill: none; fill-opacity: 1;"/><g stroke="none" fill="#000" transform="matrix(3.061616997868383e-16,1,-1,3.061616997868383e-16,71.23870907738095,204.50065104166652)" style="stroke: none; fill: rgb(0, 0, 0); stroke-width: 1;"><path d=" M12,-3 L0,0 L12,3 Z"/></g></g><g class="arrow-line"><path class="connection real" stroke-dasharray="" d="  M81.57,204.17 L81.57,219.64" style="stroke: rgb(0, 0, 0); stroke-width: 1; fill: none; fill-opacity: 1;"/><g stroke="none" fill="#000" transform="matrix(-1.8369701987210297e-16,-1,1,-1.8369701987210297e-16,81.57204241071426,221.64025297619025)" style="stroke: none; fill: rgb(0, 0, 0); stroke-width: 1;"><path d=" M12,-3 L0,0 L12,3 Z"/></g></g><g class="arrow-line"><path class="connection real" stroke-dasharray="" d="  M71.14,141.93 L71.14,126.45" style="stroke: rgb(0, 0, 0); stroke-width: 1; fill: none; fill-opacity: 1;"/><g stroke="none" fill="#000" transform="matrix(3.061616997868383e-16,1,-1,3.061616997868383e-16,71.14347098214282,124.45303199404748)" style="stroke: none; fill: rgb(0, 0, 0); stroke-width: 1;"><path d=" M12,-3 L0,0 L12,3 Z"/></g></g><g class="arrow-line"><path class="connection real" stroke-dasharray="" d="  M151.1,90.7 L151.1,75.22" style="stroke: rgb(0, 0, 0); stroke-width: 1; fill: none; fill-opacity: 1;"/><g stroke="none" fill="#000" transform="matrix(3.061616997868383e-16,1,-1,3.061616997868383e-16,151.09585193452375,73.22237723214259)" style="stroke: none; fill: rgb(0, 0, 0); stroke-width: 1;"><path d=" M12,-3 L0,0 L12,3 Z"/></g></g><g class="arrow-line"><path class="connection real" stroke-dasharray="" d="  M121.43,90.03 L121.43,74.56" style="stroke: rgb(0, 0, 0); stroke-width: 1; fill: none; fill-opacity: 1;"/><g stroke="none" fill="#000" transform="matrix(3.061616997868383e-16,1,-1,3.061616997868383e-16,121.42918526785711,72.55571056547592)" style="stroke: none; fill: rgb(0, 0, 0); stroke-width: 1;"><path d=" M12,-3 L0,0 L12,3 Z"/></g></g><g class="composite-shape"><path class="real" d=" M81.42,71.17 L112.07,71.17 L112.07,91.82 L81.42,91.82 Z" style="stroke-width: 1; stroke: rgb(0, 0, 0); fill: none; fill-opacity: 1;"/></g><g class="composite-shape"><path class="real" d=" M112.07,71.17 L142.72,71.17 L142.72,91.82 L112.07,91.82 Z" style="stroke-width: 1; stroke: rgb(0, 0, 0); fill: none; fill-opacity: 1;"/></g><g class="composite-shape"><path class="real" d=" M142.72,71.17 L173.37,71.17 L173.37,91.82 L142.72,91.82 Z" style="stroke-width: 1; stroke: rgb(0, 0, 0); fill: none; fill-opacity: 1;"/></g><g class="arrow-line"><path class="connection real" stroke-dasharray="1.125 3.35" d="  M81.42,91.82 L81.42,112.47" style="stroke: rgb(0, 0, 0); stroke-width: 1; fill: none; fill-opacity: 1;"/></g><g class="arrow-line"><path class="connection real" stroke-dasharray="1.125 3.35" d="  M112.07,91.82 L112.07,112.47" style="stroke: rgb(0, 0, 0); stroke-width: 1; fill: none; fill-opacity: 1;"/></g><g class="arrow-line"><path class="connection real" stroke-dasharray="1.125 3.35" d="  M142.72,91.82 L142.72,112.47" style="stroke: rgb(0, 0, 0); stroke-width: 1; fill: none; fill-opacity: 1;"/></g><g class="arrow-line"><path class="connection real" stroke-dasharray="1.125 3.35" d="  M173.37,91.82 L173.37,112.47" style="stroke: rgb(0, 0, 0); stroke-width: 1; fill: none; fill-opacity: 1;"/></g><g class="composite-shape"><path class="real" d=" M61.42,161.17 L92.07,161.17 L92.07,181.82 L61.42,181.82 Z" style="stroke-width: 1; stroke: rgb(0, 0, 0); fill: none; fill-opacity: 1;"/></g><g class="composite-shape"><path class="real" d=" M60.92,202.88 L91.57,202.88 L91.57,223.53 L60.92,223.53 Z" style="stroke-width: 1; stroke: rgb(0, 0, 0); fill: none; fill-opacity: 1;"/></g><g class="arrow-line"><path class="connection real" stroke-dasharray="" d="  M268.42,252.03 L268.42,40.91" style="stroke: rgb(0, 0, 0); stroke-width: 1; fill: none; fill-opacity: 1;"/><g stroke="none" fill="#000" transform="matrix(3.061616997868383e-16,1,-1,3.061616997868383e-16,268.42499999999995,37.91302083333335)" style="stroke: none; fill: rgb(0, 0, 0); stroke-width: 1;"><path d=" M8.93,-4.29 L0,0 L8.93,4.29 Z"/></g></g><g class="arrow-line"><path class="connection real" stroke-dasharray="" d="  M268.42,252.03 L394.54,252.03" style="stroke: rgb(0, 0, 0); stroke-width: 1; fill: none; fill-opacity: 1;"/><g stroke="none" fill="#000" transform="matrix(-1,1.2246467991473532e-16,-1.2246467991473532e-16,-1,397.5406249999999,252.02864583333337)" style="stroke: none; fill: rgb(0, 0, 0); stroke-width: 1;"><path d=" M8.93,-4.29 L0,0 L8.93,4.29 Z"/></g></g><g class="arrow-line"><path class="connection real" stroke-dasharray="" d="  M259.42,211.56 L279.34,211.56" style="stroke: rgb(0, 0, 0); stroke-width: 1; fill: none; fill-opacity: 1;"/></g><g class="arrow-line"><path class="connection real" stroke-dasharray="" d="  M259.74,171.56 L279.66,171.56" style="stroke: rgb(0, 0, 0); stroke-width: 1; fill: none; fill-opacity: 1;"/></g><g class="arrow-line"><path class="connection real" stroke-dasharray="" d="  M259.74,132.03 L279.66,132.03" style="stroke: rgb(0, 0, 0); stroke-width: 1; fill: none; fill-opacity: 1;"/></g><g class="arrow-line"><path class="connection real" stroke-dasharray="" d="  M259.74,81.03 L299.89,81.03" style="stroke: rgb(0, 0, 0); stroke-width: 1; fill: none; fill-opacity: 1;"/></g><g class="arrow-line"><path class="connection real" stroke-dasharray="" d="  M290.24,221.47 L290.24,206" style="stroke: rgb(0, 0, 0); stroke-width: 1; fill: none; fill-opacity: 1;"/><g stroke="none" fill="#000" transform="matrix(3.061616997868383e-16,1,-1,3.061616997868383e-16,290.2387090773809,204.00065104166674)" style="stroke: none; fill: rgb(0, 0, 0); stroke-width: 1;"><path d=" M12,-3 L0,0 L12,3 Z"/></g></g><g class="arrow-line"><path class="connection real" stroke-dasharray="" d="  M300.57,203.67 L300.57,219.14" style="stroke: rgb(0, 0, 0); stroke-width: 1; fill: none; fill-opacity: 1;"/><g stroke="none" fill="#000" transform="matrix(-1.8369701987210297e-16,-1,1,-1.8369701987210297e-16,300.5720424107143,221.14025297619042)" style="stroke: none; fill: rgb(0, 0, 0); stroke-width: 1;"><path d=" M12,-3 L0,0 L12,3 Z"/></g></g><g class="arrow-line"><path class="connection real" stroke-dasharray="" d="  M290.14,141.43 L290.14,125.95" style="stroke: rgb(0, 0, 0); stroke-width: 1; fill: none; fill-opacity: 1;"/><g stroke="none" fill="#000" transform="matrix(3.061616997868383e-16,1,-1,3.061616997868383e-16,290.14347098214284,123.9530319940477)" style="stroke: none; fill: rgb(0, 0, 0); stroke-width: 1;"><path d=" M12,-3 L0,0 L12,3 Z"/></g></g><g class="arrow-line"><path class="connection real" stroke-dasharray="" d="  M370.43,89.53 L370.43,74.06" style="stroke: rgb(0, 0, 0); stroke-width: 1; fill: none; fill-opacity: 1;"/><g stroke="none" fill="#000" transform="matrix(3.061616997868383e-16,1,-1,3.061616997868383e-16,370.42918526785706,72.05571056547615)" style="stroke: none; fill: rgb(0, 0, 0); stroke-width: 1;"><path d=" M12,-3 L0,0 L12,3 Z"/></g></g><g class="composite-shape"><path class="real" d=" M300.42,70.67 L331.07,70.67 L331.07,91.32 L300.42,91.32 Z" style="stroke-width: 1; stroke: rgb(0, 0, 0); fill: none; fill-opacity: 1;"/></g><g class="composite-shape"><path class="real" d=" M331.07,70.67 L361.72,70.67 L361.72,91.32 L331.07,91.32 Z" style="stroke-width: 1; stroke: rgb(0, 0, 0); fill: none; fill-opacity: 1;"/></g><g class="composite-shape"><path class="real" d=" M361.72,70.67 L392.37,70.67 L392.37,91.32 L361.72,91.32 Z" style="stroke-width: 1; stroke: rgb(0, 0, 0); fill: none; fill-opacity: 1;"/></g><g class="arrow-line"><path class="connection real" stroke-dasharray="1.125 3.35" d="  M300.42,91.32 L300.42,111.97" style="stroke: rgb(0, 0, 0); stroke-width: 1; fill: none; fill-opacity: 1;"/></g><g class="arrow-line"><path class="connection real" stroke-dasharray="1.125 3.35" d="  M331.07,91.32 L331.07,111.97" style="stroke: rgb(0, 0, 0); stroke-width: 1; fill: none; fill-opacity: 1;"/></g><g class="arrow-line"><path class="connection real" stroke-dasharray="1.125 3.35" d="  M361.72,91.32 L361.72,111.97" style="stroke: rgb(0, 0, 0); stroke-width: 1; fill: none; fill-opacity: 1;"/></g><g class="arrow-line"><path class="connection real" stroke-dasharray="1.125 3.35" d="  M392.37,91.32 L392.37,111.97" style="stroke: rgb(0, 0, 0); stroke-width: 1; fill: none; fill-opacity: 1;"/></g><g class="composite-shape"><path class="real" d=" M280.42,160.67 L311.07,160.67 L311.07,181.32 L280.42,181.32 Z" style="stroke-width: 1; stroke: rgb(0, 0, 0); fill: none; fill-opacity: 1;"/></g><g class="composite-shape"><path class="real" d=" M279.92,202.38 L310.57,202.38 L310.57,223.03 L279.92,223.03 Z" style="stroke-width: 1; stroke: rgb(0, 0, 0); fill: none; fill-opacity: 1;"/></g><g class="arrow-line"><path class="connection real" stroke-dasharray="" d="  M488.6,252.28 L488.6,41.16" style="stroke: rgb(0, 0, 0); stroke-width: 1; fill: none; fill-opacity: 1;"/><g stroke="none" fill="#000" transform="matrix(3.061616997868383e-16,1,-1,3.061616997868383e-16,488.60357142857157,38.16302083333335)" style="stroke: none; fill: rgb(0, 0, 0); stroke-width: 1;"><path d=" M8.93,-4.29 L0,0 L8.93,4.29 Z"/></g></g><g class="arrow-line"><path class="connection real" stroke-dasharray="" d="  M488.6,252.28 L614.72,252.28" style="stroke: rgb(0, 0, 0); stroke-width: 1; fill: none; fill-opacity: 1;"/><g stroke="none" fill="#000" transform="matrix(-1,1.2246467991473532e-16,-1.2246467991473532e-16,-1,617.7191964285715,252.27864583333334)" style="stroke: none; fill: rgb(0, 0, 0); stroke-width: 1;"><path d=" M8.93,-4.29 L0,0 L8.93,4.29 Z"/></g></g><g class="arrow-line"><path class="connection real" stroke-dasharray="" d="  M479.6,211.81 L499.52,211.81" style="stroke: rgb(0, 0, 0); stroke-width: 1; fill: none; fill-opacity: 1;"/></g><g class="arrow-line"><path class="connection real" stroke-dasharray="" d="  M479.92,171.81 L499.84,171.81" style="stroke: rgb(0, 0, 0); stroke-width: 1; fill: none; fill-opacity: 1;"/></g><g class="arrow-line"><path class="connection real" stroke-dasharray="" d="  M479.92,132.28 L499.84,132.28" style="stroke: rgb(0, 0, 0); stroke-width: 1; fill: none; fill-opacity: 1;"/></g><g class="arrow-line"><path class="connection real" stroke-dasharray="" d="  M479.92,81.28 L520.07,81.28" style="stroke: rgb(0, 0, 0); stroke-width: 1; fill: none; fill-opacity: 1;"/></g><g class="arrow-line"><path class="connection real" stroke-dasharray="" d="  M510.42,221.72 L510.42,206.25" style="stroke: rgb(0, 0, 0); stroke-width: 1; fill: none; fill-opacity: 1;"/><g stroke="none" fill="#000" transform="matrix(3.061616997868383e-16,1,-1,3.061616997868383e-16,510.4172805059525,204.25065104166674)" style="stroke: none; fill: rgb(0, 0, 0); stroke-width: 1;"><path d=" M12,-3 L0,0 L12,3 Z"/></g></g><g class="arrow-line"><path class="connection real" stroke-dasharray="" d="  M520.75,203.92 L520.75,219.39" style="stroke: rgb(0, 0, 0); stroke-width: 1; fill: none; fill-opacity: 1;"/><g stroke="none" fill="#000" transform="matrix(-1.8369701987210297e-16,-1,1,-1.8369701987210297e-16,520.7506138392857,221.39025297619048)" style="stroke: none; fill: rgb(0, 0, 0); stroke-width: 1;"><path d=" M12,-3 L0,0 L12,3 Z"/></g></g><g class="arrow-line"><path class="connection real" stroke-dasharray="" d="  M510.61,141.78 L510.61,126.31" style="stroke: rgb(0, 0, 0); stroke-width: 1; fill: none; fill-opacity: 1;"/><g stroke="none" fill="#000" transform="matrix(3.061616997868383e-16,1,-1,3.061616997868383e-16,510.6077566964287,124.30571056547615)" style="stroke: none; fill: rgb(0, 0, 0); stroke-width: 1;"><path d=" M12,-3 L0,0 L12,3 Z"/></g></g><g class="arrow-line"><path class="connection real" stroke-dasharray="" d="  M540.61,140.78 L540.61,125.31" style="stroke: rgb(0, 0, 0); stroke-width: 1; fill: none; fill-opacity: 1;"/><g stroke="none" fill="#000" transform="matrix(3.061616997868383e-16,1,-1,3.061616997868383e-16,540.6077566964289,123.30571056547615)" style="stroke: none; fill: rgb(0, 0, 0); stroke-width: 1;"><path d=" M12,-3 L0,0 L12,3 Z"/></g></g><g class="composite-shape"><path class="real" d=" M520.6,70.92 L551.25,70.92 L551.25,91.57 L520.6,91.57 Z" style="stroke-width: 1; stroke: rgb(0, 0, 0); fill: none; fill-opacity: 1;"/></g><g class="composite-shape"><path class="real" d=" M551.25,70.92 L581.9,70.92 L581.9,91.57 L551.25,91.57 Z" style="stroke-width: 1; stroke: rgb(0, 0, 0); fill: none; fill-opacity: 1;"/></g><g class="composite-shape"><path class="real" d=" M581.9,70.92 L612.55,70.92 L612.55,91.57 L581.9,91.57 Z" style="stroke-width: 1; stroke: rgb(0, 0, 0); fill: none; fill-opacity: 1;"/></g><g class="arrow-line"><path class="connection real" stroke-dasharray="1.125 3.35" d="  M520.6,91.57 L520.6,112.22" style="stroke: rgb(0, 0, 0); stroke-width: 1; fill: none; fill-opacity: 1;"/></g><g class="arrow-line"><path class="connection real" stroke-dasharray="1.125 3.35" d="  M551.25,91.57 L551.25,112.22" style="stroke: rgb(0, 0, 0); stroke-width: 1; fill: none; fill-opacity: 1;"/></g><g class="arrow-line"><path class="connection real" stroke-dasharray="1.125 3.35" d="  M581.9,91.57 L581.9,112.22" style="stroke: rgb(0, 0, 0); stroke-width: 1; fill: none; fill-opacity: 1;"/></g><g class="arrow-line"><path class="connection real" stroke-dasharray="1.125 3.35" d="  M612.55,91.57 L612.55,112.22" style="stroke: rgb(0, 0, 0); stroke-width: 1; fill: none; fill-opacity: 1;"/></g><g class="composite-shape"><path class="real" d=" M500.6,160.92 L531.25,160.92 L531.25,181.57 L500.6,181.57 Z" style="stroke-width: 1; stroke: rgb(0, 0, 0); fill: none; fill-opacity: 1;"/></g><g class="composite-shape"><path class="real" d=" M500.1,202.63 L530.75,202.63 L530.75,223.28 L500.1,223.28 Z" style="stroke-width: 1; stroke: rgb(0, 0, 0); fill: none; fill-opacity: 1;"/></g><g class="composite-shape"><path class="real" d=" M60.82,122.77 L91.47,122.77 L91.47,143.42 L60.82,143.42 Z" style="stroke-width: 1; stroke: rgb(0, 0, 0); fill: none; fill-opacity: 1;"/></g><g class="composite-shape"><path class="real" d=" M91.47,122.77 L122.12,122.77 L122.12,143.42 L91.47,143.42 Z" style="stroke-width: 1; stroke: rgb(0, 0, 0); fill: none; fill-opacity: 1;"/></g><g class="composite-shape"><path class="real" d=" M279.47,121.97 L310.12,121.97 L310.12,142.62 L279.47,142.62 Z" style="stroke-width: 1; stroke: rgb(0, 0, 0); fill: none; fill-opacity: 1;"/></g><g class="composite-shape"><path class="real" d=" M310.12,121.97 L340.77,121.97 L340.77,142.62 L310.12,142.62 Z" style="stroke-width: 1; stroke: rgb(0, 0, 0); fill: none; fill-opacity: 1;"/></g><g class="composite-shape"><path class="real" d=" M340.77,121.97 L371.42,121.97 L371.42,142.62 L340.77,142.62 Z" style="stroke-width: 1; stroke: rgb(0, 0, 0); fill: none; fill-opacity: 1;"/></g><g class="composite-shape"><path class="real" d=" M499.37,121.97 L530.02,121.97 L530.02,142.62 L499.37,142.62 Z" style="stroke-width: 1; stroke: rgb(0, 0, 0); fill: none; fill-opacity: 1;"/></g><g class="composite-shape"><path class="real" d=" M530.02,121.97 L560.67,121.97 L560.67,142.62 L530.02,142.62 Z" style="stroke-width: 1; stroke: rgb(0, 0, 0); fill: none; fill-opacity: 1;"/></g><g class="composite-shape"><path class="real" d=" M560.67,121.97 L591.32,121.97 L591.32,142.62 L560.67,142.62 Z" style="stroke-width: 1; stroke: rgb(0, 0, 0); fill: none; fill-opacity: 1;"/></g><g class="composite-shape"><path class="real" d=" M591.32,121.97 L621.97,121.97 L621.97,142.62 L591.32,142.62 Z" style="stroke-width: 1; stroke: rgb(0, 0, 0); fill: none; fill-opacity: 1;"/></g><g class="arrow-line"><path class="connection real" stroke-dasharray="" d="  M100.34,141.53 L100.34,126.05" style="stroke: rgb(0, 0, 0); stroke-width: 1; fill: none; fill-opacity: 1;"/><g stroke="none" fill="#000" transform="matrix(3.061616997868383e-16,1,-1,3.061616997868383e-16,100.3434709821428,124.0530319940475)" style="stroke: none; fill: rgb(0, 0, 0); stroke-width: 1;"><path d=" M12,-3 L0,0 L12,3 Z"/></g></g><g class="arrow-line"><path class="connection real" stroke-dasharray="" d="  M320.74,141.23 L320.74,125.75" style="stroke: rgb(0, 0, 0); stroke-width: 1; fill: none; fill-opacity: 1;"/><g stroke="none" fill="#000" transform="matrix(3.061616997868383e-16,1,-1,3.061616997868383e-16,320.74347098214287,123.75303199404772)" style="stroke: none; fill: rgb(0, 0, 0); stroke-width: 1;"><path d=" M12,-3 L0,0 L12,3 Z"/></g></g><g class="arrow-line"><path class="connection real" stroke-dasharray="" d="  M351.14,141.23 L351.14,125.75" style="stroke: rgb(0, 0, 0); stroke-width: 1; fill: none; fill-opacity: 1;"/><g stroke="none" fill="#000" transform="matrix(3.061616997868383e-16,1,-1,3.061616997868383e-16,351.14347098214284,123.75303199404772)" style="stroke: none; fill: rgb(0, 0, 0); stroke-width: 1;"><path d=" M12,-3 L0,0 L12,3 Z"/></g></g><g class="arrow-line"><path class="connection real" stroke-dasharray="" d="  M570.81,140.78 L570.81,125.31" style="stroke: rgb(0, 0, 0); stroke-width: 1; fill: none; fill-opacity: 1;"/><g stroke="none" fill="#000" transform="matrix(3.061616997868383e-16,1,-1,3.061616997868383e-16,570.8077566964287,123.30571056547615)" style="stroke: none; fill: rgb(0, 0, 0); stroke-width: 1;"><path d=" M12,-3 L0,0 L12,3 Z"/></g></g><g class="arrow-line"><path class="connection real" stroke-dasharray="" d="  M599.61,140.58 L599.61,125.11" style="stroke: rgb(0, 0, 0); stroke-width: 1; fill: none; fill-opacity: 1;"/><g stroke="none" fill="#000" transform="matrix(3.061616997868383e-16,1,-1,3.061616997868383e-16,599.6077566964286,123.10571056547616)" style="stroke: none; fill: rgb(0, 0, 0); stroke-width: 1;"><path d=" M12,-3 L0,0 L12,3 Z"/></g></g><g/></g><g/><g/><g/></svg>
        <svg xmlns="http://www.w3.org/2000/svg" xmlns:xlink="http://www.w3.org/1999/xlink" width="660" height="276.9921875" style="width:660px;height:276.9921875px;font-family:Asana-Math, Asana;background:transparent;"><g><g><g><text x="10.05859375" y="15.68359375" style="white-space:pre;stroke:none;fill:rgb(0,0,0);fill-opacity:1;font-size:15px;font-family:Arial, Helvetica, sans-serif;font-weight:400;font-style:normal;dominant-baseline:text-before-edge;text-decoration:none solid rgb(0, 0, 0);">Hibridização </text></g><g><g><g><g><g transform="matrix(1,0,0,1,96.77734375,28.93359375)"><path transform="matrix(0.017,0,0,-0.017,0,0)" d="M31 148C26 97 20 62 9 16C47 -2 81 -11 116 -11C165 -11 211 7 262 47C313 87 334 124 334 174C334 228 302 257 228 271L185 279C125 290 106 307 106 348C106 401 151 442 208 442C249 442 287 424 303 397L303 342L326 342C330 377 334 404 345 455C306 474 278 482 245 482C193 482 132 452 84 404C58 377 47 352 47 316C47 260 78 228 144 215L207 203C251 195 267 177 267 138C267 73 221 29 150 29C115 29 84 40 56 64L56 148ZM564 -11C620 -11 735 62 778 125C819 186 853 296 853 371C853 438 830 482 794 482C752 482 699 456 647 409C606 374 586 348 550 289L574 408C577 425 579 440 579 452C579 471 571 482 557 482C536 482 498 461 424 408L396 388L403 368L435 389C463 407 474 412 483 412C493 412 500 403 500 389C500 381 498 361 496 351L438 8C428 -52 409 -143 389 -233L381 -270L388 -276C409 -269 429 -264 461 -259L503 3C524 -4 546 -11 564 -11ZM531 165C553 293 660 424 743 424C769 424 781 402 781 356C781 275 741 156 688 80C668 51 636 36 595 36C564 36 539 43 513 59Z" stroke="rgb(0,0,0)" stroke-opacity="1" stroke-width="8" fill="rgb(0,0,0)" fill-opacity="1"></path></g></g></g></g></g></g></g><g><g><g><text x="231.328125" y="17.67578125" style="white-space:pre;stroke:none;fill:rgb(0,0,0);fill-opacity:1;font-size:15px;font-family:Arial, Helvetica, sans-serif;font-weight:400;font-style:normal;dominant-baseline:text-before-edge;text-decoration:none solid rgb(0, 0, 0);">Hibridização </text></g><g><g><g><g><g transform="matrix(1,0,0,1,318.046875,30.92578125)"><path transform="matrix(0.017,0,0,-0.017,0,0)" d="M31 148C26 97 20 62 9 16C47 -2 81 -11 116 -11C165 -11 211 7 262 47C313 87 334 124 334 174C334 228 302 257 228 271L185 279C125 290 106 307 106 348C106 401 151 442 208 442C249 442 287 424 303 397L303 342L326 342C330 377 334 404 345 455C306 474 278 482 245 482C193 482 132 452 84 404C58 377 47 352 47 316C47 260 78 228 144 215L207 203C251 195 267 177 267 138C267 73 221 29 150 29C115 29 84 40 56 64L56 148ZM564 -11C620 -11 735 62 778 125C819 186 853 296 853 371C853 438 830 482 794 482C752 482 699 456 647 409C606 374 586 348 550 289L574 408C577 425 579 440 579 452C579 471 571 482 557 482C536 482 498 461 424 408L396 388L403 368L435 389C463 407 474 412 483 412C493 412 500 403 500 389C500 381 498 361 496 351L438 8C428 -52 409 -143 389 -233L381 -270L388 -276C409 -269 429 -264 461 -259L503 3C524 -4 546 -11 564 -11ZM531 165C553 293 660 424 743 424C769 424 781 402 781 356C781 275 741 156 688 80C668 51 636 36 595 36C564 36 539 43 513 59Z" stroke="rgb(0,0,0)" stroke-opacity="1" stroke-width="8" fill="rgb(0,0,0)" fill-opacity="1"></path></g></g><g><g><g><g><g transform="matrix(1,0,0,1,334.12109375,25.49375)"><path transform="matrix(0.0119,0,0,-0.0119,0,0)" d="M16 23L16 -3C203 -3 203 0 239 0C275 0 275 -3 468 -3L468 82C353 77 307 81 122 77L304 270C401 373 431 428 431 503C431 618 353 689 226 689C154 689 105 669 56 619L39 483L68 483L81 529C97 587 133 612 200 612C286 612 341 558 341 473C341 398 299 324 186 204Z" stroke="rgb(0,0,0)" stroke-opacity="1" stroke-width="8" fill="rgb(0,0,0)" fill-opacity="1"></path></g></g></g></g></g></g></g></g></g></g><g><g><g><text x="450.52734375" y="18.69140625" style="white-space:pre;stroke:none;fill:rgb(0,0,0);fill-opacity:1;font-size:15px;font-family:Arial, Helvetica, sans-serif;font-weight:400;font-style:normal;dominant-baseline:text-before-edge;text-decoration:none solid rgb(0, 0, 0);">Hibridização </text></g><g><g><g><g><g transform="matrix(1,0,0,1,537.24609375,31.94140625)"><path transform="matrix(0.017,0,0,-0.017,0,0)" d="M31 148C26 97 20 62 9 16C47 -2 81 -11 116 -11C165 -11 211 7 262 47C313 87 334 124 334 174C334 228 302 257 228 271L185 279C125 290 106 307 106 348C106 401 151 442 208 442C249 442 287 424 303 397L303 342L326 342C330 377 334 404 345 455C306 474 278 482 245 482C193 482 132 452 84 404C58 377 47 352 47 316C47 260 78 228 144 215L207 203C251 195 267 177 267 138C267 73 221 29 150 29C115 29 84 40 56 64L56 148ZM564 -11C620 -11 735 62 778 125C819 186 853 296 853 371C853 438 830 482 794 482C752 482 699 456 647 409C606 374 586 348 550 289L574 408C577 425 579 440 579 452C579 471 571 482 557 482C536 482 498 461 424 408L396 388L403 368L435 389C463 407 474 412 483 412C493 412 500 403 500 389C500 381 498 361 496 351L438 8C428 -52 409 -143 389 -233L381 -270L388 -276C409 -269 429 -264 461 -259L503 3C524 -4 546 -11 564 -11ZM531 165C553 293 660 424 743 424C769 424 781 402 781 356C781 275 741 156 688 80C668 51 636 36 595 36C564 36 539 43 513 59Z" stroke="rgb(0,0,0)" stroke-opacity="1" stroke-width="8" fill="rgb(0,0,0)" fill-opacity="1"></path></g></g><g><g><g><g><g transform="matrix(1,0,0,1,553.3203125,26.509375)"><path transform="matrix(0.0119,0,0,-0.0119,0,0)" d="M462 224C462 345 355 366 308 374C388 436 418 482 418 541C418 630 344 689 233 689C165 689 120 670 72 622L43 498L74 498L92 554C103 588 166 622 218 622C283 622 336 569 336 506C336 431 277 368 206 368C198 368 187 369 174 370L159 371L147 318L154 312C192 329 211 334 238 334C321 334 369 281 369 190C369 88 308 21 215 21C169 21 128 36 98 64C74 86 61 109 42 163L15 153C36 92 44 56 50 6C103 -12 147 -20 184 -20C307 -20 462 87 462 224Z" stroke="rgb(0,0,0)" stroke-opacity="1" stroke-width="8" fill="rgb(0,0,0)" fill-opacity="1"></path></g></g></g></g></g></g></g></g></g></g><g><g><g><g><g><g><g transform="matrix(1,0,0,1,84.296875,111.16015625)"><path transform="matrix(0.017,0,0,-0.017,0,0)" d="M16 23L16 -3C203 -3 203 0 239 0C275 0 275 -3 468 -3L468 82C353 77 307 81 122 77L304 270C401 373 431 428 431 503C431 618 353 689 226 689C154 689 105 669 56 619L39 483L68 483L81 529C97 587 133 612 200 612C286 612 341 558 341 473C341 398 299 324 186 204ZM675 -11C731 -11 846 62 889 125C930 186 964 296 964 371C964 438 941 482 905 482C863 482 810 456 758 409C717 374 697 348 661 289L685 408C688 425 690 440 690 452C690 471 682 482 668 482C647 482 609 461 535 408L507 388L514 368L546 389C574 407 585 412 594 412C604 412 611 403 611 389C611 381 609 361 607 351L549 8C539 -52 520 -143 500 -233L492 -270L499 -276C520 -269 540 -264 572 -259L614 3C635 -4 657 -11 675 -11ZM642 165C664 293 771 424 854 424C880 424 892 402 892 356C892 275 852 156 799 80C779 51 747 36 706 36C675 36 650 43 624 59Z" stroke="rgb(0,0,0)" stroke-opacity="1" stroke-width="8" fill="rgb(0,0,0)" fill-opacity="1"></path></g></g><g><g><g><g><g transform="matrix(1,0,0,1,101.77734375,115.415625)"><path transform="matrix(0.0119,0,0,-0.0119,0,0)" d="M9 1C24 -7 40 -11 52 -11C85 -11 124 18 155 65L231 182L242 113C255 28 278 -11 314 -11C336 -11 368 6 400 35L449 79L440 98C404 68 379 53 363 53C348 53 335 63 325 83C316 102 305 139 300 168L282 269L317 318C364 383 391 406 422 406C438 406 450 398 455 383L469 387L484 472C472 479 463 482 454 482C414 482 374 446 312 354L275 299L269 347C257 446 230 482 171 482C145 482 123 474 114 461L56 378L73 368C103 402 123 416 142 416C175 416 197 375 214 277L225 215L185 153C142 86 108 54 80 54C65 54 54 58 52 63L41 91L21 88C21 53 13 27 9 1Z" stroke="rgb(0,0,0)" stroke-opacity="1" stroke-width="8" fill="rgb(0,0,0)" fill-opacity="1"></path></g></g></g></g></g></g></g></g></g></g><g><g><g><g><g><g><g transform="matrix(1,0,0,1,114.31640625,110.80859375)"><path transform="matrix(0.017,0,0,-0.017,0,0)" d="M16 23L16 -3C203 -3 203 0 239 0C275 0 275 -3 468 -3L468 82C353 77 307 81 122 77L304 270C401 373 431 428 431 503C431 618 353 689 226 689C154 689 105 669 56 619L39 483L68 483L81 529C97 587 133 612 200 612C286 612 341 558 341 473C341 398 299 324 186 204ZM675 -11C731 -11 846 62 889 125C930 186 964 296 964 371C964 438 941 482 905 482C863 482 810 456 758 409C717 374 697 348 661 289L685 408C688 425 690 440 690 452C690 471 682 482 668 482C647 482 609 461 535 408L507 388L514 368L546 389C574 407 585 412 594 412C604 412 611 403 611 389C611 381 609 361 607 351L549 8C539 -52 520 -143 500 -233L492 -270L499 -276C520 -269 540 -264 572 -259L614 3C635 -4 657 -11 675 -11ZM642 165C664 293 771 424 854 424C880 424 892 402 892 356C892 275 852 156 799 80C779 51 747 36 706 36C675 36 650 43 624 59Z" stroke="rgb(0,0,0)" stroke-opacity="1" stroke-width="8" fill="rgb(0,0,0)" fill-opacity="1"></path></g></g><g><g><g><g><g transform="matrix(1,0,0,1,131.796875,115.0640625)"><path transform="matrix(0.0119,0,0,-0.0119,0,0)" d="M-7 -180C-8 -187 -8 -193 -8 -198C-8 -241 29 -276 74 -276C180 -276 290 -152 349 33L490 473L479 482C450 471 427 465 405 463L370 331C358 284 323 211 290 162C255 111 206 67 184 67C172 67 163 90 164 115L180 322C182 353 184 391 184 419C184 464 177 482 160 482C147 482 133 475 85 442L3 386L14 368L64 398C69 401 80 410 89 410C103 410 111 391 111 358C111 357 111 351 110 343L93 100L92 60C92 18 110 -11 135 -11C172 -11 256 74 331 187L282 16C231 -161 181 -234 111 -234C76 -234 49 -207 49 -172C49 -167 50 -159 51 -150L41 -146Z" stroke="rgb(0,0,0)" stroke-opacity="1" stroke-width="8" fill="rgb(0,0,0)" fill-opacity="1"></path></g></g></g></g></g></g></g></g></g></g><g><g><g><g><g><g><g transform="matrix(1,0,0,1,144.9609375,110.80859375)"><path transform="matrix(0.017,0,0,-0.017,0,0)" d="M16 23L16 -3C203 -3 203 0 239 0C275 0 275 -3 468 -3L468 82C353 77 307 81 122 77L304 270C401 373 431 428 431 503C431 618 353 689 226 689C154 689 105 669 56 619L39 483L68 483L81 529C97 587 133 612 200 612C286 612 341 558 341 473C341 398 299 324 186 204ZM675 -11C731 -11 846 62 889 125C930 186 964 296 964 371C964 438 941 482 905 482C863 482 810 456 758 409C717 374 697 348 661 289L685 408C688 425 690 440 690 452C690 471 682 482 668 482C647 482 609 461 535 408L507 388L514 368L546 389C574 407 585 412 594 412C604 412 611 403 611 389C611 381 609 361 607 351L549 8C539 -52 520 -143 500 -233L492 -270L499 -276C520 -269 540 -264 572 -259L614 3C635 -4 657 -11 675 -11ZM642 165C664 293 771 424 854 424C880 424 892 402 892 356C892 275 852 156 799 80C779 51 747 36 706 36C675 36 650 43 624 59Z" stroke="rgb(0,0,0)" stroke-opacity="1" stroke-width="8" fill="rgb(0,0,0)" fill-opacity="1"></path></g></g><g><g><g><g><g transform="matrix(1,0,0,1,162.44140625,115.0640625)"><path transform="matrix(0.0119,0,0,-0.0119,0,0)" d="M322 -11C334 -11 343 -9 372 -1C383 61 391 95 402 142L380 142L358 82C352 64 340 57 319 57C307 57 291 59 270 64L252 68C219 75 185 80 166 80C134 80 107 74 71 59L410 441L416 473L407 482L384 459C374 449 364 445 350 445C316 445 264 453 216 466L198 471C170 478 150 482 136 482C119 482 99 479 75 472L43 350L64 350L94 408C111 412 120 413 133 413C174 413 206 398 259 398C295 398 319 404 352 421L-1 21L8 -6C37 17 64 26 99 26C162 26 253 -11 322 -11Z" stroke="rgb(0,0,0)" stroke-opacity="1" stroke-width="8" fill="rgb(0,0,0)" fill-opacity="1"></path></g></g></g></g></g></g></g></g></g></g><g><g><g><g><g><g><g transform="matrix(1,0,0,1,21.2890625,84.0703125)"><path transform="matrix(0.017,0,0,-0.017,0,0)" d="M16 23L16 -3C203 -3 203 0 239 0C275 0 275 -3 468 -3L468 82C353 77 307 81 122 77L304 270C401 373 431 428 431 503C431 618 353 689 226 689C154 689 105 669 56 619L39 483L68 483L81 529C97 587 133 612 200 612C286 612 341 558 341 473C341 398 299 324 186 204ZM675 -11C731 -11 846 62 889 125C930 186 964 296 964 371C964 438 941 482 905 482C863 482 810 456 758 409C717 374 697 348 661 289L685 408C688 425 690 440 690 452C690 471 682 482 668 482C647 482 609 461 535 408L507 388L514 368L546 389C574 407 585 412 594 412C604 412 611 403 611 389C611 381 609 361 607 351L549 8C539 -52 520 -143 500 -233L492 -270L499 -276C520 -269 540 -264 572 -259L614 3C635 -4 657 -11 675 -11ZM642 165C664 293 771 424 854 424C880 424 892 402 892 356C892 275 852 156 799 80C779 51 747 36 706 36C675 36 650 43 624 59Z" stroke="rgb(0,0,0)" stroke-opacity="1" stroke-width="8" fill="rgb(0,0,0)" fill-opacity="1"></path></g></g><g><g><g><g><g transform="matrix(1,0,0,1,39.23828125,78.63828125)"><path transform="matrix(0.0119,0,0,-0.0119,0,0)" d="M16 23L16 -3C203 -3 203 0 239 0C275 0 275 -3 468 -3L468 82C353 77 307 81 122 77L304 270C401 373 431 428 431 503C431 618 353 689 226 689C154 689 105 669 56 619L39 483L68 483L81 529C97 587 133 612 200 612C286 612 341 558 341 473C341 398 299 324 186 204Z" stroke="rgb(0,0,0)" stroke-opacity="1" stroke-width="8" fill="rgb(0,0,0)" fill-opacity="1"></path></g></g></g></g></g></g></g></g></g></g><g><g><g><g><g><g><g transform="matrix(1,0,0,1,22.63671875,174.734375)"><path transform="matrix(0.017,0,0,-0.017,0,0)" d="M16 23L16 -3C203 -3 203 0 239 0C275 0 275 -3 468 -3L468 82C353 77 307 81 122 77L304 270C401 373 431 428 431 503C431 618 353 689 226 689C154 689 105 669 56 619L39 483L68 483L81 529C97 587 133 612 200 612C286 612 341 558 341 473C341 398 299 324 186 204ZM530 148C525 97 519 62 508 16C546 -2 580 -11 615 -11C664 -11 710 7 761 47C812 87 833 124 833 174C833 228 801 257 727 271L684 279C624 290 605 307 605 348C605 401 650 442 707 442C748 442 786 424 802 397L802 342L825 342C829 377 833 404 844 455C805 474 777 482 744 482C692 482 631 452 583 404C557 377 546 352 546 316C546 260 577 228 643 215L706 203C750 195 766 177 766 138C766 73 720 29 649 29C614 29 583 40 555 64L555 148Z" stroke="rgb(0,0,0)" stroke-opacity="1" stroke-width="8" fill="rgb(0,0,0)" fill-opacity="1"></path></g></g><g><g><g><g><g transform="matrix(1,0,0,1,38.7109375,169.30234375)"><path transform="matrix(0.0119,0,0,-0.0119,0,0)" d="M263 689C108 689 29 566 29 324C29 207 50 106 85 57C120 8 176 -20 238 -20C389 -20 465 110 465 366C465 585 400 689 263 689ZM245 654C342 654 381 556 381 316C381 103 343 15 251 15C154 15 113 116 113 360C113 571 150 654 245 654Z" stroke="rgb(0,0,0)" stroke-opacity="1" stroke-width="8" fill="rgb(0,0,0)" fill-opacity="1"></path></g></g></g></g></g></g></g></g></g></g><g><g><g><g><g><g><g transform="matrix(1,0,0,1,22.96875,214.734375)"><path transform="matrix(0.017,0,0,-0.017,0,0)" d="M418 -3L418 27L366 30C311 33 301 44 301 96L301 700L60 598L67 548L217 614L217 96C217 44 206 33 152 30L96 27L96 -3C250 0 250 0 261 0C292 0 402 -3 418 -3ZM530 148C525 97 519 62 508 16C546 -2 580 -11 615 -11C664 -11 710 7 761 47C812 87 833 124 833 174C833 228 801 257 727 271L684 279C624 290 605 307 605 348C605 401 650 442 707 442C748 442 786 424 802 397L802 342L825 342C829 377 833 404 844 455C805 474 777 482 744 482C692 482 631 452 583 404C557 377 546 352 546 316C546 260 577 228 643 215L706 203C750 195 766 177 766 138C766 73 720 29 649 29C614 29 583 40 555 64L555 148Z" stroke="rgb(0,0,0)" stroke-opacity="1" stroke-width="8" fill="rgb(0,0,0)" fill-opacity="1"></path></g></g><g><g><g><g><g transform="matrix(1,0,0,1,39.04296875,209.30234375)"><path transform="matrix(0.0119,0,0,-0.0119,0,0)" d="M16 23L16 -3C203 -3 203 0 239 0C275 0 275 -3 468 -3L468 82C353 77 307 81 122 77L304 270C401 373 431 428 431 503C431 618 353 689 226 689C154 689 105 669 56 619L39 483L68 483L81 529C97 587 133 612 200 612C286 612 341 558 341 473C341 398 299 324 186 204Z" stroke="rgb(0,0,0)" stroke-opacity="1" stroke-width="8" fill="rgb(0,0,0)" fill-opacity="1"></path></g></g></g></g></g></g></g></g></g></g><g><g><g><g><g><g><g transform="matrix(1,0,0,1,303.30078125,110.65234375)"><path transform="matrix(0.017,0,0,-0.017,0,0)" d="M16 23L16 -3C203 -3 203 0 239 0C275 0 275 -3 468 -3L468 82C353 77 307 81 122 77L304 270C401 373 431 428 431 503C431 618 353 689 226 689C154 689 105 669 56 619L39 483L68 483L81 529C97 587 133 612 200 612C286 612 341 558 341 473C341 398 299 324 186 204ZM675 -11C731 -11 846 62 889 125C930 186 964 296 964 371C964 438 941 482 905 482C863 482 810 456 758 409C717 374 697 348 661 289L685 408C688 425 690 440 690 452C690 471 682 482 668 482C647 482 609 461 535 408L507 388L514 368L546 389C574 407 585 412 594 412C604 412 611 403 611 389C611 381 609 361 607 351L549 8C539 -52 520 -143 500 -233L492 -270L499 -276C520 -269 540 -264 572 -259L614 3C635 -4 657 -11 675 -11ZM642 165C664 293 771 424 854 424C880 424 892 402 892 356C892 275 852 156 799 80C779 51 747 36 706 36C675 36 650 43 624 59Z" stroke="rgb(0,0,0)" stroke-opacity="1" stroke-width="8" fill="rgb(0,0,0)" fill-opacity="1"></path></g></g><g><g><g><g><g transform="matrix(1,0,0,1,320.78125,114.9078125)"><path transform="matrix(0.0119,0,0,-0.0119,0,0)" d="M9 1C24 -7 40 -11 52 -11C85 -11 124 18 155 65L231 182L242 113C255 28 278 -11 314 -11C336 -11 368 6 400 35L449 79L440 98C404 68 379 53 363 53C348 53 335 63 325 83C316 102 305 139 300 168L282 269L317 318C364 383 391 406 422 406C438 406 450 398 455 383L469 387L484 472C472 479 463 482 454 482C414 482 374 446 312 354L275 299L269 347C257 446 230 482 171 482C145 482 123 474 114 461L56 378L73 368C103 402 123 416 142 416C175 416 197 375 214 277L225 215L185 153C142 86 108 54 80 54C65 54 54 58 52 63L41 91L21 88C21 53 13 27 9 1Z" stroke="rgb(0,0,0)" stroke-opacity="1" stroke-width="8" fill="rgb(0,0,0)" fill-opacity="1"></path></g></g></g></g></g></g></g></g></g></g><g><g><g><g><g><g><g transform="matrix(1,0,0,1,333.30078125,110.30078125)"><path transform="matrix(0.017,0,0,-0.017,0,0)" d="M16 23L16 -3C203 -3 203 0 239 0C275 0 275 -3 468 -3L468 82C353 77 307 81 122 77L304 270C401 373 431 428 431 503C431 618 353 689 226 689C154 689 105 669 56 619L39 483L68 483L81 529C97 587 133 612 200 612C286 612 341 558 341 473C341 398 299 324 186 204ZM675 -11C731 -11 846 62 889 125C930 186 964 296 964 371C964 438 941 482 905 482C863 482 810 456 758 409C717 374 697 348 661 289L685 408C688 425 690 440 690 452C690 471 682 482 668 482C647 482 609 461 535 408L507 388L514 368L546 389C574 407 585 412 594 412C604 412 611 403 611 389C611 381 609 361 607 351L549 8C539 -52 520 -143 500 -233L492 -270L499 -276C520 -269 540 -264 572 -259L614 3C635 -4 657 -11 675 -11ZM642 165C664 293 771 424 854 424C880 424 892 402 892 356C892 275 852 156 799 80C779 51 747 36 706 36C675 36 650 43 624 59Z" stroke="rgb(0,0,0)" stroke-opacity="1" stroke-width="8" fill="rgb(0,0,0)" fill-opacity="1"></path></g></g><g><g><g><g><g transform="matrix(1,0,0,1,350.78125,114.55625)"><path transform="matrix(0.0119,0,0,-0.0119,0,0)" d="M-7 -180C-8 -187 -8 -193 -8 -198C-8 -241 29 -276 74 -276C180 -276 290 -152 349 33L490 473L479 482C450 471 427 465 405 463L370 331C358 284 323 211 290 162C255 111 206 67 184 67C172 67 163 90 164 115L180 322C182 353 184 391 184 419C184 464 177 482 160 482C147 482 133 475 85 442L3 386L14 368L64 398C69 401 80 410 89 410C103 410 111 391 111 358C111 357 111 351 110 343L93 100L92 60C92 18 110 -11 135 -11C172 -11 256 74 331 187L282 16C231 -161 181 -234 111 -234C76 -234 49 -207 49 -172C49 -167 50 -159 51 -150L41 -146Z" stroke="rgb(0,0,0)" stroke-opacity="1" stroke-width="8" fill="rgb(0,0,0)" fill-opacity="1"></path></g></g></g></g></g></g></g></g></g></g><g><g><g><g><g><g><g transform="matrix(1,0,0,1,364.35546875,110.30078125)"><path transform="matrix(0.017,0,0,-0.017,0,0)" d="M16 23L16 -3C203 -3 203 0 239 0C275 0 275 -3 468 -3L468 82C353 77 307 81 122 77L304 270C401 373 431 428 431 503C431 618 353 689 226 689C154 689 105 669 56 619L39 483L68 483L81 529C97 587 133 612 200 612C286 612 341 558 341 473C341 398 299 324 186 204ZM675 -11C731 -11 846 62 889 125C930 186 964 296 964 371C964 438 941 482 905 482C863 482 810 456 758 409C717 374 697 348 661 289L685 408C688 425 690 440 690 452C690 471 682 482 668 482C647 482 609 461 535 408L507 388L514 368L546 389C574 407 585 412 594 412C604 412 611 403 611 389C611 381 609 361 607 351L549 8C539 -52 520 -143 500 -233L492 -270L499 -276C520 -269 540 -264 572 -259L614 3C635 -4 657 -11 675 -11ZM642 165C664 293 771 424 854 424C880 424 892 402 892 356C892 275 852 156 799 80C779 51 747 36 706 36C675 36 650 43 624 59Z" stroke="rgb(0,0,0)" stroke-opacity="1" stroke-width="8" fill="rgb(0,0,0)" fill-opacity="1"></path></g></g><g><g><g><g><g transform="matrix(1,0,0,1,381.8359375,114.55625)"><path transform="matrix(0.0119,0,0,-0.0119,0,0)" d="M322 -11C334 -11 343 -9 372 -1C383 61 391 95 402 142L380 142L358 82C352 64 340 57 319 57C307 57 291 59 270 64L252 68C219 75 185 80 166 80C134 80 107 74 71 59L410 441L416 473L407 482L384 459C374 449 364 445 350 445C316 445 264 453 216 466L198 471C170 478 150 482 136 482C119 482 99 479 75 472L43 350L64 350L94 408C111 412 120 413 133 413C174 413 206 398 259 398C295 398 319 404 352 421L-1 21L8 -6C37 17 64 26 99 26C162 26 253 -11 322 -11Z" stroke="rgb(0,0,0)" stroke-opacity="1" stroke-width="8" fill="rgb(0,0,0)" fill-opacity="1"></path></g></g></g></g></g></g></g></g></g></g><g><g><g><g><g><g><g transform="matrix(1,0,0,1,240.29296875,84.36328125)"><path transform="matrix(0.017,0,0,-0.017,0,0)" d="M16 23L16 -3C203 -3 203 0 239 0C275 0 275 -3 468 -3L468 82C353 77 307 81 122 77L304 270C401 373 431 428 431 503C431 618 353 689 226 689C154 689 105 669 56 619L39 483L68 483L81 529C97 587 133 612 200 612C286 612 341 558 341 473C341 398 299 324 186 204ZM675 -11C731 -11 846 62 889 125C930 186 964 296 964 371C964 438 941 482 905 482C863 482 810 456 758 409C717 374 697 348 661 289L685 408C688 425 690 440 690 452C690 471 682 482 668 482C647 482 609 461 535 408L507 388L514 368L546 389C574 407 585 412 594 412C604 412 611 403 611 389C611 381 609 361 607 351L549 8C539 -52 520 -143 500 -233L492 -270L499 -276C520 -269 540 -264 572 -259L614 3C635 -4 657 -11 675 -11ZM642 165C664 293 771 424 854 424C880 424 892 402 892 356C892 275 852 156 799 80C779 51 747 36 706 36C675 36 650 43 624 59Z" stroke="rgb(0,0,0)" stroke-opacity="1" stroke-width="8" fill="rgb(0,0,0)" fill-opacity="1"></path></g></g><g><g><g><g><g transform="matrix(1,0,0,1,258.2421875,78.93125)"><path transform="matrix(0.0119,0,0,-0.0119,0,0)" d="M418 -3L418 27L366 30C311 33 301 44 301 96L301 700L60 598L67 548L217 614L217 96C217 44 206 33 152 30L96 27L96 -3C250 0 250 0 261 0C292 0 402 -3 418 -3Z" stroke="rgb(0,0,0)" stroke-opacity="1" stroke-width="8" fill="rgb(0,0,0)" fill-opacity="1"></path></g></g></g></g></g></g></g></g></g></g><g><g><g><g><g><g><g transform="matrix(1,0,0,1,241.62109375,174.2265625)"><path transform="matrix(0.017,0,0,-0.017,0,0)" d="M16 23L16 -3C203 -3 203 0 239 0C275 0 275 -3 468 -3L468 82C353 77 307 81 122 77L304 270C401 373 431 428 431 503C431 618 353 689 226 689C154 689 105 669 56 619L39 483L68 483L81 529C97 587 133 612 200 612C286 612 341 558 341 473C341 398 299 324 186 204ZM530 148C525 97 519 62 508 16C546 -2 580 -11 615 -11C664 -11 710 7 761 47C812 87 833 124 833 174C833 228 801 257 727 271L684 279C624 290 605 307 605 348C605 401 650 442 707 442C748 442 786 424 802 397L802 342L825 342C829 377 833 404 844 455C805 474 777 482 744 482C692 482 631 452 583 404C557 377 546 352 546 316C546 260 577 228 643 215L706 203C750 195 766 177 766 138C766 73 720 29 649 29C614 29 583 40 555 64L555 148Z" stroke="rgb(0,0,0)" stroke-opacity="1" stroke-width="8" fill="rgb(0,0,0)" fill-opacity="1"></path></g></g><g><g><g><g><g transform="matrix(1,0,0,1,257.6953125,168.79453125)"><path transform="matrix(0.0119,0,0,-0.0119,0,0)" d="M263 689C108 689 29 566 29 324C29 207 50 106 85 57C120 8 176 -20 238 -20C389 -20 465 110 465 366C465 585 400 689 263 689ZM245 654C342 654 381 556 381 316C381 103 343 15 251 15C154 15 113 116 113 360C113 571 150 654 245 654Z" stroke="rgb(0,0,0)" stroke-opacity="1" stroke-width="8" fill="rgb(0,0,0)" fill-opacity="1"></path></g></g></g></g></g></g></g></g></g></g><g><g><g><g><g><g><g transform="matrix(1,0,0,1,241.953125,214.2265625)"><path transform="matrix(0.017,0,0,-0.017,0,0)" d="M418 -3L418 27L366 30C311 33 301 44 301 96L301 700L60 598L67 548L217 614L217 96C217 44 206 33 152 30L96 27L96 -3C250 0 250 0 261 0C292 0 402 -3 418 -3ZM530 148C525 97 519 62 508 16C546 -2 580 -11 615 -11C664 -11 710 7 761 47C812 87 833 124 833 174C833 228 801 257 727 271L684 279C624 290 605 307 605 348C605 401 650 442 707 442C748 442 786 424 802 397L802 342L825 342C829 377 833 404 844 455C805 474 777 482 744 482C692 482 631 452 583 404C557 377 546 352 546 316C546 260 577 228 643 215L706 203C750 195 766 177 766 138C766 73 720 29 649 29C614 29 583 40 555 64L555 148Z" stroke="rgb(0,0,0)" stroke-opacity="1" stroke-width="8" fill="rgb(0,0,0)" fill-opacity="1"></path></g></g><g><g><g><g><g transform="matrix(1,0,0,1,258.02734375,208.79453125)"><path transform="matrix(0.0119,0,0,-0.0119,0,0)" d="M16 23L16 -3C203 -3 203 0 239 0C275 0 275 -3 468 -3L468 82C353 77 307 81 122 77L304 270C401 373 431 428 431 503C431 618 353 689 226 689C154 689 105 669 56 619L39 483L68 483L81 529C97 587 133 612 200 612C286 612 341 558 341 473C341 398 299 324 186 204Z" stroke="rgb(0,0,0)" stroke-opacity="1" stroke-width="8" fill="rgb(0,0,0)" fill-opacity="1"></path></g></g></g></g></g></g></g></g></g></g><g><g><g><g><g><g><g transform="matrix(1,0,0,1,523.4765625,110.90625)"><path transform="matrix(0.017,0,0,-0.017,0,0)" d="M16 23L16 -3C203 -3 203 0 239 0C275 0 275 -3 468 -3L468 82C353 77 307 81 122 77L304 270C401 373 431 428 431 503C431 618 353 689 226 689C154 689 105 669 56 619L39 483L68 483L81 529C97 587 133 612 200 612C286 612 341 558 341 473C341 398 299 324 186 204ZM675 -11C731 -11 846 62 889 125C930 186 964 296 964 371C964 438 941 482 905 482C863 482 810 456 758 409C717 374 697 348 661 289L685 408C688 425 690 440 690 452C690 471 682 482 668 482C647 482 609 461 535 408L507 388L514 368L546 389C574 407 585 412 594 412C604 412 611 403 611 389C611 381 609 361 607 351L549 8C539 -52 520 -143 500 -233L492 -270L499 -276C520 -269 540 -264 572 -259L614 3C635 -4 657 -11 675 -11ZM642 165C664 293 771 424 854 424C880 424 892 402 892 356C892 275 852 156 799 80C779 51 747 36 706 36C675 36 650 43 624 59Z" stroke="rgb(0,0,0)" stroke-opacity="1" stroke-width="8" fill="rgb(0,0,0)" fill-opacity="1"></path></g></g><g><g><g><g><g transform="matrix(1,0,0,1,540.95703125,115.16171875)"><path transform="matrix(0.0119,0,0,-0.0119,0,0)" d="M9 1C24 -7 40 -11 52 -11C85 -11 124 18 155 65L231 182L242 113C255 28 278 -11 314 -11C336 -11 368 6 400 35L449 79L440 98C404 68 379 53 363 53C348 53 335 63 325 83C316 102 305 139 300 168L282 269L317 318C364 383 391 406 422 406C438 406 450 398 455 383L469 387L484 472C472 479 463 482 454 482C414 482 374 446 312 354L275 299L269 347C257 446 230 482 171 482C145 482 123 474 114 461L56 378L73 368C103 402 123 416 142 416C175 416 197 375 214 277L225 215L185 153C142 86 108 54 80 54C65 54 54 58 52 63L41 91L21 88C21 53 13 27 9 1Z" stroke="rgb(0,0,0)" stroke-opacity="1" stroke-width="8" fill="rgb(0,0,0)" fill-opacity="1"></path></g></g></g></g></g></g></g></g></g></g><g><g><g><g><g><g><g transform="matrix(1,0,0,1,553.4765625,110.5546875)"><path transform="matrix(0.017,0,0,-0.017,0,0)" d="M16 23L16 -3C203 -3 203 0 239 0C275 0 275 -3 468 -3L468 82C353 77 307 81 122 77L304 270C401 373 431 428 431 503C431 618 353 689 226 689C154 689 105 669 56 619L39 483L68 483L81 529C97 587 133 612 200 612C286 612 341 558 341 473C341 398 299 324 186 204ZM675 -11C731 -11 846 62 889 125C930 186 964 296 964 371C964 438 941 482 905 482C863 482 810 456 758 409C717 374 697 348 661 289L685 408C688 425 690 440 690 452C690 471 682 482 668 482C647 482 609 461 535 408L507 388L514 368L546 389C574 407 585 412 594 412C604 412 611 403 611 389C611 381 609 361 607 351L549 8C539 -52 520 -143 500 -233L492 -270L499 -276C520 -269 540 -264 572 -259L614 3C635 -4 657 -11 675 -11ZM642 165C664 293 771 424 854 424C880 424 892 402 892 356C892 275 852 156 799 80C779 51 747 36 706 36C675 36 650 43 624 59Z" stroke="rgb(0,0,0)" stroke-opacity="1" stroke-width="8" fill="rgb(0,0,0)" fill-opacity="1"></path></g></g><g><g><g><g><g transform="matrix(1,0,0,1,570.95703125,114.81015625)"><path transform="matrix(0.0119,0,0,-0.0119,0,0)" d="M-7 -180C-8 -187 -8 -193 -8 -198C-8 -241 29 -276 74 -276C180 -276 290 -152 349 33L490 473L479 482C450 471 427 465 405 463L370 331C358 284 323 211 290 162C255 111 206 67 184 67C172 67 163 90 164 115L180 322C182 353 184 391 184 419C184 464 177 482 160 482C147 482 133 475 85 442L3 386L14 368L64 398C69 401 80 410 89 410C103 410 111 391 111 358C111 357 111 351 110 343L93 100L92 60C92 18 110 -11 135 -11C172 -11 256 74 331 187L282 16C231 -161 181 -234 111 -234C76 -234 49 -207 49 -172C49 -167 50 -159 51 -150L41 -146Z" stroke="rgb(0,0,0)" stroke-opacity="1" stroke-width="8" fill="rgb(0,0,0)" fill-opacity="1"></path></g></g></g></g></g></g></g></g></g></g><g><g><g><g><g><g><g transform="matrix(1,0,0,1,584.140625,110.5546875)"><path transform="matrix(0.017,0,0,-0.017,0,0)" d="M16 23L16 -3C203 -3 203 0 239 0C275 0 275 -3 468 -3L468 82C353 77 307 81 122 77L304 270C401 373 431 428 431 503C431 618 353 689 226 689C154 689 105 669 56 619L39 483L68 483L81 529C97 587 133 612 200 612C286 612 341 558 341 473C341 398 299 324 186 204ZM675 -11C731 -11 846 62 889 125C930 186 964 296 964 371C964 438 941 482 905 482C863 482 810 456 758 409C717 374 697 348 661 289L685 408C688 425 690 440 690 452C690 471 682 482 668 482C647 482 609 461 535 408L507 388L514 368L546 389C574 407 585 412 594 412C604 412 611 403 611 389C611 381 609 361 607 351L549 8C539 -52 520 -143 500 -233L492 -270L499 -276C520 -269 540 -264 572 -259L614 3C635 -4 657 -11 675 -11ZM642 165C664 293 771 424 854 424C880 424 892 402 892 356C892 275 852 156 799 80C779 51 747 36 706 36C675 36 650 43 624 59Z" stroke="rgb(0,0,0)" stroke-opacity="1" stroke-width="8" fill="rgb(0,0,0)" fill-opacity="1"></path></g></g><g><g><g><g><g transform="matrix(1,0,0,1,601.62109375,114.81015625)"><path transform="matrix(0.0119,0,0,-0.0119,0,0)" d="M322 -11C334 -11 343 -9 372 -1C383 61 391 95 402 142L380 142L358 82C352 64 340 57 319 57C307 57 291 59 270 64L252 68C219 75 185 80 166 80C134 80 107 74 71 59L410 441L416 473L407 482L384 459C374 449 364 445 350 445C316 445 264 453 216 466L198 471C170 478 150 482 136 482C119 482 99 479 75 472L43 350L64 350L94 408C111 412 120 413 133 413C174 413 206 398 259 398C295 398 319 404 352 421L-1 21L8 -6C37 17 64 26 99 26C162 26 253 -11 322 -11Z" stroke="rgb(0,0,0)" stroke-opacity="1" stroke-width="8" fill="rgb(0,0,0)" fill-opacity="1"></path></g></g></g></g></g></g></g></g></g></g><g><g><g><g><g><g><g transform="matrix(1,0,0,1,460.46875,83.81640625)"><path transform="matrix(0.017,0,0,-0.017,0,0)" d="M16 23L16 -3C203 -3 203 0 239 0C275 0 275 -3 468 -3L468 82C353 77 307 81 122 77L304 270C401 373 431 428 431 503C431 618 353 689 226 689C154 689 105 669 56 619L39 483L68 483L81 529C97 587 133 612 200 612C286 612 341 558 341 473C341 398 299 324 186 204ZM675 -11C731 -11 846 62 889 125C930 186 964 296 964 371C964 438 941 482 905 482C863 482 810 456 758 409C717 374 697 348 661 289L685 408C688 425 690 440 690 452C690 471 682 482 668 482C647 482 609 461 535 408L507 388L514 368L546 389C574 407 585 412 594 412C604 412 611 403 611 389C611 381 609 361 607 351L549 8C539 -52 520 -143 500 -233L492 -270L499 -276C520 -269 540 -264 572 -259L614 3C635 -4 657 -11 675 -11ZM642 165C664 293 771 424 854 424C880 424 892 402 892 356C892 275 852 156 799 80C779 51 747 36 706 36C675 36 650 43 624 59Z" stroke="rgb(0,0,0)" stroke-opacity="1" stroke-width="8" fill="rgb(0,0,0)" fill-opacity="1"></path></g></g><g><g><g><g><g transform="matrix(1,0,0,1,478.41796875,78.384375)"><path transform="matrix(0.0119,0,0,-0.0119,0,0)" d="M263 689C108 689 29 566 29 324C29 207 50 106 85 57C120 8 176 -20 238 -20C389 -20 465 110 465 366C465 585 400 689 263 689ZM245 654C342 654 381 556 381 316C381 103 343 15 251 15C154 15 113 116 113 360C113 571 150 654 245 654Z" stroke="rgb(0,0,0)" stroke-opacity="1" stroke-width="8" fill="rgb(0,0,0)" fill-opacity="1"></path></g></g></g></g></g></g></g></g></g></g><g><g><g><g><g><g><g transform="matrix(1,0,0,1,461.81640625,174.48046875)"><path transform="matrix(0.017,0,0,-0.017,0,0)" d="M16 23L16 -3C203 -3 203 0 239 0C275 0 275 -3 468 -3L468 82C353 77 307 81 122 77L304 270C401 373 431 428 431 503C431 618 353 689 226 689C154 689 105 669 56 619L39 483L68 483L81 529C97 587 133 612 200 612C286 612 341 558 341 473C341 398 299 324 186 204ZM530 148C525 97 519 62 508 16C546 -2 580 -11 615 -11C664 -11 710 7 761 47C812 87 833 124 833 174C833 228 801 257 727 271L684 279C624 290 605 307 605 348C605 401 650 442 707 442C748 442 786 424 802 397L802 342L825 342C829 377 833 404 844 455C805 474 777 482 744 482C692 482 631 452 583 404C557 377 546 352 546 316C546 260 577 228 643 215L706 203C750 195 766 177 766 138C766 73 720 29 649 29C614 29 583 40 555 64L555 148Z" stroke="rgb(0,0,0)" stroke-opacity="1" stroke-width="8" fill="rgb(0,0,0)" fill-opacity="1"></path></g></g><g><g><g><g><g transform="matrix(1,0,0,1,477.890625,169.0484375)"><path transform="matrix(0.0119,0,0,-0.0119,0,0)" d="M263 689C108 689 29 566 29 324C29 207 50 106 85 57C120 8 176 -20 238 -20C389 -20 465 110 465 366C465 585 400 689 263 689ZM245 654C342 654 381 556 381 316C381 103 343 15 251 15C154 15 113 116 113 360C113 571 150 654 245 654Z" stroke="rgb(0,0,0)" stroke-opacity="1" stroke-width="8" fill="rgb(0,0,0)" fill-opacity="1"></path></g></g></g></g></g></g></g></g></g></g><g><g><g><g><g><g><g transform="matrix(1,0,0,1,462.1484375,214.48046875)"><path transform="matrix(0.017,0,0,-0.017,0,0)" d="M418 -3L418 27L366 30C311 33 301 44 301 96L301 700L60 598L67 548L217 614L217 96C217 44 206 33 152 30L96 27L96 -3C250 0 250 0 261 0C292 0 402 -3 418 -3ZM530 148C525 97 519 62 508 16C546 -2 580 -11 615 -11C664 -11 710 7 761 47C812 87 833 124 833 174C833 228 801 257 727 271L684 279C624 290 605 307 605 348C605 401 650 442 707 442C748 442 786 424 802 397L802 342L825 342C829 377 833 404 844 455C805 474 777 482 744 482C692 482 631 452 583 404C557 377 546 352 546 316C546 260 577 228 643 215L706 203C750 195 766 177 766 138C766 73 720 29 649 29C614 29 583 40 555 64L555 148Z" stroke="rgb(0,0,0)" stroke-opacity="1" stroke-width="8" fill="rgb(0,0,0)" fill-opacity="1"></path></g></g><g><g><g><g><g transform="matrix(1,0,0,1,478.22265625,209.0484375)"><path transform="matrix(0.0119,0,0,-0.0119,0,0)" d="M16 23L16 -3C203 -3 203 0 239 0C275 0 275 -3 468 -3L468 82C353 77 307 81 122 77L304 270C401 373 431 428 431 503C431 618 353 689 226 689C154 689 105 669 56 619L39 483L68 483L81 529C97 587 133 612 200 612C286 612 341 558 341 473C341 398 299 324 186 204Z" stroke="rgb(0,0,0)" stroke-opacity="1" stroke-width="8" fill="rgb(0,0,0)" fill-opacity="1"></path></g></g></g></g></g></g></g></g></g></g><g><g><g><g><g><g><g transform="matrix(1,0,0,1,23.02734375,135.45703125)"><path transform="matrix(0.017,0,0,-0.017,0,0)" d="M31 148C26 97 20 62 9 16C47 -2 81 -11 116 -11C165 -11 211 7 262 47C313 87 334 124 334 174C334 228 302 257 228 271L185 279C125 290 106 307 106 348C106 401 151 442 208 442C249 442 287 424 303 397L303 342L326 342C330 377 334 404 345 455C306 474 278 482 245 482C193 482 132 452 84 404C58 377 47 352 47 316C47 260 78 228 144 215L207 203C251 195 267 177 267 138C267 73 221 29 150 29C115 29 84 40 56 64L56 148ZM564 -11C620 -11 735 62 778 125C819 186 853 296 853 371C853 438 830 482 794 482C752 482 699 456 647 409C606 374 586 348 550 289L574 408C577 425 579 440 579 452C579 471 571 482 557 482C536 482 498 461 424 408L396 388L403 368L435 389C463 407 474 412 483 412C493 412 500 403 500 389C500 381 498 361 496 351L438 8C428 -52 409 -143 389 -233L381 -270L388 -276C409 -269 429 -264 461 -259L503 3C524 -4 546 -11 564 -11ZM531 165C553 293 660 424 743 424C769 424 781 402 781 356C781 275 741 156 688 80C668 51 636 36 595 36C564 36 539 43 513 59Z" stroke="rgb(0,0,0)" stroke-opacity="1" stroke-width="8" fill="rgb(0,0,0)" fill-opacity="1"></path></g></g></g></g></g></g></g><g><g><g><g><g><g><g transform="matrix(1,0,0,1,240.234375,134.24609375)"><path transform="matrix(0.017,0,0,-0.017,0,0)" d="M31 148C26 97 20 62 9 16C47 -2 81 -11 116 -11C165 -11 211 7 262 47C313 87 334 124 334 174C334 228 302 257 228 271L185 279C125 290 106 307 106 348C106 401 151 442 208 442C249 442 287 424 303 397L303 342L326 342C330 377 334 404 345 455C306 474 278 482 245 482C193 482 132 452 84 404C58 377 47 352 47 316C47 260 78 228 144 215L207 203C251 195 267 177 267 138C267 73 221 29 150 29C115 29 84 40 56 64L56 148ZM564 -11C620 -11 735 62 778 125C819 186 853 296 853 371C853 438 830 482 794 482C752 482 699 456 647 409C606 374 586 348 550 289L574 408C577 425 579 440 579 452C579 471 571 482 557 482C536 482 498 461 424 408L396 388L403 368L435 389C463 407 474 412 483 412C493 412 500 403 500 389C500 381 498 361 496 351L438 8C428 -52 409 -143 389 -233L381 -270L388 -276C409 -269 429 -264 461 -259L503 3C524 -4 546 -11 564 -11ZM531 165C553 293 660 424 743 424C769 424 781 402 781 356C781 275 741 156 688 80C668 51 636 36 595 36C564 36 539 43 513 59Z" stroke="rgb(0,0,0)" stroke-opacity="1" stroke-width="8" fill="rgb(0,0,0)" fill-opacity="1"></path></g></g><g><g><g><g><g transform="matrix(1,0,0,1,256.30859375,128.8140625)"><path transform="matrix(0.0119,0,0,-0.0119,0,0)" d="M16 23L16 -3C203 -3 203 0 239 0C275 0 275 -3 468 -3L468 82C353 77 307 81 122 77L304 270C401 373 431 428 431 503C431 618 353 689 226 689C154 689 105 669 56 619L39 483L68 483L81 529C97 587 133 612 200 612C286 612 341 558 341 473C341 398 299 324 186 204Z" stroke="rgb(0,0,0)" stroke-opacity="1" stroke-width="8" fill="rgb(0,0,0)" fill-opacity="1"></path></g></g></g></g></g></g></g></g></g></g><g><g><g><g><g><g><g transform="matrix(1,0,0,1,463.02734375,135.2421875)"><path transform="matrix(0.017,0,0,-0.017,0,0)" d="M31 148C26 97 20 62 9 16C47 -2 81 -11 116 -11C165 -11 211 7 262 47C313 87 334 124 334 174C334 228 302 257 228 271L185 279C125 290 106 307 106 348C106 401 151 442 208 442C249 442 287 424 303 397L303 342L326 342C330 377 334 404 345 455C306 474 278 482 245 482C193 482 132 452 84 404C58 377 47 352 47 316C47 260 78 228 144 215L207 203C251 195 267 177 267 138C267 73 221 29 150 29C115 29 84 40 56 64L56 148ZM564 -11C620 -11 735 62 778 125C819 186 853 296 853 371C853 438 830 482 794 482C752 482 699 456 647 409C606 374 586 348 550 289L574 408C577 425 579 440 579 452C579 471 571 482 557 482C536 482 498 461 424 408L396 388L403 368L435 389C463 407 474 412 483 412C493 412 500 403 500 389C500 381 498 361 496 351L438 8C428 -52 409 -143 389 -233L381 -270L388 -276C409 -269 429 -264 461 -259L503 3C524 -4 546 -11 564 -11ZM531 165C553 293 660 424 743 424C769 424 781 402 781 356C781 275 741 156 688 80C668 51 636 36 595 36C564 36 539 43 513 59Z" stroke="rgb(0,0,0)" stroke-opacity="1" stroke-width="8" fill="rgb(0,0,0)" fill-opacity="1"></path></g></g><g><g><g><g><g transform="matrix(1,0,0,1,479.1015625,129.81015625)"><path transform="matrix(0.0119,0,0,-0.0119,0,0)" d="M462 224C462 345 355 366 308 374C388 436 418 482 418 541C418 630 344 689 233 689C165 689 120 670 72 622L43 498L74 498L92 554C103 588 166 622 218 622C283 622 336 569 336 506C336 431 277 368 206 368C198 368 187 369 174 370L159 371L147 318L154 312C192 329 211 334 238 334C321 334 369 281 369 190C369 88 308 21 215 21C169 21 128 36 98 64C74 86 61 109 42 163L15 153C36 92 44 56 50 6C103 -12 147 -20 184 -20C307 -20 462 87 462 224Z" stroke="rgb(0,0,0)" stroke-opacity="1" stroke-width="8" fill="rgb(0,0,0)" fill-opacity="1"></path></g></g></g></g></g></g></g></g></g></g></svg>
</svg>
