<svg xmlns="http://www.w3.org/2000/svg" xmlns:xlink="http://www.w3.org/1999/xlink" x="0" y="0" width="702.5" height="616.4453125" style="
        width:702.5px;
        height:616.4453125px;
        background: transparent;
        fill: none;
">
        
        
        <svg xmlns="http://www.w3.org/2000/svg" class="role-diagram-draw-area"><g class="shapes-region" style="stroke: black; fill: none;"><g class="composite-shape"><path class="real" d=" M104.05,38.7 L160.47,71.05 L160.67,136.09 L104.44,168.77 L48.02,136.42 L47.83,71.39 Z" style="stroke-width: 1; stroke: rgb(0, 0, 0); fill: none; fill-opacity: 1;"/></g><g class="composite-shape"><path class="real" d=" M216.7,38.37 L273.12,70.72 L273.31,135.75 L217.09,168.44 L160.67,136.09 L160.47,71.05 Z" style="stroke-width: 1; stroke: rgb(0, 0, 0); fill: none; fill-opacity: 1;"/></g><g class="composite-shape"><path class="real" d=" M329.35,38.03 L385.77,70.38 L385.96,135.42 L329.74,168.11 L273.31,135.75 L273.12,70.72 Z" style="stroke-width: 1; stroke: rgb(0, 0, 0); fill: none; fill-opacity: 1;"/></g><g class="composite-shape"><path class="real" d=" M442,37.7 L498.42,70.05 L498.61,135.09 L442.38,167.77 L385.96,135.42 L385.77,70.38 Z" style="stroke-width: 1; stroke: rgb(0, 0, 0); fill: none; fill-opacity: 1;"/></g><g class="composite-shape"><path class="real" d=" M554.64,37.36 L611.07,69.71 L611.26,134.75 L555.03,167.44 L498.61,135.09 L498.42,70.05 Z" style="stroke-width: 1; stroke: rgb(0, 0, 0); fill: none; fill-opacity: 1;"/></g><g class="composite-shape"><path class="real" d=" M160.67,136.09 L217.09,168.44 L217.28,233.48 L161.05,266.16 L104.63,233.81 L104.44,168.77 Z" style="stroke-width: 1; stroke: rgb(0, 0, 0); fill: none; fill-opacity: 1;"/></g><g class="composite-shape"><path class="real" d=" M273.31,135.75 L329.74,168.11 L329.93,233.14 L273.7,265.83 L217.28,233.48 L217.09,168.44 Z" style="stroke-width: 1; stroke: rgb(0, 0, 0); fill: none; fill-opacity: 1;"/></g><g class="composite-shape"><path class="real" d=" M385.96,135.42 L442.38,167.77 L442.58,232.81 L386.35,265.49 L329.93,233.14 L329.74,168.11 Z" style="stroke-width: 1; stroke: rgb(0, 0, 0); fill: none; fill-opacity: 1;"/></g><g class="composite-shape"><path class="real" d=" M498.61,135.09 L555.03,167.44 L555.22,232.47 L499,265.16 L442.58,232.81 L442.38,167.77 Z" style="stroke-width: 1; stroke: rgb(0, 0, 0); fill: none; fill-opacity: 1;"/></g><g class="composite-shape"><path class="real" d=" M555.22,232.47 L611.64,264.83 L611.84,329.86 L555.61,362.55 L499.19,330.2 L499,265.16 Z" style="stroke-width: 1; stroke: rgb(0, 0, 0); fill: none; fill-opacity: 1;"/></g><g class="composite-shape"><path class="real" d=" M442.58,232.81 L499,265.16 L499.19,330.2 L442.96,362.88 L386.54,330.53 L386.35,265.49 Z" style="stroke-width: 1; stroke: rgb(0, 0, 0); fill: none; fill-opacity: 1;"/></g><g class="composite-shape"><path class="real" d=" M329.93,233.14 L386.35,265.49 L386.54,330.53 L330.31,363.22 L273.89,330.87 L273.7,265.83 Z" style="stroke-width: 1; stroke: rgb(0, 0, 0); fill: none; fill-opacity: 1;"/></g><g class="composite-shape"><path class="real" d=" M104.63,233.81 L161.05,266.16 L161.25,331.2 L105.02,363.89 L48.6,331.53 L48.4,266.5 Z" style="stroke-width: 1; stroke: rgb(0, 0, 0); fill: none; fill-opacity: 1;"/></g><g class="composite-shape"><path class="real" d=" M217.28,233.48 L273.7,265.83 L273.89,330.87 L217.67,363.55 L161.25,331.2 L161.05,266.16 Z" style="stroke-width: 1; stroke: rgb(0, 0, 0); fill: none; fill-opacity: 1;"/></g><g class="composite-shape"><path class="real" d=" M161.25,331.2 L217.67,363.55 L217.86,428.59 L161.63,461.28 L105.21,428.92 L105.02,363.89 Z" style="stroke-width: 1; stroke: rgb(0, 0, 0); fill: none; fill-opacity: 1;"/></g><g class="composite-shape"><path class="real" d=" M273.89,330.87 L330.31,363.22 L330.51,428.26 L274.28,460.94 L217.86,428.59 L217.67,363.55 Z" style="stroke-width: 1; stroke: rgb(0, 0, 0); fill: none; fill-opacity: 1;"/></g><g class="composite-shape"><path class="real" d=" M386.54,330.53 L442.96,362.88 L443.15,427.92 L386.93,460.61 L330.51,428.26 L330.31,363.22 Z" style="stroke-width: 1; stroke: rgb(0, 0, 0); fill: none; fill-opacity: 1;"/></g><g class="composite-shape"><path class="real" d=" M499.19,330.2 L555.61,362.55 L555.8,427.59 L499.58,460.27 L443.15,427.92 L442.96,362.88 Z" style="stroke-width: 1; stroke: rgb(0, 0, 0); fill: none; fill-opacity: 1;"/></g><g class="composite-shape"><path class="real" d=" M105.21,428.92 L161.63,461.28 L161.82,526.31 L105.6,559 L49.18,526.65 L48.98,461.61 Z" style="stroke-width: 1; stroke: rgb(0, 0, 0); fill: none; fill-opacity: 1;"/></g><g class="composite-shape"><path class="real" d=" M555.8,427.59 L612.22,459.94 L612.42,524.98 L556.19,557.66 L499.77,525.31 L499.58,460.27 Z" style="stroke-width: 1; stroke: rgb(0, 0, 0); fill: none; fill-opacity: 1;"/></g><g class="composite-shape"><path class="real" d=" M443.15,427.92 L499.58,460.27 L499.77,525.31 L443.54,558 L387.12,525.64 L386.93,460.61 Z" style="stroke-width: 1; stroke: rgb(0, 0, 0); fill: none; fill-opacity: 1;"/></g><g class="composite-shape"><path class="real" d=" M330.51,428.26 L386.93,460.61 L387.12,525.64 L330.89,558.33 L274.47,525.98 L274.28,460.94 Z" style="stroke-width: 1; stroke: rgb(0, 0, 0); fill: none; fill-opacity: 1;"/></g><g class="composite-shape"><path class="real" d=" M217.86,428.59 L274.28,460.94 L274.47,525.98 L218.25,558.66 L161.82,526.31 L161.63,461.28 Z" style="stroke-width: 1; stroke: rgb(0, 0, 0); fill: none; fill-opacity: 1;"/></g><g class="arrow-line"><path class="connection real" stroke-dasharray="" d="  M20.01,591.25 L20.01,502.25" style="stroke: rgb(0, 0, 0); stroke-width: 2; fill: none; fill-opacity: 1;"/><g stroke="none" fill="#000" transform="matrix(3.061616997868383e-16,1,-1,3.061616997868383e-16,20.0078125,498.25390625)" style="stroke: none; fill: rgb(0, 0, 0); stroke-width: 2;"><path d=" M23.22,-11.15 L0,0 L23.22,11.15 Z"/></g></g><g class="arrow-line"><path class="connection real" stroke-dasharray="" d="  M20.01,591.25 L119.01,591.25" style="stroke: rgb(0, 0, 0); stroke-width: 2; fill: none; fill-opacity: 1;"/><g stroke="none" fill="#000" transform="matrix(-1,1.2246467991473532e-16,-1.2246467991473532e-16,-1,123.00781249999999,591.25390625)" style="stroke: none; fill: rgb(0, 0, 0); stroke-width: 2;"><path d=" M23.22,-11.15 L0,0 L23.22,11.15 Z"/></g></g><g class="composite-shape"><path class="real" d=" M91.18,38.7 C91.18,31.59 96.94,25.83 104.05,25.83 C111.16,25.83 116.93,31.59 116.93,38.7 C116.93,45.81 111.16,51.57 104.05,51.57 C96.94,51.57 91.18,45.81 91.18,38.7 Z" style="stroke-width: 1; stroke: rgb(0, 0, 0); fill: rgb(255, 255, 255); fill-opacity: 1;"/></g><g class="composite-shape"><path class="real" d=" M34.95,71.39 C34.95,64.28 40.72,58.51 47.83,58.51 C54.94,58.51 60.7,64.28 60.7,71.39 C60.7,78.5 54.94,84.26 47.83,84.26 C40.72,84.26 34.95,78.5 34.95,71.39 Z" style="stroke-width: 1; stroke: rgb(0, 0, 0); fill: rgb(0, 0, 0); fill-opacity: 1;"/></g><g class="composite-shape"><path class="real" d=" M147.6,71.05 C147.6,63.94 153.36,58.18 160.47,58.18 C167.58,58.18 173.35,63.94 173.35,71.05 C173.35,78.16 167.58,83.92 160.47,83.92 C153.36,83.92 147.6,78.16 147.6,71.05 Z" style="stroke-width: 1; stroke: rgb(0, 0, 0); fill: rgb(0, 0, 0); fill-opacity: 1;"/></g><g class="composite-shape"><path class="real" d=" M203.83,38.37 C203.83,31.26 209.59,25.49 216.7,25.49 C223.81,25.49 229.57,31.26 229.57,38.37 C229.57,45.48 223.81,51.24 216.7,51.24 C209.59,51.24 203.83,45.48 203.83,38.37 Z" style="stroke-width: 1; stroke: rgb(0, 0, 0); fill: rgb(255, 255, 255); fill-opacity: 1;"/></g><g class="composite-shape"><path class="real" d=" M260.25,70.72 C260.25,63.61 266.01,57.84 273.12,57.84 C280.23,57.84 285.99,63.61 285.99,70.72 C285.99,77.83 280.23,83.59 273.12,83.59 C266.01,83.59 260.25,77.83 260.25,70.72 Z" style="stroke-width: 1; stroke: rgb(0, 0, 0); fill: rgb(0, 0, 0); fill-opacity: 1;"/></g><g class="composite-shape"><path class="real" d=" M316.48,38.03 C316.48,30.92 322.24,25.16 329.35,25.16 C336.46,25.16 342.22,30.92 342.22,38.03 C342.22,45.14 336.46,50.9 329.35,50.9 C322.24,50.9 316.48,45.14 316.48,38.03 Z" style="stroke-width: 1; stroke: rgb(0, 0, 0); fill: rgb(255, 255, 255); fill-opacity: 1;"/></g><g class="composite-shape"><path class="real" d=" M372.9,70.38 C372.9,63.27 378.66,57.51 385.77,57.51 C392.88,57.51 398.64,63.27 398.64,70.38 C398.64,77.49 392.88,83.26 385.77,83.26 C378.66,83.26 372.9,77.49 372.9,70.38 Z" style="stroke-width: 1; stroke: rgb(0, 0, 0); fill: rgb(0, 0, 0); fill-opacity: 1;"/></g><g class="composite-shape"><path class="real" d=" M429.12,37.7 C429.12,30.59 434.89,24.82 442,24.82 C449.11,24.82 454.87,30.59 454.87,37.7 C454.87,44.81 449.11,50.57 442,50.57 C434.89,50.57 429.12,44.81 429.12,37.7 Z" style="stroke-width: 1; stroke: rgb(0, 0, 0); fill: rgb(255, 255, 255); fill-opacity: 1;"/></g><g class="composite-shape"><path class="real" d=" M485.54,70.05 C485.54,62.94 491.31,57.18 498.42,57.18 C505.53,57.18 511.29,62.94 511.29,70.05 C511.29,77.16 505.53,82.92 498.42,82.92 C491.31,82.92 485.54,77.16 485.54,70.05 Z" style="stroke-width: 1; stroke: rgb(0, 0, 0); fill: rgb(0, 0, 0); fill-opacity: 1;"/></g><g class="composite-shape"><path class="real" d=" M541.77,37.36 C541.77,30.25 547.54,24.49 554.64,24.49 C561.75,24.49 567.52,30.25 567.52,37.36 C567.52,44.47 561.75,50.24 554.64,50.24 C547.54,50.24 541.77,44.47 541.77,37.36 Z" style="stroke-width: 1; stroke: rgb(0, 0, 0); fill: rgb(255, 255, 255); fill-opacity: 1;"/></g><g class="composite-shape"><path class="real" d=" M598.19,69.71 C598.19,62.61 603.96,56.84 611.07,56.84 C618.17,56.84 623.94,62.61 623.94,69.71 C623.94,76.82 618.17,82.59 611.07,82.59 C603.96,82.59 598.19,76.82 598.19,69.71 Z" style="stroke-width: 1; stroke: rgb(0, 0, 0); fill: rgb(0, 0, 0); fill-opacity: 1;"/></g><g class="composite-shape"><path class="real" d=" M598.39,134.75 C598.39,127.64 604.15,121.88 611.26,121.88 C618.37,121.88 624.13,127.64 624.13,134.75 C624.13,141.86 618.37,147.62 611.26,147.62 C604.15,147.62 598.39,141.86 598.39,134.75 Z" style="stroke-width: 1; stroke: rgb(0, 0, 0); fill: rgb(255, 255, 255); fill-opacity: 1;"/></g><g class="composite-shape"><path class="real" d=" M542.16,167.44 C542.16,160.33 547.92,154.56 555.03,154.56 C562.14,154.56 567.9,160.33 567.9,167.44 C567.9,174.55 562.14,180.31 555.03,180.31 C547.92,180.31 542.16,174.55 542.16,167.44 Z" style="stroke-width: 1; stroke: rgb(0, 0, 0); fill: rgb(0, 0, 0); fill-opacity: 1;"/></g><g class="composite-shape"><path class="real" d=" M485.74,135.09 C485.74,127.98 491.5,122.21 498.61,122.21 C505.72,122.21 511.48,127.98 511.48,135.09 C511.48,142.2 505.72,147.96 498.61,147.96 C491.5,147.96 485.74,142.2 485.74,135.09 Z" style="stroke-width: 1; stroke: rgb(0, 0, 0); fill: rgb(255, 255, 255); fill-opacity: 1;"/></g><g class="composite-shape"><path class="real" d=" M429.51,167.77 C429.51,160.66 435.27,154.9 442.38,154.9 C449.49,154.9 455.26,160.66 455.26,167.77 C455.26,174.88 449.49,180.64 442.38,180.64 C435.27,180.64 429.51,174.88 429.51,167.77 Z" style="stroke-width: 1; stroke: rgb(0, 0, 0); fill: rgb(0, 0, 0); fill-opacity: 1;"/></g><g class="composite-shape"><path class="real" d=" M373.09,135.42 C373.09,128.31 378.85,122.55 385.96,122.55 C393.07,122.55 398.84,128.31 398.84,135.42 C398.84,142.53 393.07,148.29 385.96,148.29 C378.85,148.29 373.09,142.53 373.09,135.42 Z" style="stroke-width: 1; stroke: rgb(0, 0, 0); fill: rgb(255, 255, 255); fill-opacity: 1;"/></g><g class="composite-shape"><path class="real" d=" M316.86,168.11 C316.86,161 322.63,155.23 329.74,155.23 C336.84,155.23 342.61,161 342.61,168.11 C342.61,175.22 336.84,180.98 329.74,180.98 C322.63,180.98 316.86,175.22 316.86,168.11 Z" style="stroke-width: 1; stroke: rgb(0, 0, 0); fill: rgb(0, 0, 0); fill-opacity: 1;"/></g><g class="composite-shape"><path class="real" d=" M91.57,168.77 C91.57,161.67 97.33,155.9 104.44,155.9 C111.55,155.9 117.31,161.67 117.31,168.77 C117.31,175.88 111.55,181.65 104.44,181.65 C97.33,181.65 91.57,175.88 91.57,168.77 Z" style="stroke-width: 1; stroke: rgb(0, 0, 0); fill: rgb(0, 0, 0); fill-opacity: 1;"/></g><g class="composite-shape"><path class="real" d=" M147.79,136.09 C147.79,128.98 153.56,123.22 160.67,123.22 C167.78,123.22 173.54,128.98 173.54,136.09 C173.54,143.2 167.78,148.96 160.67,148.96 C153.56,148.96 147.79,143.2 147.79,136.09 Z" style="stroke-width: 1; stroke: rgb(0, 0, 0); fill: rgb(255, 255, 255); fill-opacity: 1;"/></g><g class="composite-shape"><path class="real" d=" M204.21,168.44 C204.21,161.33 209.98,155.57 217.09,155.57 C224.2,155.57 229.96,161.33 229.96,168.44 C229.96,175.55 224.2,181.31 217.09,181.31 C209.98,181.31 204.21,175.55 204.21,168.44 Z" style="stroke-width: 1; stroke: rgb(0, 0, 0); fill: rgb(0, 0, 0); fill-opacity: 1;"/></g><g class="composite-shape"><path class="real" d=" M35.15,136.42 C35.15,129.31 40.91,123.55 48.02,123.55 C55.13,123.55 60.89,129.31 60.89,136.42 C60.89,143.53 55.13,149.3 48.02,149.3 C40.91,149.3 35.15,143.53 35.15,136.42 Z" style="stroke-width: 1; stroke: rgb(0, 0, 0); fill: rgb(255, 255, 255); fill-opacity: 1;"/></g><g class="composite-shape"><path class="real" d=" M260.44,135.75 C260.44,128.65 266.21,122.88 273.31,122.88 C280.42,122.88 286.19,128.65 286.19,135.75 C286.19,142.86 280.42,148.63 273.31,148.63 C266.21,148.63 260.44,142.86 260.44,135.75 Z" style="stroke-width: 1; stroke: rgb(0, 0, 0); fill: rgb(255, 255, 255); fill-opacity: 1;"/></g><g class="composite-shape"><path class="real" d=" M91.76,233.81 C91.76,226.7 97.52,220.94 104.63,220.94 C111.74,220.94 117.51,226.7 117.51,233.81 C117.51,240.92 111.74,246.68 104.63,246.68 C97.52,246.68 91.76,240.92 91.76,233.81 Z" style="stroke-width: 1; stroke: rgb(0, 0, 0); fill: rgb(255, 255, 255); fill-opacity: 1;"/></g><g class="composite-shape"><path class="real" d=" M148.18,266.16 C148.18,259.05 153.94,253.29 161.05,253.29 C168.16,253.29 173.93,259.05 173.93,266.16 C173.93,273.27 168.16,279.04 161.05,279.04 C153.94,279.04 148.18,273.27 148.18,266.16 Z" style="stroke-width: 1; stroke: rgb(0, 0, 0); fill: rgb(0, 0, 0); fill-opacity: 1;"/></g><g class="composite-shape"><path class="real" d=" M204.41,233.48 C204.41,226.37 210.17,220.6 217.28,220.6 C224.39,220.6 230.15,226.37 230.15,233.48 C230.15,240.59 224.39,246.35 217.28,246.35 C210.17,246.35 204.41,240.59 204.41,233.48 Z" style="stroke-width: 1; stroke: rgb(0, 0, 0); fill: rgb(255, 255, 255); fill-opacity: 1;"/></g><g class="composite-shape"><path class="real" d=" M260.83,265.83 C260.83,258.72 266.59,252.96 273.7,252.96 C280.81,252.96 286.57,258.72 286.57,265.83 C286.57,272.94 280.81,278.7 273.7,278.7 C266.59,278.7 260.83,272.94 260.83,265.83 Z" style="stroke-width: 1; stroke: rgb(0, 0, 0); fill: rgb(0, 0, 0); fill-opacity: 1;"/></g><g class="composite-shape"><path class="real" d=" M317.06,233.14 C317.06,226.03 322.82,220.27 329.93,220.27 C337.04,220.27 342.8,226.03 342.8,233.14 C342.8,240.25 337.04,246.02 329.93,246.02 C322.82,246.02 317.06,240.25 317.06,233.14 Z" style="stroke-width: 1; stroke: rgb(0, 0, 0); fill: rgb(255, 255, 255); fill-opacity: 1;"/></g><g class="composite-shape"><path class="real" d=" M373.48,265.49 C373.48,258.39 379.24,252.62 386.35,252.62 C393.46,252.62 399.22,258.39 399.22,265.49 C399.22,272.6 393.46,278.37 386.35,278.37 C379.24,278.37 373.48,272.6 373.48,265.49 Z" style="stroke-width: 1; stroke: rgb(0, 0, 0); fill: rgb(0, 0, 0); fill-opacity: 1;"/></g><g class="composite-shape"><path class="real" d=" M429.7,232.81 C429.7,225.7 435.47,219.94 442.58,219.94 C449.69,219.94 455.45,225.7 455.45,232.81 C455.45,239.92 449.69,245.68 442.58,245.68 C435.47,245.68 429.7,239.92 429.7,232.81 Z" style="stroke-width: 1; stroke: rgb(0, 0, 0); fill: rgb(255, 255, 255); fill-opacity: 1;"/></g><g class="composite-shape"><path class="real" d=" M486.12,265.16 C486.12,258.05 491.89,252.29 499,252.29 C506.11,252.29 511.87,258.05 511.87,265.16 C511.87,272.27 506.11,278.03 499,278.03 C491.89,278.03 486.12,272.27 486.12,265.16 Z" style="stroke-width: 1; stroke: rgb(0, 0, 0); fill: rgb(0, 0, 0); fill-opacity: 1;"/></g><g class="composite-shape"><path class="real" d=" M542.35,232.47 C542.35,225.37 548.11,219.6 555.22,219.6 C562.33,219.6 568.1,225.37 568.1,232.47 C568.1,239.58 562.33,245.35 555.22,245.35 C548.11,245.35 542.35,239.58 542.35,232.47 Z" style="stroke-width: 1; stroke: rgb(0, 0, 0); fill: rgb(0, 0, 0); fill-opacity: 1;"/></g><g class="composite-shape"><path class="real" d=" M598.77,264.83 C598.77,257.72 604.53,251.95 611.64,251.95 C618.75,251.95 624.52,257.72 624.52,264.83 C624.52,271.94 618.75,277.7 611.64,277.7 C604.53,277.7 598.77,271.94 598.77,264.83 Z" style="stroke-width: 1; stroke: rgb(0, 0, 0); stroke-opacity: 1; fill: rgb(255, 255, 255); fill-opacity: 1;"/></g><g class="composite-shape"><path class="real" d=" M35.53,266.5 C35.53,259.39 41.3,253.62 48.4,253.62 C55.51,253.62 61.28,259.39 61.28,266.5 C61.28,273.61 55.51,279.37 48.4,279.37 C41.3,279.37 35.53,273.61 35.53,266.5 Z" style="stroke-width: 1; stroke: rgb(0, 0, 0); fill: rgb(0, 0, 0); fill-opacity: 1;"/></g><g class="composite-shape"><path class="real" d=" M598.96,329.86 C598.96,322.75 604.73,316.99 611.84,316.99 C618.95,316.99 624.71,322.75 624.71,329.86 C624.71,336.97 618.95,342.74 611.84,342.74 C604.73,342.74 598.96,336.97 598.96,329.86 Z" style="stroke-width: 1; stroke: rgb(0, 0, 0); fill: rgb(255, 255, 255); fill-opacity: 1;"/></g><g class="composite-shape"><path class="real" d=" M542.74,362.55 C542.74,355.44 548.5,349.68 555.61,349.68 C562.72,349.68 568.48,355.44 568.48,362.55 C568.48,369.66 562.72,375.42 555.61,375.42 C548.5,375.42 542.74,369.66 542.74,362.55 Z" style="stroke-width: 1; stroke: rgb(0, 0, 0); fill: rgb(0, 0, 0); fill-opacity: 1;"/></g><g class="composite-shape"><path class="real" d=" M486.32,330.2 C486.32,323.09 492.08,317.32 499.19,317.32 C506.3,317.32 512.06,323.09 512.06,330.2 C512.06,337.31 506.3,343.07 499.19,343.07 C492.08,343.07 486.32,337.31 486.32,330.2 Z" style="stroke-width: 1; stroke: rgb(0, 0, 0); fill: rgb(255, 255, 255); fill-opacity: 1;"/></g><g class="composite-shape"><path class="real" d=" M430.09,362.88 C430.09,355.77 435.85,350.01 442.96,350.01 C450.07,350.01 455.83,355.77 455.83,362.88 C455.83,369.99 450.07,375.76 442.96,375.76 C435.85,375.76 430.09,369.99 430.09,362.88 Z" style="stroke-width: 1; stroke: rgb(0, 0, 0); fill: rgb(0, 0, 0); fill-opacity: 1;"/></g><g class="composite-shape"><path class="real" d=" M373.67,330.53 C373.67,323.42 379.43,317.66 386.54,317.66 C393.65,317.66 399.41,323.42 399.41,330.53 C399.41,337.64 393.65,343.41 386.54,343.41 C379.43,343.41 373.67,337.64 373.67,330.53 Z" style="stroke-width: 1; stroke: rgb(0, 0, 0); fill: rgb(255, 255, 255); fill-opacity: 1;"/></g><g class="composite-shape"><path class="real" d=" M317.44,363.22 C317.44,356.11 323.2,350.34 330.31,350.34 C337.42,350.34 343.19,356.11 343.19,363.22 C343.19,370.33 337.42,376.09 330.31,376.09 C323.2,376.09 317.44,370.33 317.44,363.22 Z" style="stroke-width: 1; stroke: rgb(0, 0, 0); fill: rgb(0, 0, 0); fill-opacity: 1;"/></g><g class="composite-shape"><path class="real" d=" M261.02,330.87 C261.02,323.76 266.78,317.99 273.89,317.99 C281,317.99 286.77,323.76 286.77,330.87 C286.77,337.98 281,343.74 273.89,343.74 C266.78,343.74 261.02,337.98 261.02,330.87 Z" style="stroke-width: 1; stroke: rgb(0, 0, 0); fill: rgb(255, 255, 255); fill-opacity: 1;"/></g><g class="composite-shape"><path class="real" d=" M204.79,363.55 C204.79,356.44 210.56,350.68 217.67,350.68 C224.78,350.68 230.54,356.44 230.54,363.55 C230.54,370.66 224.78,376.43 217.67,376.43 C210.56,376.43 204.79,370.66 204.79,363.55 Z" style="stroke-width: 1; stroke: rgb(0, 0, 0); fill: rgb(0, 0, 0); fill-opacity: 1;"/></g><g class="composite-shape"><path class="real" d=" M148.37,331.2 C148.37,324.09 154.14,318.33 161.25,318.33 C168.36,318.33 174.12,324.09 174.12,331.2 C174.12,338.31 168.36,344.07 161.25,344.07 C154.14,344.07 148.37,338.31 148.37,331.2 Z" style="stroke-width: 1; stroke: rgb(0, 0, 0); fill: rgb(255, 255, 255); fill-opacity: 1;"/></g><g class="composite-shape"><path class="real" d=" M92.15,363.89 C92.15,356.78 97.91,351.01 105.02,351.01 C112.13,351.01 117.89,356.78 117.89,363.89 C117.89,371 112.13,376.76 105.02,376.76 C97.91,376.76 92.15,371 92.15,363.89 Z" style="stroke-width: 1; stroke: rgb(0, 0, 0); stroke-opacity: 1; fill: rgb(0, 0, 0); fill-opacity: 1;"/></g><g class="composite-shape"><path class="real" d=" M35.72,331.53 C35.72,324.43 41.49,318.66 48.6,318.66 C55.71,318.66 61.47,324.43 61.47,331.53 C61.47,338.64 55.71,344.41 48.6,344.41 C41.49,344.41 35.72,338.64 35.72,331.53 Z" style="stroke-width: 1; stroke: rgb(0, 0, 0); fill: rgb(255, 255, 255); fill-opacity: 1;"/></g><g class="composite-shape"><path class="real" d=" M542.93,427.59 C542.93,420.48 548.69,414.71 555.8,414.71 C562.91,414.71 568.68,420.48 568.68,427.59 C568.68,434.7 562.91,440.46 555.8,440.46 C548.69,440.46 542.93,434.7 542.93,427.59 Z" style="stroke-width: 1; stroke: rgb(0, 0, 0); fill: rgb(255, 255, 255); fill-opacity: 1;"/></g><g class="composite-shape"><path class="real" d=" M486.7,460.27 C486.7,453.16 492.47,447.4 499.58,447.4 C506.68,447.4 512.45,453.16 512.45,460.27 C512.45,467.38 506.68,473.15 499.58,473.15 C492.47,473.15 486.7,467.38 486.7,460.27 Z" style="stroke-width: 1; stroke: rgb(0, 0, 0); fill: rgb(0, 0, 0); fill-opacity: 1;"/></g><g class="composite-shape"><path class="real" d=" M430.28,427.92 C430.28,420.81 436.05,415.05 443.15,415.05 C450.26,415.05 456.03,420.81 456.03,427.92 C456.03,435.03 450.26,440.79 443.15,440.79 C436.05,440.79 430.28,435.03 430.28,427.92 Z" style="stroke-width: 1; stroke: rgb(0, 0, 0); fill: rgb(255, 255, 255); fill-opacity: 1;"/></g><g class="composite-shape"><path class="real" d=" M374.05,460.61 C374.05,453.5 379.82,447.73 386.93,447.73 C394.04,447.73 399.8,453.5 399.8,460.61 C399.8,467.72 394.04,473.48 386.93,473.48 C379.82,473.48 374.05,467.72 374.05,460.61 Z" style="stroke-width: 1; stroke: rgb(0, 0, 0); fill: rgb(0, 0, 0); fill-opacity: 1;"/></g><g class="composite-shape"><path class="real" d=" M317.63,428.26 C317.63,421.15 323.4,415.38 330.51,415.38 C337.62,415.38 343.38,421.15 343.38,428.26 C343.38,435.36 337.62,441.13 330.51,441.13 C323.4,441.13 317.63,435.36 317.63,428.26 Z" style="stroke-width: 1; stroke: rgb(0, 0, 0); fill: rgb(255, 255, 255); fill-opacity: 1;"/></g><g class="composite-shape"><path class="real" d=" M261.41,460.94 C261.41,453.83 267.17,448.07 274.28,448.07 C281.39,448.07 287.15,453.83 287.15,460.94 C287.15,468.05 281.39,473.81 274.28,473.81 C267.17,473.81 261.41,468.05 261.41,460.94 Z" style="stroke-width: 1; stroke: rgb(0, 0, 0); fill: rgb(0, 0, 0); fill-opacity: 1;"/></g><g class="composite-shape"><path class="real" d=" M204.99,428.59 C204.99,421.48 210.75,415.72 217.86,415.72 C224.97,415.72 230.73,421.48 230.73,428.59 C230.73,435.7 224.97,441.46 217.86,441.46 C210.75,441.46 204.99,435.7 204.99,428.59 Z" style="stroke-width: 1; stroke: rgb(0, 0, 0); fill: rgb(255, 255, 255); fill-opacity: 1;"/></g><g class="composite-shape"><path class="real" d=" M148.76,461.28 C148.76,454.17 154.52,448.4 161.63,448.4 C168.74,448.4 174.5,454.17 174.5,461.28 C174.5,468.38 168.74,474.15 161.63,474.15 C154.52,474.15 148.76,468.38 148.76,461.28 Z" style="stroke-width: 1; stroke: rgb(0, 0, 0); fill: rgb(0, 0, 0); fill-opacity: 1;"/></g><g class="composite-shape"><path class="real" d=" M92.34,428.92 C92.34,421.81 98.1,416.05 105.21,416.05 C112.32,416.05 118.08,421.81 118.08,428.92 C118.08,436.03 112.32,441.8 105.21,441.8 C98.1,441.8 92.34,436.03 92.34,428.92 Z" style="stroke-width: 1; stroke: rgb(0, 0, 0); fill: rgb(255, 255, 255); fill-opacity: 1;"/></g><g class="composite-shape"><path class="real" d=" M36.11,461.61 C36.11,454.5 41.87,448.74 48.98,448.74 C56.09,448.74 61.86,454.5 61.86,461.61 C61.86,468.72 56.09,474.48 48.98,474.48 C41.87,474.48 36.11,468.72 36.11,461.61 Z" style="stroke-width: 1; stroke: rgb(0, 0, 0); fill: rgb(0, 0, 0); fill-opacity: 1;"/></g><g class="composite-shape"><path class="real" d=" M36.3,526.65 C36.3,519.54 42.07,513.77 49.18,513.77 C56.29,513.77 62.05,519.54 62.05,526.65 C62.05,533.76 56.29,539.52 49.18,539.52 C42.07,539.52 36.3,533.76 36.3,526.65 Z" style="stroke-width: 1; stroke: rgb(0, 0, 0); fill: rgb(255, 255, 255); fill-opacity: 1;"/></g><g class="composite-shape"><path class="real" d=" M92.72,559 C92.72,551.89 98.49,546.13 105.6,546.13 C112.71,546.13 118.47,551.89 118.47,559 C118.47,566.11 112.71,571.87 105.6,571.87 C98.49,571.87 92.72,566.11 92.72,559 Z" style="stroke-width: 1; stroke: rgb(0, 0, 0); fill: rgb(0, 0, 0); fill-opacity: 1;"/></g><g class="composite-shape"><path class="real" d=" M148.95,526.31 C148.95,519.2 154.71,513.44 161.82,513.44 C168.93,513.44 174.7,519.2 174.7,526.31 C174.7,533.42 168.93,539.19 161.82,539.19 C154.71,539.19 148.95,533.42 148.95,526.31 Z" style="stroke-width: 1; stroke: rgb(0, 0, 0); fill: rgb(255, 255, 255); fill-opacity: 1;"/></g><g class="composite-shape"><path class="real" d=" M205.37,558.66 C205.37,551.55 211.14,545.79 218.25,545.79 C225.35,545.79 231.12,551.55 231.12,558.66 C231.12,565.77 225.35,571.54 218.25,571.54 C211.14,571.54 205.37,565.77 205.37,558.66 Z" style="stroke-width: 1; stroke: rgb(0, 0, 0); fill: rgb(0, 0, 0); fill-opacity: 1;"/></g><g class="composite-shape"><path class="real" d=" M261.6,525.98 C261.6,518.87 267.36,513.11 274.47,513.11 C281.58,513.11 287.35,518.87 287.35,525.98 C287.35,533.09 281.58,538.85 274.47,538.85 C267.36,538.85 261.6,533.09 261.6,525.98 Z" style="stroke-width: 1; stroke: rgb(0, 0, 0); fill: rgb(255, 255, 255); fill-opacity: 1;"/></g><g class="composite-shape"><path class="real" d=" M318.02,558.33 C318.02,551.22 323.78,545.46 330.89,545.46 C338,545.46 343.77,551.22 343.77,558.33 C343.77,565.44 338,571.2 330.89,571.2 C323.78,571.2 318.02,565.44 318.02,558.33 Z" style="stroke-width: 1; stroke: rgb(0, 0, 0); fill: rgb(0, 0, 0); fill-opacity: 1;"/></g><g class="composite-shape"><path class="real" d=" M374.25,525.64 C374.25,518.53 380.01,512.77 387.12,512.77 C394.23,512.77 399.99,518.53 399.99,525.64 C399.99,532.75 394.23,538.52 387.12,538.52 C380.01,538.52 374.25,532.75 374.25,525.64 Z" style="stroke-width: 1; stroke: rgb(0, 0, 0); fill: rgb(255, 255, 255); fill-opacity: 1;"/></g><g class="composite-shape"><path class="real" d=" M430.67,558 C430.67,550.89 436.43,545.12 443.54,545.12 C450.65,545.12 456.41,550.89 456.41,558 C456.41,565.11 450.65,570.87 443.54,570.87 C436.43,570.87 430.67,565.11 430.67,558 Z" style="stroke-width: 1; stroke: rgb(0, 0, 0); fill: rgb(0, 0, 0); fill-opacity: 1;"/></g><g class="composite-shape"><path class="real" d=" M486.9,525.31 C486.9,518.2 492.66,512.44 499.77,512.44 C506.88,512.44 512.64,518.2 512.64,525.31 C512.64,532.42 506.88,538.18 499.77,538.18 C492.66,538.18 486.9,532.42 486.9,525.31 Z" style="stroke-width: 1; stroke: rgb(0, 0, 0); fill: rgb(255, 255, 255); fill-opacity: 1;"/></g><g class="composite-shape"><path class="real" d=" M543.32,557.66 C543.32,550.55 549.08,544.79 556.19,544.79 C563.3,544.79 569.06,550.55 569.06,557.66 C569.06,564.77 563.3,570.53 556.19,570.53 C549.08,570.53 543.32,564.77 543.32,557.66 Z" style="stroke-width: 1; stroke: rgb(0, 0, 0); fill: rgb(0, 0, 0); fill-opacity: 1;"/></g><g class="composite-shape"><path class="real" d=" M599.54,524.98 C599.54,517.87 605.31,512.1 612.42,512.1 C619.53,512.1 625.29,517.87 625.29,524.98 C625.29,532.09 619.53,537.85 612.42,537.85 C605.31,537.85 599.54,532.09 599.54,524.98 Z" style="stroke-width: 1; stroke: rgb(0, 0, 0); fill: rgb(255, 255, 255); fill-opacity: 1;"/></g><g class="composite-shape"><path class="real" d=" M599.35,459.94 C599.35,452.83 605.11,447.07 612.22,447.07 C619.33,447.07 625.1,452.83 625.1,459.94 C625.1,467.05 619.33,472.81 612.22,472.81 C605.11,472.81 599.35,467.05 599.35,459.94 Z" style="stroke-width: 1; stroke: rgb(0, 0, 0); fill: rgb(0, 0, 0); fill-opacity: 1;"/></g><g class="arrow-line"><path class="connection real" stroke-dasharray="" d="  M550.58,525.64 L501.77,525.32" style="stroke: rgb(0, 0, 0); stroke-width: 1; fill: none; fill-opacity: 1;"/><g stroke="#000" transform="matrix(0.9999791490100767,0.006457673349043384,-0.006457673349043384,0.9999791490100767,499.7682387132111,525.3098560875388)" style="stroke: rgb(0, 0, 0); stroke-width: 1;"><path d=" M10.93,-3.29 Q4.96,-0.45 0,0 Q4.96,0.45 10.93,3.29"/></g></g><g class="arrow-line"><path class="connection real" stroke-dasharray="" d="  M562.58,524.97 L610.42,524.98" style="stroke: rgb(0, 0, 0); stroke-width: 1; fill: none; fill-opacity: 1;"/><g stroke="#000" transform="matrix(-1,1.2246467991473532e-16,-1.2246467991473532e-16,-1,612.4161226982282,524.9756221066746)" style="stroke: rgb(0, 0, 0); stroke-width: 1;"><path d=" M10.93,-3.29 Q4.96,-0.45 0,0 Q4.96,0.45 10.93,3.29"/></g></g><g class="composite-shape"><path class="real" d=" M625.5,525.29 Q632.5,525.29 632.5,518.29 L632.5,502.96 Q632.5,492.96 639.5,492.96 Q632.5,492.96 632.5,482.96 M632.5,485.96 L632.5,467.63 Q632.5,460.63 625.5,460.63" style="stroke-width: 1; stroke: rgb(0, 0, 0); fill: none; fill-opacity: 1;"/></g><g class="arrow-line"><path class="connection real" stroke-dasharray="" d="  M273.89,330.87 L382.54,330.54" style="stroke: rgb(0, 0, 0); stroke-opacity: 1; stroke-width: 2; fill: none; fill-opacity: 1;"/><g stroke="none" fill="rgb(0,0,0)" fill-opacity="1" transform="matrix(-0.9999955982815133,0.0029670553750029346,-0.0029670553750029346,-0.9999955982815133,386.5414444917208,330.53223164122875)" style="stroke: none; fill: rgb(0, 0, 0); stroke-width: 2;"><path d=" M13.4,-6.43 L0,0 L13.4,6.44 L8.9,0 Z"/></g></g><g class="arrow-line"><path class="connection real" stroke-dasharray="" d="  M273.89,330.87 L219.29,236.94" style="stroke: rgb(0, 0, 0); stroke-opacity: 1; stroke-width: 2; fill: none; fill-opacity: 1;"/><g stroke="none" fill="rgb(0,0,0)" fill-opacity="1" transform="matrix(0.502567344469943,0.8645380640969081,-0.8645380640969081,0.502567344469943,217.28016339595817,233.47765339893766)" style="stroke: none; fill: rgb(0, 0, 0); stroke-width: 2;"><path d=" M13.4,-6.43 L0,0 L13.4,6.44 L8.9,0 Z"/></g></g><g class="arrow-line"><path class="connection real" stroke-dasharray="" d="  M261.01,307.25 C261.01,297.25 272.37,296.87 274.01,305.25" style="stroke: rgb(0, 0, 0); stroke-width: 1; fill: none; fill-opacity: 1;"/></g><g/></g><g/><g/><g/></svg>
        <svg xmlns="http://www.w3.org/2000/svg" xmlns:xlink="http://www.w3.org/1999/xlink" width="700" height="613.9453125" style="width:700px;height:613.9453125px;font-family:Asana-Math, Asana;background:transparent;"><g><g><g><g><g><g><g transform="matrix(1,0,0,1,14.23828125,485.40609375)"><path transform="matrix(0.02941,0,0,-0.02941,0,0)" d="M-7 -180C-8 -187 -8 -193 -8 -198C-8 -241 29 -276 74 -276C180 -276 290 -152 349 33L490 473L479 482C450 471 427 465 405 463L370 331C358 284 323 211 290 162C255 111 206 67 184 67C172 67 163 90 164 115L180 322C182 353 184 391 184 419C184 464 177 482 160 482C147 482 133 475 85 442L3 386L14 368L64 398C69 401 80 410 89 410C103 410 111 391 111 358C111 357 111 351 110 343L93 100L92 60C92 18 110 -11 135 -11C172 -11 256 74 331 187L282 16C231 -161 181 -234 111 -234C76 -234 49 -207 49 -172C49 -167 50 -159 51 -150L41 -146Z" stroke="rgb(0,0,0)" stroke-opacity="1" stroke-width="24" fill="rgb(0,0,0)" fill-opacity="1"></path></g></g></g></g></g></g></g><g><g><g><g><g><g><g transform="matrix(1,0,0,1,132.2265625,597.39828125)"><path transform="matrix(0.02941,0,0,-0.02941,0,0)" d="M9 1C24 -7 40 -11 52 -11C85 -11 124 18 155 65L231 182L242 113C255 28 278 -11 314 -11C336 -11 368 6 400 35L449 79L440 98C404 68 379 53 363 53C348 53 335 63 325 83C316 102 305 139 300 168L282 269L317 318C364 383 391 406 422 406C438 406 450 398 455 383L469 387L484 472C472 479 463 482 454 482C414 482 374 446 312 354L275 299L269 347C257 446 230 482 171 482C145 482 123 474 114 461L56 378L73 368C103 402 123 416 142 416C175 416 197 375 214 277L225 215L185 153C142 86 108 54 80 54C65 54 54 58 52 63L41 91L21 88C21 53 13 27 9 1Z" stroke="rgb(0,0,0)" stroke-opacity="1" stroke-width="24" fill="rgb(0,0,0)" fill-opacity="1"></path></g></g></g></g></g></g></g><g><g><g><g><g><g><g transform="matrix(1,0,0,1,551.23046875,530.60140625)"><path transform="matrix(0.02941,0,0,-0.02941,0,0)" d="M271 204L242 77C238 60 236 42 236 26C236 4 245 -9 260 -9C283 -9 324 17 406 85L399 106C375 86 346 59 324 59C315 59 309 68 309 82C309 87 309 90 310 93L402 472L392 481L359 463C318 478 301 482 274 482C246 482 226 477 199 464C137 433 104 403 79 354C35 265 4 145 4 67C4 23 19 -11 38 -11C75 -11 155 41 271 204ZM319 414C297 305 278 253 244 201C187 117 126 59 94 59C82 59 76 72 76 99C76 163 104 280 139 360C163 415 186 433 234 433C257 433 275 429 319 414Z" stroke="rgb(0,0,0)" stroke-opacity="1" stroke-width="8" fill="rgb(0,0,0)" fill-opacity="1"></path></g></g></g></g></g></g></g><g><g><g><g><g><g><g><g><g><g transform="matrix(1,0,0,1,654.58984375,481.6675)"><path transform="matrix(0.024480000000000002,0,0,-0.024480000000000002,0,0)" d="M271 204L242 77C238 60 236 42 236 26C236 4 245 -9 260 -9C283 -9 324 17 406 85L399 106C375 86 346 59 324 59C315 59 309 68 309 82C309 87 309 90 310 93L402 472L392 481L359 463C318 478 301 482 274 482C246 482 226 477 199 464C137 433 104 403 79 354C35 265 4 145 4 67C4 23 19 -11 38 -11C75 -11 155 41 271 204ZM319 414C297 305 278 253 244 201C187 117 126 59 94 59C82 59 76 72 76 99C76 163 104 280 139 360C163 415 186 433 234 433C257 433 275 429 319 414Z" stroke="rgb(0,0,0)" stroke-opacity="1" stroke-width="8" fill="rgb(0,0,0)" fill-opacity="1"></path></g></g></g></g><g><g><g><g><g><g><g transform="matrix(1,0,0,1,666.15234375,526.37453125)"><path transform="matrix(0.024480000000000002,0,0,-0.024480000000000002,0,0)" d="M462 224C462 345 355 366 308 374C388 436 418 482 418 541C418 630 344 689 233 689C165 689 120 670 72 622L43 498L74 498L92 554C103 588 166 622 218 622C283 622 336 569 336 506C336 431 277 368 206 368C198 368 187 369 174 370L159 371L147 318L154 312C192 329 211 334 238 334C321 334 369 281 369 190C369 88 308 21 215 21C169 21 128 36 98 64C74 86 61 109 42 163L15 153C36 92 44 56 50 6C103 -12 147 -20 184 -20C307 -20 462 87 462 224Z" stroke="rgb(0,0,0)" stroke-opacity="1" stroke-width="8" fill="rgb(0,0,0)" fill-opacity="1"></path></g></g></g></g><svg x="641.6796875" overflow="visible" y="501.15234375" height="24.47265625" width="36.69921875"><polygon points="0.51,13.91 6.89,10.49 13.93,25.42 23.56,0.00 36.70,0.00 36.70,1.52 24.57,1.52 13.22,31.62 4.46,13.28 0.92,14.60" style="fill:rgb(0,0,0);fill-opacity:1;stroke-width:1px;stroke:none;stroke-opacity:1;"></polygon></svg></g></g></g><line style="fill:none;stroke-width:1.25px;stroke:rgb(0, 0, 0);" x1="641.6796875" y1="493.4375" x2="678.37890625" y2="493.4375"></line></g></g></g></g></g></g><g><g><g><g><g><g><g><g><g><g transform="matrix(1,0,0,1,320.41015625,313.75734375)"><path transform="matrix(0.024480000000000002,0,0,-0.024480000000000002,0,0)" d="M271 204L242 77C238 60 236 42 236 26C236 4 245 -9 260 -9C283 -9 324 17 406 85L399 106C375 86 346 59 324 59C315 59 309 68 309 82C309 87 309 90 310 93L402 472L392 481L359 463C318 478 301 482 274 482C246 482 226 477 199 464C137 433 104 403 79 354C35 265 4 145 4 67C4 23 19 -11 38 -11C75 -11 155 41 271 204ZM319 414C297 305 278 253 244 201C187 117 126 59 94 59C82 59 76 72 76 99C76 163 104 280 139 360C163 415 186 433 234 433C257 433 275 429 319 414Z" stroke="rgb(0,0,0)" stroke-opacity="1" stroke-width="8" fill="rgb(0,0,0)" fill-opacity="1"></path></g></g></g></g><svg x="319.7265625" overflow="visible" y="286.26953125" height="15" width="13.4375"><path d=" M 13.44 6.98 l -4.54 -4.78 l -0.71 0.75 l 2.78 3.35 h -0.22 v 1.30 h 0.22 l -2.78 3.35 l 0.71 0.75 z  M 2.42 7.53 h 10.35 v -1.30 h -10.35 z" style="fill:rgb(0,0,0);fill-opacity:1;stroke-width:1px;stroke:none;stroke-opacity:1;"></path></svg></g><g><g><g><g><g transform="matrix(1,0,0,1,332.67578125,323.52271875)"><path transform="matrix(0.017136,0,0,-0.017136,0,0)" d="M418 -3L418 27L366 30C311 33 301 44 301 96L301 700L60 598L67 548L217 614L217 96C217 44 206 33 152 30L96 27L96 -3C250 0 250 0 261 0C292 0 402 -3 418 -3Z" stroke="rgb(0,0,0)" stroke-opacity="1" stroke-width="8" fill="rgb(0,0,0)" fill-opacity="1"></path></g></g></g></g></g></g></g></g></g></g><g><g><g><g><g><g><g><g><g><g transform="matrix(1,0,0,1,214.4140625,301.745625)"><path transform="matrix(0.024480000000000002,0,0,-0.024480000000000002,0,0)" d="M271 204L242 77C238 60 236 42 236 26C236 4 245 -9 260 -9C283 -9 324 17 406 85L399 106C375 86 346 59 324 59C315 59 309 68 309 82C309 87 309 90 310 93L402 472L392 481L359 463C318 478 301 482 274 482C246 482 226 477 199 464C137 433 104 403 79 354C35 265 4 145 4 67C4 23 19 -11 38 -11C75 -11 155 41 271 204ZM319 414C297 305 278 253 244 201C187 117 126 59 94 59C82 59 76 72 76 99C76 163 104 280 139 360C163 415 186 433 234 433C257 433 275 429 319 414Z" stroke="rgb(0,0,0)" stroke-opacity="1" stroke-width="8" fill="rgb(0,0,0)" fill-opacity="1"></path></g></g></g></g><svg x="213.73046875" overflow="visible" y="274.2578125" height="15" width="13.4375"><path d=" M 13.44 6.98 l -4.54 -4.78 l -0.71 0.75 l 2.78 3.35 h -0.22 v 1.30 h 0.22 l -2.78 3.35 l 0.71 0.75 z  M 2.42 7.53 h 10.35 v -1.30 h -10.35 z" style="fill:rgb(0,0,0);fill-opacity:1;stroke-width:1px;stroke:none;stroke-opacity:1;"></path></svg></g><g><g><g><g><g transform="matrix(1,0,0,1,226.6796875,311.511)"><path transform="matrix(0.017136,0,0,-0.017136,0,0)" d="M16 23L16 -3C203 -3 203 0 239 0C275 0 275 -3 468 -3L468 82C353 77 307 81 122 77L304 270C401 373 431 428 431 503C431 618 353 689 226 689C154 689 105 669 56 619L39 483L68 483L81 529C97 587 133 612 200 612C286 612 341 558 341 473C341 398 299 324 186 204Z" stroke="rgb(0,0,0)" stroke-opacity="1" stroke-width="8" fill="rgb(0,0,0)" fill-opacity="1"></path></g></g></g></g></g></g></g></g></g></g><g><g><g><g><g><g><g transform="matrix(1,0,0,1,62.2265625,232.46828125)"><path transform="matrix(0.024480000000000002,0,0,-0.024480000000000002,0,0)" d="M567 55C567 39 552 30 524 28L480 25L480 -3C582 0 582 0 602 0C622 0 622 0 724 -3L724 25L698 28C651 35 650 35 642 80L555 705L509 705L136 112C100 56 82 40 48 32L28 27L28 -3C120 0 120 0 140 0C159 0 161 0 247 -3L247 25L195 28C179 29 164 38 164 47C164 55 171 69 190 102L292 277L538 277L563 89L563 86C563 84 567 69 567 55ZM496 601L533 313L317 313Z" stroke="rgb(0,0,0)" stroke-opacity="1" stroke-width="8" fill="rgb(0,0,0)" fill-opacity="1"></path></g></g></g></g></g></g></g><g><g><g><g><g><g><g transform="matrix(1,0,0,1,64.23828125,182.46828125)"><path transform="matrix(0.024480000000000002,0,0,-0.024480000000000002,0,0)" d="M543 227C543 337 459 353 377 365C434 385 459 397 490 425C536 464 559 511 559 562C559 644 501 692 401 692C399 692 389 692 374 691L311 690C299 689 263 689 251 689C232 689 201 690 152 691L100 692L97 664L150 662C174 661 185 653 185 635C185 621 181 589 176 559L89 55C85 37 73 30 31 23L26 -3L63 -2C90 0 105 0 117 0C128 0 154 -1 180 -2L217 -3L237 -4C256 -5 269 -6 277 -6C392 -6 543 87 543 227ZM166 41L217 340L302 340C405 340 455 298 455 211C455 108 382 34 282 34C228 34 207 38 166 41ZM352 655C433 655 473 619 473 544C473 439 399 376 275 376L223 376L272 650C288 650 329 655 352 655Z" stroke="rgb(0,0,0)" stroke-opacity="1" stroke-width="8" fill="rgb(0,0,0)" fill-opacity="1"></path></g></g></g></g></g></g></g><g transform="matrix(0.49181581724988904,0.8706992603091056,-0.8706992603091056,0.49181581724988904,386.91029801838647,-81.23451118185801)"><g><g><g><g><g><g transform="matrix(1,0,0,1,251.25,296.2578125)"><path transform="matrix(0.017,0,0,-0.017,0,0)" d="M462 224C462 345 355 366 308 374C388 436 418 482 418 541C418 630 344 689 233 689C165 689 120 670 72 622L43 498L74 498L92 554C103 588 166 622 218 622C283 622 336 569 336 506C336 431 277 368 206 368C198 368 187 369 174 370L159 371L147 318L154 312C192 329 211 334 238 334C321 334 369 281 369 190C369 88 308 21 215 21C169 21 128 36 98 64C74 86 61 109 42 163L15 153C36 92 44 56 50 6C103 -12 147 -20 184 -20C307 -20 462 87 462 224ZM762 689C607 689 528 566 528 324C528 207 549 106 584 57C619 8 675 -20 737 -20C888 -20 964 110 964 366C964 585 899 689 762 689ZM744 654C841 654 880 556 880 316C880 103 842 15 750 15C653 15 612 116 612 360C612 571 649 654 744 654Z" stroke="rgb(0,0,0)" stroke-opacity="1" stroke-width="8" fill="rgb(0,0,0)" fill-opacity="1"></path></g></g><g><g><g><g><g transform="matrix(1,0,0,1,269.19921875,290.82578125)"><path transform="matrix(0.0119,0,0,-0.0119,0,0)" d="M342 271C342 352 277 417 195 417C112 417 47 352 47 271C47 188 112 124 195 124C277 124 342 188 342 271ZM304 271C304 209 254 161 195 161C133 161 85 209 85 271C85 331 133 380 195 380C254 380 304 331 304 271Z" stroke="rgb(0,0,0)" stroke-opacity="1" stroke-width="8" fill="rgb(0,0,0)" fill-opacity="1"></path></g></g></g></g></g></g></g></g></g></g></svg>
</svg>
