<svg xmlns="http://www.w3.org/2000/svg" xmlns:xlink="http://www.w3.org/1999/xlink" x="0" y="0" width="582.5" height="232.48046875" style="
        width:582.5px;
        height:232.48046875px;
        background: transparent;
        fill: none;
">
        
        
        <svg xmlns="http://www.w3.org/2000/svg" class="role-diagram-draw-area"><g class="shapes-region" style="stroke: black; fill: none;"><g class="composite-shape"><path class="real" d=" M10.38,135 L80.38,135 L80.38,175 L10.38,175 Z" style="stroke-width: 1; stroke: rgb(0, 0, 0); fill: none; fill-opacity: 1;"/></g><g class="composite-shape"><path class="real" d=" M148.88,135.33 L218.88,135.33 L218.88,175.33 L148.88,175.33 Z" style="stroke-width: 1; stroke: rgb(0, 0, 0); fill: none; fill-opacity: 1;"/></g><g class="composite-shape"><path class="real" d=" M260.38,70.08 L343.38,70.08 L343.38,106.33 L260.38,106.33 Z" style="stroke-width: 1; stroke: rgb(0, 0, 0); fill: none; fill-opacity: 1;"/></g><g class="composite-shape"><path class="real" d=" M262.04,189.75 L349.04,189.75 L349.04,222 L262.04,222 Z" style="stroke-width: 1; stroke: rgb(0, 0, 0); fill: none; fill-opacity: 1;"/></g><g class="composite-shape"><path class="real" d=" M388.24,6.9 L450.5,6.9 L450.5,51.08 L388.24,51.08 Z" style="stroke-width: 1; stroke: rgb(0, 0, 0); fill: none; fill-opacity: 1;"/></g><g class="composite-shape"><path class="real" d=" M439.33,120.67 L568.91,120.67 L568.91,176.08 L439.33,176.08 Z" style="stroke-width: 1; stroke: rgb(0, 0, 0); fill: none; fill-opacity: 1;"/></g><g class="arrow-line"><path class="connection real" stroke-dasharray="" d="  M80.24,153.74 L145.24,154.38" style="stroke: rgb(0, 0, 0); stroke-width: 1; fill: none; fill-opacity: 1;"/><g stroke="none" fill="#000" transform="matrix(-0.9999522363688097,-0.009773688199248747,0.009773688199248747,-0.9999522363688097,148.24444580078125,154.41111246744794)" style="stroke: none; fill: rgb(0, 0, 0); stroke-width: 1;"><path d=" M8.93,-4.29 L0,0 L8.93,4.29 Z"/></g></g><g class="arrow-line"><path class="connection real" stroke-dasharray="" d="  M218.88,135.33 L257.92,108.05" style="stroke: rgb(0, 0, 0); stroke-width: 1; fill: none; fill-opacity: 1;"/><g stroke="none" fill="#000" transform="matrix(-0.8196522721818121,0.5728613730277095,-0.5728613730277095,-0.8196522721818121,260.37500000000006,106.33333333333331)" style="stroke: none; fill: rgb(0, 0, 0); stroke-width: 1;"><path d=" M8.93,-4.29 L0,0 L8.93,4.29 Z"/></g></g><g class="arrow-line"><path class="connection real" stroke-dasharray="" d="  M218.88,175.33 L259.2,188.8" style="stroke: rgb(0, 0, 0); stroke-width: 1; fill: none; fill-opacity: 1;"/><g stroke="none" fill="#000" transform="matrix(-0.9484896655340391,-0.31680807182760773,0.31680807182760773,-0.9484896655340391,262.04166666666674,189.75000000000006)" style="stroke: none; fill: rgb(0, 0, 0); stroke-width: 1;"><path d=" M8.93,-4.29 L0,0 L8.93,4.29 Z"/></g></g><g class="arrow-line"><path class="connection real" stroke-dasharray="" d="  M343.38,70.08 L385.48,52.25" style="stroke: rgb(0, 0, 0); stroke-width: 1; fill: none; fill-opacity: 1;"/><g stroke="none" fill="#000" transform="matrix(-0.9207774108961264,0.39008839970374165,-0.39008839970374165,-0.9207774108961264,388.2444458007813,51.07777913411458)" style="stroke: none; fill: rgb(0, 0, 0); stroke-width: 1;"><path d=" M8.93,-4.29 L0,0 L8.93,4.29 Z"/></g></g><g class="arrow-line"><path class="connection real" stroke-dasharray="" d="  M391.58,149.41 L436.58,148.16" style="stroke: rgb(0, 0, 0); stroke-width: 1; fill: none; fill-opacity: 1;"/><g stroke="none" fill="#000" transform="matrix(-0.9996149730606798,0.02774717342174635,-0.02774717342174635,-0.9996149730606798,439.57777913411456,148.07777913411462)" style="stroke: none; fill: rgb(0, 0, 0); stroke-width: 1;"><path d=" M8.93,-4.29 L0,0 L8.93,4.29 Z"/></g></g><g class="arrow-line"><path class="connection real" stroke-dasharray="" d="  M343.38,88.33 L391.58,88.33" style="stroke: rgb(0, 0, 0); stroke-width: 1; fill: none; fill-opacity: 1;"/></g><g class="arrow-line"><path class="connection real" stroke-dasharray="" d="  M391.58,88.33 L391.58,130.41" style="stroke: rgb(0, 0, 0); stroke-width: 1; fill: none; fill-opacity: 1;"/></g><g class="arrow-line"><path class="connection real" stroke-dasharray="" d="  M349.04,203.75 L391.58,203.75" style="stroke: rgb(0, 0, 0); stroke-width: 1; fill: none; fill-opacity: 1;"/></g><g class="arrow-line"><path class="connection real" stroke-dasharray="" d="  M391.58,130.41 L391.58,203.75" style="stroke: rgb(0, 0, 0); stroke-width: 1; fill: none; fill-opacity: 1;"/></g><g/></g><g/><g/><g/></svg>
        <svg xmlns="http://www.w3.org/2000/svg" xmlns:xlink="http://www.w3.org/1999/xlink" width="580" height="229.98046875" style="width:580px;height:229.98046875px;font-family:Asana-Math, Asana;background:transparent;"><g><g><g><text x="27.44140625" y="145.751953125" style="white-space:pre;stroke:none;fill:rgb(0,0,0);fill-opacity:1;font-size:15px;font-family:Arial, Helvetica, sans-serif;font-weight:400;font-style:normal;dominant-baseline:text-before-edge;text-decoration:none solid rgb(0, 0, 0);">Rede</text></g></g></g><g><g><g><text x="156.181640625" y="146.708984375" style="white-space:pre;stroke:none;fill:rgb(0,0,0);fill-opacity:1;font-size:15px;font-family:Arial, Helvetica, sans-serif;font-weight:400;font-style:normal;dominant-baseline:text-before-edge;text-decoration:none solid rgb(0, 0, 0);">Matriz </text></g><g><g><g><g><g transform="matrix(1,0,0,1,201.181640625,159.958984375)"><path transform="matrix(0.017,0,0,-0.017,0,0)" d="M565 0C572 43 576 75 586 172L554 172C548 143 526 62 520 57C511 49 424 44 331 44C292 44 252 45 216 47L216 569C216 648 221 656 267 659L315 662L315 692C242 689 220 689 168 689C118 689 94 690 22 692L22 662L70 659C116 656 121 648 121 569L121 95C121 66 112 44 96 36L65 20L65 -3C131 0 138 0 164 0C187 0 304 -3 397 -3C429 -3 429 -3 565 0Z" stroke="rgb(0,0,0)" stroke-opacity="1" stroke-width="24" fill="rgb(0,0,0)" fill-opacity="1"></path></g></g></g></g></g></g></g><g><g><g><text x="262.265625" y="78.955078125" style="white-space:pre;stroke:none;fill:rgb(0,0,0);fill-opacity:1;font-size:15px;font-family:Arial, Helvetica, sans-serif;font-weight:400;font-style:normal;dominant-baseline:text-before-edge;text-decoration:none solid rgb(0, 0, 0);">Autovalores</text></g></g></g><g><g><g><text x="265.498046875" y="196.611328125" style="white-space:pre;stroke:none;fill:rgb(0,0,0);fill-opacity:1;font-size:15px;font-family:Arial, Helvetica, sans-serif;font-weight:400;font-style:normal;dominant-baseline:text-before-edge;text-decoration:none solid rgb(0, 0, 0);">Autovetores</text></g></g></g><g><g><g><g><g><g><g><g><g><g transform="matrix(1,0,0,1,395.068359375,32.478046875000004)"><path transform="matrix(0.024480000000000002,0,0,-0.024480000000000002,0,0)" d="M176 -11C232 -11 347 62 390 125C431 186 465 296 465 371C465 438 442 482 406 482C364 482 311 456 259 409C218 374 198 348 162 289L186 408C189 425 191 440 191 452C191 471 183 482 169 482C148 482 110 461 36 408L8 388L15 368L47 389C75 407 86 412 95 412C105 412 112 403 112 389C112 381 110 361 108 351L50 8C40 -52 21 -143 1 -233L-7 -270L0 -276C21 -269 41 -264 73 -259L115 3C136 -4 158 -11 176 -11ZM143 165C165 293 272 424 355 424C381 424 393 402 393 356C393 275 353 156 300 80C280 51 248 36 207 36C176 36 151 43 125 59Z" stroke="rgb(0,0,0)" stroke-opacity="1" stroke-width="8" fill="rgb(0,0,0)" fill-opacity="1"></path></g></g></g></g><svg xmlns="http://www.w3.org/2000/svg" x="395.068359375" y="13.251953125" height="7.98828125" width="12.2265625"><defs><clipPath id="ccp0.40862712605108054"><rect x="-0.5" y="-0.5" width="12.7265625" height="8.48828125"></rect></clipPath></defs><g clip-path="url(#ccp0.40862712605108054)"><svg xmlns="http://www.w3.org/2000/svg" x="0" y="0" height="29.35546875" width="24.4921875"><defs><clipPath id="ccp0.5831389031893341"><rect x="-0.5" y="-0.5" width="24.9921875" height="29.85546875"></rect></clipPath></defs><g clip-path="url(#ccp0.5831389031893341)"><g><g transform="matrix(1,0,0,1,0,24.48)"><path transform="matrix(0.024480000000000002,0,0,-0.024480000000000002,0,0)" d="M-877 790L1877 790L1877 850L-877 850Z" stroke="rgb(0,0,0)" stroke-opacity="1" stroke-width="8" fill="rgb(0,0,0)" fill-opacity="1"></path></g></g></g></svg></g></svg></g></g></g></g><g><text x="408.505859375" y="12.998046875" style="white-space:pre;stroke:none;fill:rgb(0,0,0);fill-opacity:1;font-size:21.6px;font-family:Arial, Helvetica, sans-serif;font-weight:400;font-style:normal;dominant-baseline:text-before-edge;text-decoration:none solid rgb(0, 0, 0);">, </text></g><g><g><g><g><g><g><g><g transform="matrix(1,0,0,1,421.728515625,32.478046875000004)"><path transform="matrix(0.024480000000000002,0,0,-0.024480000000000002,0,0)" d="M314 216C363 260 522 416 601 434L601 444C587 458 568 469 548 479C469 402 386 320 310 239C295 410 294 473 232 473C186 473 144 434 114 405L114 391L128 391L128 392C237 502 248 262 259 183C161 83 69 -32 -1 -152C7 -167 18 -182 32 -193L43 -193C102 -72 182 42 262 151C280 -26 285 -172 371 -172C418 -172 461 -136 495 -107L495 -96L484 -96C327 -207 332 124 314 216Z" stroke="rgb(0,0,0)" stroke-opacity="1" stroke-width="8" fill="rgb(0,0,0)" fill-opacity="1"></path></g></g></g></g><svg xmlns="http://www.w3.org/2000/svg" x="421.728515625" y="13.251953125" height="7.98828125" width="14.8828125"><defs><clipPath id="ccp0.6996186918288132"><rect x="-0.5" y="-0.5" width="15.3828125" height="8.48828125"></rect></clipPath></defs><g clip-path="url(#ccp0.6996186918288132)"><svg xmlns="http://www.w3.org/2000/svg" x="0" y="0" height="29.35546875" width="24.4921875"><defs><clipPath id="ccp0.7857855106466931"><rect x="-0.5" y="-0.5" width="24.9921875" height="29.85546875"></rect></clipPath></defs><g clip-path="url(#ccp0.7857855106466931)"><g><g transform="matrix(1,0,0,1,0,24.48)"><path transform="matrix(0.024480000000000002,0,0,-0.024480000000000002,0,0)" d="M-877 790L1877 790L1877 850L-877 850Z" stroke="rgb(0,0,0)" stroke-opacity="1" stroke-width="8" fill="rgb(0,0,0)" fill-opacity="1"></path></g></g></g></svg></g></svg></g><g><g><g><g><g transform="matrix(1,0,0,1,439.228515625,24.919203125)"><path transform="matrix(0.017136,0,0,-0.017136,0,0)" d="M168 267L37 213L32 204L68 153L78 153L184 241L202 99L212 95L280 121L280 131L212 253L350 233L359 241L359 303L353 307L214 283L283 408L280 423L218 442L209 438L183 295L88 393L78 393L34 341L37 331Z" stroke="rgb(0,0,0)" stroke-opacity="1" stroke-width="8" fill="rgb(0,0,0)" fill-opacity="1"></path></g></g></g></g></g></g></g></g><g><text x="447.353515625" y="12.998046875" style="white-space:pre;stroke:none;fill:rgb(0,0,0);fill-opacity:1;font-size:21.6px;font-family:Arial, Helvetica, sans-serif;font-weight:400;font-style:normal;dominant-baseline:text-before-edge;text-decoration:none solid rgb(0, 0, 0);"> </text></g></g></g><g><g><g><text x="448.349609375" y="136.005859375" style="white-space:pre;stroke:none;fill:rgb(0,0,0);fill-opacity:1;font-size:21.6px;font-family:Arial, Helvetica, sans-serif;font-weight:400;font-style:normal;dominant-baseline:text-before-edge;text-decoration:none solid rgb(0, 0, 0);"> </text></g><g><g><g><g><g><g><g><g transform="matrix(1,0,0,1,455.576171875,155.485859375)"><path transform="matrix(0.024480000000000002,0,0,-0.024480000000000002,0,0)" d="M525 42C469 42 464 125 465 166C466 251 494 333 537 405L599 418C602 435 608 452 613 467C459 461 300 463 145 466C80 467 66 389 47 340C46 332 59 331 63 328L63 332C106 395 130 405 205 405L228 405C188 266 161 129 98 -2L98 -12C118 -6 153 1 170 13C211 141 240 274 268 405L495 405C438 318 397 213 395 108C395 59 410 -15 471 -15C512 -15 568 25 598 51L598 66L586 66L586 67C568 56 548 42 525 42Z" stroke="rgb(0,0,0)" stroke-opacity="1" stroke-width="8" fill="rgb(0,0,0)" fill-opacity="1"></path></g></g></g></g><svg xmlns="http://www.w3.org/2000/svg" x="455.576171875" y="136.259765625" height="7.98828125" width="15.99609375"><defs><clipPath id="ccp0.6870831790977017"><rect x="-0.5" y="-0.5" width="16.49609375" height="8.48828125"></rect></clipPath></defs><g clip-path="url(#ccp0.6870831790977017)"><svg xmlns="http://www.w3.org/2000/svg" x="0" y="0" height="29.35546875" width="24.4921875"><defs><clipPath id="ccp0.37911793460831755"><rect x="-0.5" y="-0.5" width="24.9921875" height="29.85546875"></rect></clipPath></defs><g clip-path="url(#ccp0.37911793460831755)"><g><g transform="matrix(1,0,0,1,0,24.48)"><path transform="matrix(0.024480000000000002,0,0,-0.024480000000000002,0,0)" d="M-877 790L1877 790L1877 850L-877 850Z" stroke="rgb(0,0,0)" stroke-opacity="1" stroke-width="8" fill="rgb(0,0,0)" fill-opacity="1"></path></g></g></g></svg></g></svg></g></g></g></g><g><text x="472.783203125" y="136.005859375" style="white-space:pre;stroke:none;fill:rgb(0,0,0);fill-opacity:1;font-size:21.6px;font-family:Arial, Helvetica, sans-serif;font-weight:400;font-style:normal;dominant-baseline:text-before-edge;text-decoration:none solid rgb(0, 0, 0);">,  </text></g><g><g><g><g><g><g><g><g transform="matrix(1,0,0,1,492.001953125,155.485859375)"><path transform="matrix(0.024480000000000002,0,0,-0.024480000000000002,0,0)" d="M314 216C363 260 522 416 601 434L601 444C587 458 568 469 548 479C469 402 386 320 310 239C295 410 294 473 232 473C186 473 144 434 114 405L114 391L128 391L128 392C237 502 248 262 259 183C161 83 69 -32 -1 -152C7 -167 18 -182 32 -193L43 -193C102 -72 182 42 262 151C280 -26 285 -172 371 -172C418 -172 461 -136 495 -107L495 -96L484 -96C327 -207 332 124 314 216Z" stroke="rgb(0,0,0)" stroke-opacity="1" stroke-width="8" fill="rgb(0,0,0)" fill-opacity="1"></path></g></g></g></g><svg xmlns="http://www.w3.org/2000/svg" x="492.001953125" y="136.259765625" height="7.98828125" width="14.8828125"><defs><clipPath id="ccp0.7729173555910525"><rect x="-0.5" y="-0.5" width="15.3828125" height="8.48828125"></rect></clipPath></defs><g clip-path="url(#ccp0.7729173555910525)"><svg xmlns="http://www.w3.org/2000/svg" x="0" y="0" height="29.35546875" width="24.4921875"><defs><clipPath id="ccp0.5469127139718875"><rect x="-0.5" y="-0.5" width="24.9921875" height="29.85546875"></rect></clipPath></defs><g clip-path="url(#ccp0.5469127139718875)"><g><g transform="matrix(1,0,0,1,0,24.48)"><path transform="matrix(0.024480000000000002,0,0,-0.024480000000000002,0,0)" d="M-877 790L1877 790L1877 850L-877 850Z" stroke="rgb(0,0,0)" stroke-opacity="1" stroke-width="8" fill="rgb(0,0,0)" fill-opacity="1"></path></g></g></g></svg></g></svg></g></g></g></g><g><text x="508.095703125" y="136.005859375" style="white-space:pre;stroke:none;fill:rgb(0,0,0);fill-opacity:1;font-size:21.6px;font-family:Arial, Helvetica, sans-serif;font-weight:400;font-style:normal;dominant-baseline:text-before-edge;text-decoration:none solid rgb(0, 0, 0);">, </text></g><g><g><g><g><g transform="matrix(1,0,0,1,520.107421875,155.485859375)"><path transform="matrix(0.024480000000000002,0,0,-0.024480000000000002,0,0)" d="M774 42C718 42 713 125 714 166C715 251 743 333 786 405L848 418C851 435 857 452 862 467C708 461 549 463 394 466C329 467 315 389 296 340C295 332 308 331 312 328L312 332C355 395 379 405 454 405L477 405C437 266 410 129 347 -2L347 -12C367 -6 402 1 419 13C460 141 489 274 517 405L744 405C687 318 646 213 644 108C644 59 659 -15 720 -15C761 -15 817 25 847 51L847 66L835 66L835 67C817 56 797 42 774 42Z" stroke="rgb(0,0,0)" stroke-opacity="1" stroke-width="8" fill="rgb(0,0,0)" fill-opacity="1"></path></g></g><g><g><g><g><g transform="matrix(1,0,0,1,542.919921875,159.802015625)"><path transform="matrix(0.017136,0,0,-0.017136,0,0)" d="M271 204L242 77C238 60 236 42 236 26C236 4 245 -9 260 -9C283 -9 324 17 406 85L399 106C375 86 346 59 324 59C315 59 309 68 309 82C309 87 309 90 310 93L402 472L392 481L359 463C318 478 301 482 274 482C246 482 226 477 199 464C137 433 104 403 79 354C35 265 4 145 4 67C4 23 19 -11 38 -11C75 -11 155 41 271 204ZM319 414C297 305 278 253 244 201C187 117 126 59 94 59C82 59 76 72 76 99C76 163 104 280 139 360C163 415 186 433 234 433C257 433 275 429 319 414ZM678 722L666 733C614 707 578 698 506 691L502 670L550 670C574 670 584 663 584 646C584 639 583 628 582 622L481 71C480 68 480 64 480 61C480 22 528 -11 583 -11C620 -11 671 8 714 39C810 107 876 244 876 376C876 414 867 453 855 468C848 477 835 482 820 482C796 482 766 474 738 460C687 433 654 403 592 324ZM765 424C791 424 804 401 804 352C804 288 783 202 753 137C720 68 680 36 626 36C580 36 555 59 555 101C555 135 570 276 651 361C684 395 736 424 765 424Z" stroke="rgb(0,0,0)" stroke-opacity="1" stroke-width="8" fill="rgb(0,0,0)" fill-opacity="1"></path></g></g></g></g></g></g></g></g></g></g></svg>
</svg>
