<svg xmlns="http://www.w3.org/2000/svg" xmlns:xlink="http://www.w3.org/1999/xlink" x="0" y="0" width="662.5" height="349.47265625" style="
        width:662.5px;
        height:349.47265625px;
        background: transparent;
        fill: none;
">
        
        
        <svg xmlns="http://www.w3.org/2000/svg" class="role-diagram-draw-area"><g class="shapes-region" style="stroke: black; fill: none;"><g class="grouped-shape"><g class="arrow-line"><path class="connection real" stroke-dasharray="" d="  M59.35,57.78 L73.35,156.57" style="stroke: rgb(0, 0, 0); stroke-width: 1; fill: none; fill-opacity: 1;"/></g><g class="arrow-line"><path class="connection real" stroke-dasharray="" d="  M73.35,156.57 L90.15,106.57" style="stroke: rgb(0, 0, 0); stroke-width: 1; fill: none; fill-opacity: 1;"/></g><g class="arrow-line"><path class="connection real" stroke-dasharray="" d="  M59.35,57.78 L90.15,106.57" style="stroke: rgb(0, 0, 0); stroke-width: 1; fill: none; fill-opacity: 1;"/></g><g class="arrow-line"><path class="connection real" stroke-dasharray="" d="  M73.35,156.57 L16.8,121.31" style="stroke: rgb(0, 0, 0); stroke-width: 1; fill: none; fill-opacity: 1;"/></g><g class="arrow-line"><path class="connection real" stroke-dasharray="" d="  M16.8,121.31 L59.35,57.78" style="stroke: rgb(0, 0, 0); stroke-width: 1; fill: none; fill-opacity: 1;"/></g></g><g class="composite-shape"><path class="real" d=" M151.2,86.38 L178.02,59.56 L240.6,59.56 L240.6,124.58 L213.78,151.4 L151.2,151.4 Z" style="stroke-width: 1; stroke: rgb(0, 0, 0); fill: none; fill-opacity: 1;"/><path class="real" d=" M240.6,59.56 L213.78,86.38 L151.2,86.38" style="stroke-width: 1; stroke: rgb(0, 0, 0); fill: none; fill-opacity: 1;"/><path class="real" d=" M213.78,86.38 L213.78,151.4" style="stroke-width: 1; stroke: rgb(0, 0, 0); fill: none; fill-opacity: 1;"/></g><g class="grouped-shape"><g class="arrow-line"><path class="connection real" stroke-dasharray="" d="  M305.8,137.16 L368.8,137.16" style="stroke: rgb(0, 0, 0); stroke-width: 1; fill: none; fill-opacity: 1;"/></g><g class="arrow-line"><path class="connection real" stroke-dasharray="" d="  M305.6,92.96 L305.8,137.16" style="stroke: rgb(0, 0, 0); stroke-width: 1; fill: none; fill-opacity: 1;"/></g><g class="arrow-line"><path class="connection real" stroke-dasharray="" d="  M305.6,92.96 L336.8,62.26" style="stroke: rgb(0, 0, 0); stroke-width: 1; fill: none; fill-opacity: 1;"/></g><g class="arrow-line"><path class="connection real" stroke-dasharray="" d="  M336.8,62.26 L305.8,137.16" style="stroke: rgb(0, 0, 0); stroke-width: 1; fill: none; fill-opacity: 1;"/></g><g class="arrow-line"><path class="connection real" stroke-dasharray="" d="  M336.8,62.26 L368.8,137.16" style="stroke: rgb(0, 0, 0); stroke-width: 1; fill: none; fill-opacity: 1;"/></g><g class="arrow-line"><path class="connection real" stroke-dasharray="" d="  M368.8,93.46 L368.8,137.16" style="stroke: rgb(0, 0, 0); stroke-width: 1; fill: none; fill-opacity: 1;"/></g><g class="arrow-line"><path class="connection real" stroke-dasharray="" d="  M368.8,93.46 L336.8,62.26" style="stroke: rgb(0, 0, 0); stroke-width: 1; fill: none; fill-opacity: 1;"/></g><g class="arrow-line"><path class="connection real" stroke-dasharray="" d="  M305.8,137.16 L337.4,167.01" style="stroke: rgb(0, 0, 0); stroke-width: 1; fill: none; fill-opacity: 1;"/></g><g class="arrow-line"><path class="connection real" stroke-dasharray="" d="  M368.8,137.16 L337.4,167.01" style="stroke: rgb(0, 0, 0); stroke-width: 1; fill: none; fill-opacity: 1;"/></g></g><g class="grouped-shape"><g class="arrow-line"><path class="connection real" stroke-dasharray="" d="  M443.95,131.16 L466.9,153.06" style="stroke: rgb(0, 0, 0); stroke-width: 1; fill: none; fill-opacity: 1;"/></g><g class="arrow-line"><path class="connection real" stroke-dasharray="" d="  M450.55,95.16 L443.95,131.16" style="stroke: rgb(0, 0, 0); stroke-width: 1; fill: none; fill-opacity: 1;"/></g><g class="arrow-line"><path class="connection real" stroke-dasharray="" d="  M434.55,134.56 L443.95,131.16" style="stroke: rgb(0, 0, 0); stroke-width: 1; fill: none; fill-opacity: 1;"/></g><g class="arrow-line"><path class="connection real" stroke-dasharray="" d="  M434.95,98.96 L434.55,134.56" style="stroke: rgb(0, 0, 0); stroke-width: 1; fill: none; fill-opacity: 1;"/></g><g class="arrow-line"><path class="connection real" stroke-dasharray="" d="  M446.15,73.96 L434.95,98.96" style="stroke: rgb(0, 0, 0); stroke-width: 1; fill: none; fill-opacity: 1;"/></g><g class="arrow-line"><path class="connection real" stroke-dasharray="" d="  M446.15,73.96 L450.55,95.16" style="stroke: rgb(0, 0, 0); stroke-width: 1; fill: none; fill-opacity: 1;"/></g><g class="arrow-line"><path class="connection real" stroke-dasharray="" d="  M478.15,94.76 L450.55,95.16" style="stroke: rgb(0, 0, 0); stroke-width: 1; fill: none; fill-opacity: 1;"/></g><g class="arrow-line"><path class="connection real" stroke-dasharray="" d="  M489.35,130.96 L466.9,153.06" style="stroke: rgb(0, 0, 0); stroke-width: 1; fill: none; fill-opacity: 1;"/></g><g class="arrow-line"><path class="connection real" stroke-dasharray="" d="  M478.15,94.76 L489.35,130.96" style="stroke: rgb(0, 0, 0); stroke-width: 1; fill: none; fill-opacity: 1;"/></g><g class="arrow-line"><path class="connection real" stroke-dasharray="" d="  M446.15,73.96 L469.95,60.96" style="stroke: rgb(0, 0, 0); stroke-width: 1; fill: none; fill-opacity: 1;"/></g><g class="arrow-line"><path class="connection real" stroke-dasharray="" d="  M469.95,60.96 L490.55,73.96" style="stroke: rgb(0, 0, 0); stroke-width: 1; fill: none; fill-opacity: 1;"/></g><g class="arrow-line"><path class="connection real" stroke-dasharray="" d="  M490.55,73.96 L478.15,94.76" style="stroke: rgb(0, 0, 0); stroke-width: 1; fill: none; fill-opacity: 1;"/></g><g class="arrow-line"><path class="connection real" stroke-dasharray="" d="  M490.55,73.96 L509.95,97.96" style="stroke: rgb(0, 0, 0); stroke-width: 1; fill: none; fill-opacity: 1;"/></g><g class="arrow-line"><path class="connection real" stroke-dasharray="" d="  M509.95,97.96 L508.15,130.76" style="stroke: rgb(0, 0, 0); stroke-width: 1; fill: none; fill-opacity: 1;"/></g><g class="arrow-line"><path class="connection real" stroke-dasharray="" d="  M489.35,130.96 L508.15,130.76" style="stroke: rgb(0, 0, 0); stroke-width: 1; fill: none; fill-opacity: 1;"/></g><g class="arrow-line"><path class="connection real" stroke-dasharray="" d="  M434.55,134.56 L451.15,157.21" style="stroke: rgb(0, 0, 0); stroke-width: 1; fill: none; fill-opacity: 1;"/></g><g class="arrow-line"><path class="connection real" stroke-dasharray="" d="  M450.55,156.21 L470.95,172.01" style="stroke: rgb(0, 0, 0); stroke-width: 1; fill: none; fill-opacity: 1;"/></g><g class="arrow-line"><path class="connection real" stroke-dasharray="" d="  M495.55,157.01 L470.95,172.01" style="stroke: rgb(0, 0, 0); stroke-width: 1; fill: none; fill-opacity: 1;"/></g><g class="arrow-line"><path class="connection real" stroke-dasharray="" d="  M508.15,130.76 L495.55,157.01" style="stroke: rgb(0, 0, 0); stroke-width: 1; fill: none; fill-opacity: 1;"/></g><g class="arrow-line"><path class="connection real" stroke-dasharray="" d="  M470.95,172.01 L466.9,153.06" style="stroke: rgb(0, 0, 0); stroke-width: 1; fill: none; fill-opacity: 1;"/></g></g><g class="grouped-shape"><g class="arrow-line"><path class="connection real" stroke-dasharray="" d="  M616.75,55.26 L605.55,82.26" style="stroke: rgb(0, 0, 0); stroke-width: 1; fill: none; fill-opacity: 1;"/></g><g class="arrow-line"><path class="connection real" stroke-dasharray="" d="  M576.35,64.76 L605.55,82.26" style="stroke: rgb(0, 0, 0); stroke-width: 1; fill: none; fill-opacity: 1;"/></g><g class="arrow-line"><path class="connection real" stroke-dasharray="" d="  M576.35,64.76 L616.75,55.26" style="stroke: rgb(0, 0, 0); stroke-width: 1; fill: none; fill-opacity: 1;"/></g><g class="arrow-line"><path class="connection real" stroke-dasharray="" d="  M616.75,55.26 L641.55,98.56" style="stroke: rgb(0, 0, 0); stroke-width: 1; fill: none; fill-opacity: 1;"/></g><g class="arrow-line"><path class="connection real" stroke-dasharray="" d="  M641.55,98.56 L605.55,82.26" style="stroke: rgb(0, 0, 0); stroke-width: 1; fill: none; fill-opacity: 1;"/></g><g class="arrow-line"><path class="connection real" stroke-dasharray="" d="  M576.35,64.76 L563.15,110.26" style="stroke: rgb(0, 0, 0); stroke-width: 1; fill: none; fill-opacity: 1;"/></g><g class="arrow-line"><path class="connection real" stroke-dasharray="" d="  M574.55,117.26 L563.15,110.26" style="stroke: rgb(0, 0, 0); stroke-width: 1; fill: none; fill-opacity: 1;"/></g><g class="arrow-line"><path class="connection real" stroke-dasharray="" d="  M576.35,64.76 L574.55,117.26" style="stroke: rgb(0, 0, 0); stroke-width: 1; fill: none; fill-opacity: 1;"/></g><g class="arrow-line"><path class="connection real" stroke-dasharray="" d="  M605.55,82.26 L574.55,117.26" style="stroke: rgb(0, 0, 0); stroke-width: 1; fill: none; fill-opacity: 1;"/></g><g class="arrow-line"><path class="connection real" stroke-dasharray="" d="  M605.55,82.26 L612.95,138.06" style="stroke: rgb(0, 0, 0); stroke-width: 1; fill: none; fill-opacity: 1;"/></g><g class="arrow-line"><path class="connection real" stroke-dasharray="" d="  M574.55,117.26 L612.95,138.06" style="stroke: rgb(0, 0, 0); stroke-width: 1; fill: none; fill-opacity: 1;"/></g><g class="arrow-line"><path class="connection real" stroke-dasharray="" d="  M641.55,98.56 L628.35,145.71" style="stroke: rgb(0, 0, 0); stroke-width: 1; fill: none; fill-opacity: 1;"/></g><g class="arrow-line"><path class="connection real" stroke-dasharray="" d="  M612.95,138.06 L628.35,145.71" style="stroke: rgb(0, 0, 0); stroke-width: 1; fill: none; fill-opacity: 1;"/></g><g class="arrow-line"><path class="connection real" stroke-dasharray="" d="  M563.15,110.26 L587.55,155.91" style="stroke: rgb(0, 0, 0); stroke-width: 1; fill: none; fill-opacity: 1;"/></g><g class="arrow-line"><path class="connection real" stroke-dasharray="" d="  M574.15,116.11 L587.55,155.91" style="stroke: rgb(0, 0, 0); stroke-width: 1; fill: none; fill-opacity: 1;"/></g><g class="arrow-line"><path class="connection real" stroke-dasharray="" d="  M612.95,138.06 L587.55,155.91" style="stroke: rgb(0, 0, 0); stroke-width: 1; fill: none; fill-opacity: 1;"/></g><g class="arrow-line"><path class="connection real" stroke-dasharray="" d="  M587.55,155.91 L628.35,145.71" style="stroke: rgb(0, 0, 0); stroke-width: 1; fill: none; fill-opacity: 1;"/></g></g><g class="grouped-shape"><g class="arrow-line"><path class="connection real" stroke-dasharray="" d="  M65.19,198.55 L65.19,272.89" style="stroke: rgb(0, 0, 0); stroke-width: 1; fill: none; fill-opacity: 1;"/></g><g class="arrow-line"><path class="connection real" stroke-dasharray="" d="  M65.19,198.55 L115.38,317.28" style="stroke: rgb(0, 0, 0); stroke-width: 1; fill: none; fill-opacity: 1;"/></g><g class="arrow-line"><path class="connection real" stroke-dasharray="" d="  M65.19,272.89 L115.38,317.28" style="stroke: rgb(0, 0, 0); stroke-width: 1; fill: none; fill-opacity: 1;"/></g><g class="arrow-line"><path class="connection real" stroke-dasharray="" d="  M14.34,317.62 L115.38,317.28" style="stroke: rgb(0, 0, 0); stroke-width: 1; fill: none; fill-opacity: 1;"/></g><g class="arrow-line"><path class="connection real" stroke-dasharray="" d="  M65.19,272.89 L14.34,317.62" style="stroke: rgb(0, 0, 0); stroke-width: 1; fill: none; fill-opacity: 1;"/></g><g class="arrow-line"><path class="connection real" stroke-dasharray="" d="  M65.19,198.55 L14.34,317.62" style="stroke: rgb(0, 0, 0); stroke-width: 1; fill: none; fill-opacity: 1;"/></g><g class="composite-shape"><path class="real" d=" M61.57,198.55 C61.57,196.55 63.19,194.92 65.19,194.92 C67.2,194.92 68.82,196.55 68.82,198.55 C68.82,200.56 67.2,202.19 65.19,202.19 C63.19,202.19 61.57,200.56 61.57,198.55 Z" style="stroke-width: 1; stroke: rgb(0, 0, 0); fill: rgb(255, 255, 255); fill-opacity: 1;"/></g><g class="composite-shape"><path class="real" d=" M61.57,272.89 C61.57,270.88 63.19,269.25 65.19,269.25 C67.2,269.25 68.82,270.88 68.82,272.89 C68.82,274.89 67.2,276.52 65.19,276.52 C63.19,276.52 61.57,274.89 61.57,272.89 Z" style="stroke-width: 1; stroke: rgb(0, 0, 0); fill: rgb(255, 255, 255); fill-opacity: 1;"/></g><g class="composite-shape"><path class="real" d=" M111.76,317.28 C111.76,315.27 113.38,313.64 115.38,313.64 C117.39,313.64 119.01,315.27 119.01,317.28 C119.01,319.29 117.39,320.91 115.38,320.91 C113.38,320.91 111.76,319.29 111.76,317.28 Z" style="stroke-width: 1; stroke: rgb(0, 0, 0); fill: rgb(255, 255, 255); fill-opacity: 1;"/></g><g class="composite-shape"><path class="real" d=" M10.71,317.62 C10.71,315.62 12.34,313.99 14.34,313.99 C16.34,313.99 17.96,315.62 17.96,317.62 C17.96,319.63 16.34,321.26 14.34,321.26 C12.34,321.26 10.71,319.63 10.71,317.62 Z" style="stroke-width: 1; stroke: rgb(0, 0, 0); fill: rgb(255, 255, 255); fill-opacity: 1;"/></g></g><g class="grouped-shape"><g class="arrow-line"><path class="connection real" stroke-dasharray="" d="  M144.65,196.58 L144.65,318.38" style="stroke: rgb(0, 0, 0); stroke-width: 1; fill: none; fill-opacity: 1;"/></g><g class="arrow-line"><path class="connection real" stroke-dasharray="" d="  M144.65,196.58 L254.52,196.58" style="stroke: rgb(0, 0, 0); stroke-width: 1; fill: none; fill-opacity: 1;"/></g><g class="arrow-line"><path class="connection real" stroke-dasharray="" d="  M254.52,196.58 L254.11,318.71" style="stroke: rgb(0, 0, 0); stroke-width: 1; fill: none; fill-opacity: 1;"/></g><g class="arrow-line"><path class="connection real" stroke-dasharray="" d="  M144.65,318.38 L254.11,318.71" style="stroke: rgb(0, 0, 0); stroke-width: 1; fill: none; fill-opacity: 1;"/></g><g class="arrow-line"><path class="connection real" stroke-dasharray="" d="  M144.65,196.58 L176.33,232.48" style="stroke: rgb(0, 0, 0); stroke-width: 1; fill: none; fill-opacity: 1;"/></g><g class="arrow-line"><path class="connection real" stroke-dasharray="" d="  M176.33,232.48 L222.42,232.48" style="stroke: rgb(0, 0, 0); stroke-width: 1; fill: none; fill-opacity: 1;"/></g><g class="arrow-line"><path class="connection real" stroke-dasharray="" d="  M222.42,232.48 L254.52,196.58" style="stroke: rgb(0, 0, 0); stroke-width: 1; fill: none; fill-opacity: 1;"/></g><g class="arrow-line"><path class="connection real" stroke-dasharray="" d="  M176.33,283.15 L144.65,318.38" style="stroke: rgb(0, 0, 0); stroke-width: 1; fill: none; fill-opacity: 1;"/></g><g class="arrow-line"><path class="connection real" stroke-dasharray="" d="  M176.33,232.48 L176.33,283.15" style="stroke: rgb(0, 0, 0); stroke-width: 1; fill: none; fill-opacity: 1;"/></g><g class="arrow-line"><path class="connection real" stroke-dasharray="" d="  M176.33,283.15 L222.42,282.64" style="stroke: rgb(0, 0, 0); stroke-width: 1; fill: none; fill-opacity: 1;"/></g><g class="arrow-line"><path class="connection real" stroke-dasharray="" d="  M222.42,282.64 L254.11,318.71" style="stroke: rgb(0, 0, 0); stroke-width: 1; fill: none; fill-opacity: 1;"/></g><g class="arrow-line"><path class="connection real" stroke-dasharray="" d="  M222.42,232.48 L222.42,282.64" style="stroke: rgb(0, 0, 0); stroke-width: 1; fill: none; fill-opacity: 1;"/></g><g class="composite-shape"><path class="real" d=" M250.03,196.58 C250.03,194.62 252.04,193.03 254.52,193.03 C257,193.03 259.01,194.62 259.01,196.58 C259.01,198.53 257,200.12 254.52,200.12 C252.04,200.12 250.03,198.53 250.03,196.58 Z" style="stroke-width: 1; stroke: rgb(0, 0, 0); fill: rgb(255, 255, 255); fill-opacity: 1;"/></g><g class="composite-shape"><path class="real" d=" M249.62,318.71 C249.62,316.76 251.63,315.17 254.11,315.17 C256.59,315.17 258.6,316.76 258.6,318.71 C258.6,320.67 256.59,322.26 254.11,322.26 C251.63,322.26 249.62,320.67 249.62,318.71 Z" style="stroke-width: 1; stroke: rgb(0, 0, 0); fill: rgb(255, 255, 255); fill-opacity: 1;"/></g><g class="composite-shape"><path class="real" d=" M217.94,282.64 C217.94,280.69 219.94,279.1 222.42,279.1 C224.9,279.1 226.91,280.69 226.91,282.64 C226.91,284.6 224.9,286.19 222.42,286.19 C219.94,286.19 217.94,284.6 217.94,282.64 Z" style="stroke-width: 1; stroke: rgb(0, 0, 0); fill: rgb(255, 255, 255); fill-opacity: 1;"/></g><g class="composite-shape"><path class="real" d=" M217.94,232.48 C217.94,230.52 219.94,228.93 222.42,228.93 C224.9,228.93 226.91,230.52 226.91,232.48 C226.91,234.44 224.9,236.02 222.42,236.02 C219.94,236.02 217.94,234.44 217.94,232.48 Z" style="stroke-width: 1; stroke: rgb(0, 0, 0); fill: rgb(255, 255, 255); fill-opacity: 1;"/></g><g class="composite-shape"><path class="real" d=" M140.16,318.38 C140.16,316.42 142.17,314.83 144.65,314.83 C147.12,314.83 149.13,316.42 149.13,318.38 C149.13,320.34 147.12,321.92 144.65,321.92 C142.17,321.92 140.16,320.34 140.16,318.38 Z" style="stroke-width: 1; stroke: rgb(0, 0, 0); fill: rgb(255, 255, 255); fill-opacity: 1;"/></g><g class="composite-shape"><path class="real" d=" M171.85,283.15 C171.85,281.19 173.85,279.6 176.33,279.6 C178.81,279.6 180.82,281.19 180.82,283.15 C180.82,285.1 178.81,286.69 176.33,286.69 C173.85,286.69 171.85,285.1 171.85,283.15 Z" style="stroke-width: 1; stroke: rgb(0, 0, 0); fill: rgb(255, 255, 255); fill-opacity: 1;"/></g><g class="composite-shape"><path class="real" d=" M171.85,232.48 C171.85,230.52 173.85,228.93 176.33,228.93 C178.81,228.93 180.82,230.52 180.82,232.48 C180.82,234.44 178.81,236.02 176.33,236.02 C173.85,236.02 171.85,234.44 171.85,232.48 Z" style="stroke-width: 1; stroke: rgb(0, 0, 0); fill: rgb(255, 255, 255); fill-opacity: 1;"/></g><g class="composite-shape"><path class="real" d=" M140.16,196.58 C140.16,194.62 142.17,193.03 144.65,193.03 C147.12,193.03 149.13,194.62 149.13,196.58 C149.13,198.53 147.12,200.12 144.65,200.12 C142.17,200.12 140.16,198.53 140.16,196.58 Z" style="stroke-width: 1; stroke: rgb(0, 0, 0); fill: rgb(255, 255, 255); fill-opacity: 1;"/></g></g><g class="grouped-shape"><g class="arrow-line"><path class="connection real" stroke-dasharray="" d="  M336.77,198.72 L393.58,321.13" style="stroke: rgb(0, 0, 0); stroke-width: 1; fill: none; fill-opacity: 1;"/></g><g class="arrow-line"><path class="connection real" stroke-dasharray="" d="  M336.77,198.72 L280.58,321.13" style="stroke: rgb(0, 0, 0); stroke-width: 1; fill: none; fill-opacity: 1;"/></g><g class="arrow-line"><path class="connection real" stroke-dasharray="" d="  M280.58,321.13 L393.58,321.13" style="stroke: rgb(0, 0, 0); stroke-width: 1; fill: none; fill-opacity: 1;"/></g><g class="arrow-line"><path class="connection real" stroke-dasharray="" d="  M336.77,300.97 L280.58,321.13" style="stroke: rgb(0, 0, 0); stroke-width: 1; fill: none; fill-opacity: 1;"/></g><g class="arrow-line"><path class="connection real" stroke-dasharray="" d="  M336.77,300.97 L393.58,321.13" style="stroke: rgb(0, 0, 0); stroke-width: 1; fill: none; fill-opacity: 1;"/></g><g class="arrow-line"><path class="connection real" stroke-dasharray="" d="  M321.07,266.29 L336.77,300.97" style="stroke: rgb(0, 0, 0); stroke-width: 1; fill: none; fill-opacity: 1;"/></g><g class="arrow-line"><path class="connection real" stroke-dasharray="" d="  M354.03,266.29 L336.77,300.97" style="stroke: rgb(0, 0, 0); stroke-width: 1; fill: none; fill-opacity: 1;"/></g><g class="arrow-line"><path class="connection real" stroke-dasharray="" d="  M321.07,266.29 L354.03,266.29" style="stroke: rgb(0, 0, 0); stroke-width: 1; fill: none; fill-opacity: 1;"/></g><g class="arrow-line"><path class="connection real" stroke-dasharray="" d="  M321.07,266.29 L280.58,321.13" style="stroke: rgb(0, 0, 0); stroke-width: 1; fill: none; fill-opacity: 1;"/></g><g class="arrow-line"><path class="connection real" stroke-dasharray="" d="  M354.03,266.29 L393.58,321.13" style="stroke: rgb(0, 0, 0); stroke-width: 1; fill: none; fill-opacity: 1;"/></g><g class="arrow-line"><path class="connection real" stroke-dasharray="" d="  M336.77,198.72 L354.03,266.29" style="stroke: rgb(0, 0, 0); stroke-width: 1; fill: none; fill-opacity: 1;"/></g><g class="arrow-line"><path class="connection real" stroke-dasharray="" d="  M336.77,198.72 L321.07,266.29" style="stroke: rgb(0, 0, 0); stroke-width: 1; fill: none; fill-opacity: 1;"/></g><g class="composite-shape"><path class="real" d=" M390.16,321.13 C390.16,319.4 391.69,318 393.58,318 C395.48,318 397.01,319.4 397.01,321.13 C397.01,322.86 395.48,324.26 393.58,324.26 C391.69,324.26 390.16,322.86 390.16,321.13 Z" style="stroke-width: 1; stroke: rgb(0, 0, 0); fill: rgb(255, 255, 255); fill-opacity: 1;"/></g><g class="composite-shape"><path class="real" d=" M277.16,321.13 C277.16,319.4 278.69,318 280.58,318 C282.47,318 284.01,319.4 284.01,321.13 C284.01,322.86 282.47,324.26 280.58,324.26 C278.69,324.26 277.16,322.86 277.16,321.13 Z" style="stroke-width: 1; stroke: rgb(0, 0, 0); fill: rgb(255, 255, 255); fill-opacity: 1;"/></g><g class="composite-shape"><path class="real" d=" M333.35,300.97 C333.35,299.24 334.88,297.84 336.77,297.84 C338.66,297.84 340.19,299.24 340.19,300.97 C340.19,302.7 338.66,304.1 336.77,304.1 C334.88,304.1 333.35,302.7 333.35,300.97 Z" style="stroke-width: 1; stroke: rgb(0, 0, 0); fill: rgb(255, 255, 255); fill-opacity: 1;"/></g><g class="composite-shape"><path class="real" d=" M317.65,266.29 C317.65,264.57 319.18,263.16 321.07,263.16 C322.97,263.16 324.5,264.57 324.5,266.29 C324.5,268.02 322.97,269.43 321.07,269.43 C319.18,269.43 317.65,268.02 317.65,266.29 Z" style="stroke-width: 1; stroke: rgb(0, 0, 0); fill: rgb(255, 255, 255); fill-opacity: 1;"/></g><g class="composite-shape"><path class="real" d=" M350.61,266.29 C350.61,264.57 352.14,263.16 354.03,263.16 C355.92,263.16 357.46,264.57 357.46,266.29 C357.46,268.02 355.92,269.43 354.03,269.43 C352.14,269.43 350.61,268.02 350.61,266.29 Z" style="stroke-width: 1; stroke: rgb(0, 0, 0); fill: rgb(255, 255, 255); fill-opacity: 1;"/></g><g class="composite-shape"><path class="real" d=" M333.35,198.72 C333.35,196.99 334.88,195.59 336.77,195.59 C338.66,195.59 340.19,196.99 340.19,198.72 C340.19,200.45 338.66,201.85 336.77,201.85 C334.88,201.85 333.35,200.45 333.35,198.72 Z" style="stroke-width: 1; stroke: rgb(0, 0, 0); fill: rgb(255, 255, 255); fill-opacity: 1;"/></g></g><g class="grouped-shape"><g class="arrow-line"><path class="connection real" stroke-dasharray="" d="  M418.68,243.39 L444.49,319.47" style="stroke: rgb(0, 0, 0); stroke-width: 1; fill: none; fill-opacity: 1;"/></g><g class="arrow-line"><path class="connection real" stroke-dasharray="" d="  M469.47,189.29 L418.68,243.39" style="stroke: rgb(0, 0, 0); stroke-width: 1; fill: none; fill-opacity: 1;"/></g><g class="arrow-line"><path class="connection real" stroke-dasharray="" d="  M469.47,189.29 L524.7,243.59" style="stroke: rgb(0, 0, 0); stroke-width: 1; fill: none; fill-opacity: 1;"/></g><g class="arrow-line"><path class="connection real" stroke-dasharray="" d="  M524.7,243.59 L505.39,319.68" style="stroke: rgb(0, 0, 0); stroke-width: 1; fill: none; fill-opacity: 1;"/></g><g class="arrow-line"><path class="connection real" stroke-dasharray="" d="  M444.49,319.47 L505.39,319.68" style="stroke: rgb(0, 0, 0); stroke-width: 1; fill: none; fill-opacity: 1;"/></g><g class="arrow-line"><path class="connection real" stroke-dasharray="" d="  M450.75,300.93 L444.49,319.47" style="stroke: rgb(0, 0, 0); stroke-width: 1; fill: none; fill-opacity: 1;"/></g><g class="arrow-line"><path class="connection real" stroke-dasharray="" d="  M471.83,300.63 L450.75,300.93" style="stroke: rgb(0, 0, 0); stroke-width: 1; fill: none; fill-opacity: 1;"/></g><g class="arrow-line"><path class="connection real" stroke-dasharray="" d="  M495.25,302.14 L471.83,300.63" style="stroke: rgb(0, 0, 0); stroke-width: 1; fill: none; fill-opacity: 1;"/></g><g class="arrow-line"><path class="connection real" stroke-dasharray="" d="  M505.39,319.68 L495.25,302.14" style="stroke: rgb(0, 0, 0); stroke-width: 1; fill: none; fill-opacity: 1;"/></g><g class="arrow-line"><path class="connection real" stroke-dasharray="" d="  M498.52,276.28 L495.25,302.14" style="stroke: rgb(0, 0, 0); stroke-width: 1; fill: none; fill-opacity: 1;"/></g><g class="arrow-line"><path class="connection real" stroke-dasharray="" d="  M498.52,276.28 L488.38,271.9" style="stroke: rgb(0, 0, 0); stroke-width: 1; fill: none; fill-opacity: 1;"/></g><g class="arrow-line"><path class="connection real" stroke-dasharray="" d="  M487.44,271.59 L471.98,287.32" style="stroke: rgb(0, 0, 0); stroke-width: 1; fill: none; fill-opacity: 1;"/></g><g class="arrow-line"><path class="connection real" stroke-dasharray="" d="  M471.98,287.32 L471.83,300.63" style="stroke: rgb(0, 0, 0); stroke-width: 1; fill: none; fill-opacity: 1;"/></g><g class="arrow-line"><path class="connection real" stroke-dasharray="" d="  M456.22,272.2 L471.98,287.32" style="stroke: rgb(0, 0, 0); stroke-width: 1; fill: none; fill-opacity: 1;"/></g><g class="arrow-line"><path class="connection real" stroke-dasharray="" d="  M447,275.07 L450.75,300.93" style="stroke: rgb(0, 0, 0); stroke-width: 1; fill: none; fill-opacity: 1;"/></g><g class="arrow-line"><path class="connection real" stroke-dasharray="" d="  M456.22,272.2 L447,275.07" style="stroke: rgb(0, 0, 0); stroke-width: 1; fill: none; fill-opacity: 1;"/></g><g class="arrow-line"><path class="connection real" stroke-dasharray="" d="  M462.3,248.08 L456.22,272.2" style="stroke: rgb(0, 0, 0); stroke-width: 1; fill: none; fill-opacity: 1;"/></g><g class="arrow-line"><path class="connection real" stroke-dasharray="" d="  M481.51,247.93 L462.3,248.08" style="stroke: rgb(0, 0, 0); stroke-width: 1; fill: none; fill-opacity: 1;"/></g><g class="arrow-line"><path class="connection real" stroke-dasharray="" d="  M484.63,233.26 L481.51,247.93" style="stroke: rgb(0, 0, 0); stroke-width: 1; fill: none; fill-opacity: 1;"/></g><g class="arrow-line"><path class="connection real" stroke-dasharray="" d="  M481.51,247.93 L487.44,271.59" style="stroke: rgb(0, 0, 0); stroke-width: 1; fill: none; fill-opacity: 1;"/></g><g class="arrow-line"><path class="connection real" stroke-dasharray="" d="  M509.45,247.17 L498.52,276.28" style="stroke: rgb(0, 0, 0); stroke-width: 1; fill: none; fill-opacity: 1;"/></g><g class="arrow-line"><path class="connection real" stroke-dasharray="" d="  M524.7,243.59 L509.45,247.17" style="stroke: rgb(0, 0, 0); stroke-width: 1; fill: none; fill-opacity: 1;"/></g><g class="arrow-line"><path class="connection real" stroke-dasharray="" d="  M484.63,233.26 L509.45,247.17" style="stroke: rgb(0, 0, 0); stroke-width: 1; fill: none; fill-opacity: 1;"/></g><g class="arrow-line"><path class="connection real" stroke-dasharray="" d="  M469.33,216.29 L484.63,233.26" style="stroke: rgb(0, 0, 0); stroke-width: 1; fill: none; fill-opacity: 1;"/></g><g class="arrow-line"><path class="connection real" stroke-dasharray="" d="  M469.47,189.29 L469.33,216.29" style="stroke: rgb(0, 0, 0); stroke-width: 1; fill: none; fill-opacity: 1;"/></g><g class="arrow-line"><path class="connection real" stroke-dasharray="" d="  M469.33,216.29 L456.22,235.19" style="stroke: rgb(0, 0, 0); stroke-width: 1; fill: none; fill-opacity: 1;"/></g><g class="arrow-line"><path class="connection real" stroke-dasharray="" d="  M456.22,235.19 L462.3,248.08" style="stroke: rgb(0, 0, 0); stroke-width: 1; fill: none; fill-opacity: 1;"/></g><g class="arrow-line"><path class="connection real" stroke-dasharray="" d="  M456.22,235.19 L433.73,248.04" style="stroke: rgb(0, 0, 0); stroke-width: 1; fill: none; fill-opacity: 1;"/></g><g class="arrow-line"><path class="connection real" stroke-dasharray="" d="  M433.73,248.04 L418.68,243.39" style="stroke: rgb(0, 0, 0); stroke-width: 1; fill: none; fill-opacity: 1;"/></g><g class="arrow-line"><path class="connection real" stroke-dasharray="" d="  M433.73,248.04 L447,275.07" style="stroke: rgb(0, 0, 0); stroke-width: 1; fill: none; fill-opacity: 1;"/></g><g class="composite-shape"><path class="real" d=" M453.79,272.2 C453.79,270.9 454.88,269.85 456.22,269.85 C457.55,269.85 458.64,270.9 458.64,272.2 C458.64,273.5 457.55,274.55 456.22,274.55 C454.88,274.55 453.79,273.5 453.79,272.2 Z" style="stroke-width: 1; stroke: rgb(0, 0, 0); fill: rgb(255, 255, 255); fill-opacity: 1;"/></g><g class="composite-shape"><path class="real" d=" M444.58,275.07 C444.58,273.78 445.67,272.73 447,272.73 C448.34,272.73 449.43,273.78 449.43,275.07 C449.43,276.37 448.34,277.42 447,277.42 C445.67,277.42 444.58,276.37 444.58,275.07 Z" style="stroke-width: 1; stroke: rgb(0, 0, 0); fill: rgb(255, 255, 255); fill-opacity: 1;"/></g><g class="composite-shape"><path class="real" d=" M459.88,248.08 C459.88,246.78 460.97,245.73 462.3,245.73 C463.64,245.73 464.73,246.78 464.73,248.08 C464.73,249.38 463.64,250.43 462.3,250.43 C460.97,250.43 459.88,249.38 459.88,248.08 Z" style="stroke-width: 1; stroke: rgb(0, 0, 0); fill: rgb(255, 255, 255); fill-opacity: 1;"/></g><g class="composite-shape"><path class="real" d=" M479.08,247.93 C479.08,246.63 480.17,245.58 481.51,245.58 C482.85,245.58 483.93,246.63 483.93,247.93 C483.93,249.23 482.85,250.28 481.51,250.28 C480.17,250.28 479.08,249.23 479.08,247.93 Z" style="stroke-width: 1; stroke: rgb(0, 0, 0); fill: rgb(255, 255, 255); fill-opacity: 1;"/></g><g class="composite-shape"><path class="real" d=" M416.25,243.39 C416.25,242.09 417.34,241.04 418.68,241.04 C420.01,241.04 421.1,242.09 421.1,243.39 C421.1,244.68 420.01,245.74 418.68,245.74 C417.34,245.74 416.25,244.68 416.25,243.39 Z" style="stroke-width: 1; stroke: rgb(0, 0, 0); fill: rgb(255, 255, 255); fill-opacity: 1;"/></g><g class="composite-shape"><path class="real" d=" M431.31,248.04 C431.31,246.75 432.4,245.7 433.73,245.7 C435.07,245.7 436.16,246.75 436.16,248.04 C436.16,249.34 435.07,250.39 433.73,250.39 C432.4,250.39 431.31,249.34 431.31,248.04 Z" style="stroke-width: 1; stroke: rgb(0, 0, 0); fill: rgb(255, 255, 255); fill-opacity: 1;"/></g><g class="composite-shape"><path class="real" d=" M453.79,235.19 C453.79,233.89 454.88,232.84 456.22,232.84 C457.55,232.84 458.64,233.89 458.64,235.19 C458.64,236.49 457.55,237.54 456.22,237.54 C454.88,237.54 453.79,236.49 453.79,235.19 Z" style="stroke-width: 1; stroke: rgb(0, 0, 0); fill: rgb(255, 255, 255); fill-opacity: 1;"/></g><g class="composite-shape"><path class="real" d=" M442.07,319.47 C442.07,318.17 443.15,317.12 444.49,317.12 C445.83,317.12 446.91,318.17 446.91,319.47 C446.91,320.76 445.83,321.81 444.49,321.81 C443.15,321.81 442.07,320.76 442.07,319.47 Z" style="stroke-width: 1; stroke: rgb(0, 0, 0); fill: rgb(255, 255, 255); fill-opacity: 1;"/></g><g class="composite-shape"><path class="real" d=" M448.33,300.93 C448.33,299.63 449.41,298.58 450.75,298.58 C452.09,298.58 453.17,299.63 453.17,300.93 C453.17,302.23 452.09,303.28 450.75,303.28 C449.41,303.28 448.33,302.23 448.33,300.93 Z" style="stroke-width: 1; stroke: rgb(0, 0, 0); fill: rgb(255, 255, 255); fill-opacity: 1;"/></g><g class="composite-shape"><path class="real" d=" M469.4,300.63 C469.4,299.33 470.49,298.28 471.83,298.28 C473.17,298.28 474.25,299.33 474.25,300.63 C474.25,301.92 473.17,302.98 471.83,302.98 C470.49,302.98 469.4,301.92 469.4,300.63 Z" style="stroke-width: 1; stroke: rgb(0, 0, 0); fill: rgb(255, 255, 255); fill-opacity: 1;"/></g><g class="composite-shape"><path class="real" d=" M469.56,287.32 C469.56,286.03 470.65,284.97 471.98,284.97 C473.32,284.97 474.41,286.03 474.41,287.32 C474.41,288.62 473.32,289.67 471.98,289.67 C470.65,289.67 469.56,288.62 469.56,287.32 Z" style="stroke-width: 1; stroke: rgb(0, 0, 0); fill: rgb(255, 255, 255); fill-opacity: 1;"/></g><g class="composite-shape"><path class="real" d=" M502.97,319.68 C502.97,318.39 504.06,317.34 505.39,317.34 C506.73,317.34 507.82,318.39 507.82,319.68 C507.82,320.98 506.73,322.03 505.39,322.03 C504.06,322.03 502.97,320.98 502.97,319.68 Z" style="stroke-width: 1; stroke: rgb(0, 0, 0); fill: rgb(255, 255, 255); fill-opacity: 1;"/></g><g class="composite-shape"><path class="real" d=" M492.82,302.14 C492.82,300.84 493.91,299.79 495.25,299.79 C496.58,299.79 497.67,300.84 497.67,302.14 C497.67,303.44 496.58,304.49 495.25,304.49 C493.91,304.49 492.82,303.44 492.82,302.14 Z" style="stroke-width: 1; stroke: rgb(0, 0, 0); fill: rgb(255, 255, 255); fill-opacity: 1;"/></g><g class="composite-shape"><path class="real" d=" M485.02,271.59 C485.02,270.3 486.1,269.25 487.44,269.25 C488.78,269.25 489.86,270.3 489.86,271.59 C489.86,272.89 488.78,273.94 487.44,273.94 C486.1,273.94 485.02,272.89 485.02,271.59 Z" style="stroke-width: 1; stroke: rgb(0, 0, 0); fill: rgb(255, 255, 255); fill-opacity: 1;"/></g><g class="composite-shape"><path class="real" d=" M496.1,276.28 C496.1,274.99 497.19,273.94 498.52,273.94 C499.86,273.94 500.95,274.99 500.95,276.28 C500.95,277.58 499.86,278.63 498.52,278.63 C497.19,278.63 496.1,277.58 496.1,276.28 Z" style="stroke-width: 1; stroke: rgb(0, 0, 0); fill: rgb(255, 255, 255); fill-opacity: 1;"/></g><g class="composite-shape"><path class="real" d=" M507.03,247.17 C507.03,245.88 508.11,244.83 509.45,244.83 C510.79,244.83 511.88,245.88 511.88,247.17 C511.88,248.47 510.79,249.52 509.45,249.52 C508.11,249.52 507.03,248.47 507.03,247.17 Z" style="stroke-width: 1; stroke: rgb(0, 0, 0); fill: rgb(255, 255, 255); fill-opacity: 1;"/></g><g class="composite-shape"><path class="real" d=" M482.21,233.26 C482.21,231.96 483.29,230.91 484.63,230.91 C485.97,230.91 487.05,231.96 487.05,233.26 C487.05,234.56 485.97,235.61 484.63,235.61 C483.29,235.61 482.21,234.56 482.21,233.26 Z" style="stroke-width: 1; stroke: rgb(0, 0, 0); fill: rgb(255, 255, 255); fill-opacity: 1;"/></g><g class="composite-shape"><path class="real" d=" M466.91,216.29 C466.91,214.99 467.99,213.94 469.33,213.94 C470.67,213.94 471.75,214.99 471.75,216.29 C471.75,217.58 470.67,218.63 469.33,218.63 C467.99,218.63 466.91,217.58 466.91,216.29 Z" style="stroke-width: 1; stroke: rgb(0, 0, 0); fill: rgb(255, 255, 255); fill-opacity: 1;"/></g><g class="composite-shape"><path class="real" d=" M467.04,189.29 C467.04,187.99 468.13,186.94 469.47,186.94 C470.81,186.94 471.89,187.99 471.89,189.29 C471.89,190.58 470.81,191.63 469.47,191.63 C468.13,191.63 467.04,190.58 467.04,189.29 Z" style="stroke-width: 1; stroke: rgb(0, 0, 0); fill: rgb(255, 255, 255); fill-opacity: 1;"/></g><g class="composite-shape"><path class="real" d=" M522.28,243.59 C522.28,242.29 523.36,241.24 524.7,241.24 C526.04,241.24 527.12,242.29 527.12,243.59 C527.12,244.89 526.04,245.94 524.7,245.94 C523.36,245.94 522.28,244.89 522.28,243.59 Z" style="stroke-width: 1; stroke: rgb(0, 0, 0); fill: rgb(255, 255, 255); fill-opacity: 1;"/></g></g><g class="grouped-shape"><g class="arrow-line"><path class="connection real" stroke-dasharray="" d="  M541.94,312.45 L651.25,312.61" style="stroke: rgb(0, 0, 0); stroke-width: 1; fill: none; fill-opacity: 1;"/></g><g class="arrow-line"><path class="connection real" stroke-dasharray="" d="  M541.94,312.45 L596.9,296.83" style="stroke: rgb(0, 0, 0); stroke-width: 1; fill: none; fill-opacity: 1;"/></g><g class="arrow-line"><path class="connection real" stroke-dasharray="" d="  M596.9,296.83 L651.25,312.61" style="stroke: rgb(0, 0, 0); stroke-width: 1; fill: none; fill-opacity: 1;"/></g><g class="arrow-line"><path class="connection real" stroke-dasharray="" d="  M596.9,296.83 L615.88,280.7" style="stroke: rgb(0, 0, 0); stroke-width: 1; fill: none; fill-opacity: 1;"/></g><g class="arrow-line"><path class="connection real" stroke-dasharray="" d="  M615.88,280.7 L651.25,312.61" style="stroke: rgb(0, 0, 0); stroke-width: 1; fill: none; fill-opacity: 1;"/></g><g class="arrow-line"><path class="connection real" stroke-dasharray="" d="  M596.9,296.83 L577.91,281.68" style="stroke: rgb(0, 0, 0); stroke-width: 1; fill: none; fill-opacity: 1;"/></g><g class="arrow-line"><path class="connection real" stroke-dasharray="" d="  M541.94,312.45 L577.91,281.68" style="stroke: rgb(0, 0, 0); stroke-width: 1; fill: none; fill-opacity: 1;"/></g><g class="arrow-line"><path class="connection real" stroke-dasharray="" d="  M576.84,281.21 L596.9,281.05" style="stroke: rgb(0, 0, 0); stroke-width: 1; fill: none; fill-opacity: 1;"/></g><g class="arrow-line"><path class="connection real" stroke-dasharray="" d="  M596.9,296.83 L596.9,281.05" style="stroke: rgb(0, 0, 0); stroke-width: 1; fill: none; fill-opacity: 1;"/></g><g class="arrow-line"><path class="connection real" stroke-dasharray="" d="  M596.9,281.05 L615.88,280.7" style="stroke: rgb(0, 0, 0); stroke-width: 1; fill: none; fill-opacity: 1;"/></g><g class="arrow-line"><path class="connection real" stroke-dasharray="" d="  M596.9,281.05 L606.54,257.99" style="stroke: rgb(0, 0, 0); stroke-width: 1; fill: none; fill-opacity: 1;"/></g><g class="arrow-line"><path class="connection real" stroke-dasharray="" d="  M606.54,257.99 L615.88,280.7" style="stroke: rgb(0, 0, 0); stroke-width: 1; fill: none; fill-opacity: 1;"/></g><g class="arrow-line"><path class="connection real" stroke-dasharray="" d="  M541.94,312.45 L577.76,250.98" style="stroke: rgb(0, 0, 0); stroke-width: 1; fill: none; fill-opacity: 1;"/></g><g class="arrow-line"><path class="connection real" stroke-dasharray="" d="  M577.76,250.98 L577.91,281.68" style="stroke: rgb(0, 0, 0); stroke-width: 1; fill: none; fill-opacity: 1;"/></g><g class="arrow-line"><path class="connection real" stroke-dasharray="" d="  M577.91,281.68 L587.71,257.99" style="stroke: rgb(0, 0, 0); stroke-width: 1; fill: none; fill-opacity: 1;"/></g><g class="arrow-line"><path class="connection real" stroke-dasharray="" d="  M577.76,250.98 L587.71,257.99" style="stroke: rgb(0, 0, 0); stroke-width: 1; fill: none; fill-opacity: 1;"/></g><g class="arrow-line"><path class="connection real" stroke-dasharray="" d="  M587.71,257.99 L596.9,281.05" style="stroke: rgb(0, 0, 0); stroke-width: 1; fill: none; fill-opacity: 1;"/></g><g class="arrow-line"><path class="connection real" stroke-dasharray="" d="  M651.25,312.61 L616.19,251.13" style="stroke: rgb(0, 0, 0); stroke-width: 1; fill: none; fill-opacity: 1;"/></g><g class="arrow-line"><path class="connection real" stroke-dasharray="" d="  M616.19,251.13 L615.88,280.7" style="stroke: rgb(0, 0, 0); stroke-width: 1; fill: none; fill-opacity: 1;"/></g><g class="arrow-line"><path class="connection real" stroke-dasharray="" d="  M616.19,251.13 L606.54,257.99" style="stroke: rgb(0, 0, 0); stroke-width: 1; fill: none; fill-opacity: 1;"/></g><g class="arrow-line"><path class="connection real" stroke-dasharray="" d="  M587.71,257.99 L606.54,257.99" style="stroke: rgb(0, 0, 0); stroke-width: 1; fill: none; fill-opacity: 1;"/></g><g class="arrow-line"><path class="connection real" stroke-dasharray="" d="  M577.76,250.98 L597.36,235.32" style="stroke: rgb(0, 0, 0); stroke-width: 1; fill: none; fill-opacity: 1;"/></g><g class="arrow-line"><path class="connection real" stroke-dasharray="" d="  M597.36,235.32 L587.71,257.99" style="stroke: rgb(0, 0, 0); stroke-width: 1; fill: none; fill-opacity: 1;"/></g><g class="arrow-line"><path class="connection real" stroke-dasharray="" d="  M597.36,235.32 L616.19,251.13" style="stroke: rgb(0, 0, 0); stroke-width: 1; fill: none; fill-opacity: 1;"/></g><g class="arrow-line"><path class="connection real" stroke-dasharray="" d="  M597.36,235.32 L606.54,257.99" style="stroke: rgb(0, 0, 0); stroke-width: 1; fill: none; fill-opacity: 1;"/></g><g class="arrow-line"><path class="connection real" stroke-dasharray="" d="  M597.66,182.96 L597.36,235.32" style="stroke: rgb(0, 0, 0); stroke-width: 1; fill: none; fill-opacity: 1;"/></g><g class="arrow-line"><path class="connection real" stroke-dasharray="" d="  M597.66,182.96 L616.19,251.13" style="stroke: rgb(0, 0, 0); stroke-width: 1; fill: none; fill-opacity: 1;"/></g><g class="arrow-line"><path class="connection real" stroke-dasharray="" d="  M597.66,182.96 L577.76,250.98" style="stroke: rgb(0, 0, 0); stroke-width: 1; fill: none; fill-opacity: 1;"/></g><g class="arrow-line"><path class="connection real" stroke-dasharray="" d="  M597.66,182.96 L651.25,312.61" style="stroke: rgb(0, 0, 0); stroke-width: 1; fill: none; fill-opacity: 1;"/></g><g class="arrow-line"><path class="connection real" stroke-dasharray="" d="  M597.66,182.96 L541.94,312.45" style="stroke: rgb(0, 0, 0); stroke-width: 1; fill: none; fill-opacity: 1;"/></g><g class="composite-shape"><path class="real" d=" M539.56,312.45 C539.56,311.12 540.62,310.04 541.94,310.04 C543.25,310.04 544.31,311.12 544.31,312.45 C544.31,313.79 543.25,314.87 541.94,314.87 C540.62,314.87 539.56,313.79 539.56,312.45 Z" style="stroke-width: 1; stroke: rgb(0, 0, 0); fill: rgb(255, 255, 255); fill-opacity: 1;"/></g><g class="composite-shape"><path class="real" d=" M575.54,281.68 C575.54,280.34 576.6,279.26 577.91,279.26 C579.23,279.26 580.29,280.34 580.29,281.68 C580.29,283.01 579.23,284.1 577.91,284.1 C576.6,284.1 575.54,283.01 575.54,281.68 Z" style="stroke-width: 1; stroke: rgb(0, 0, 0); fill: rgb(255, 255, 255); fill-opacity: 1;"/></g><g class="composite-shape"><path class="real" d=" M595.08,296.3 C595.08,294.96 596.15,293.88 597.46,293.88 C598.77,293.88 599.83,294.96 599.83,296.3 C599.83,297.63 598.77,298.71 597.46,298.71 C596.15,298.71 595.08,297.63 595.08,296.3 Z" style="stroke-width: 1; stroke: rgb(0, 0, 0); fill: rgb(255, 255, 255); fill-opacity: 1;"/></g><g class="composite-shape"><path class="real" d=" M594.52,281.05 C594.52,279.72 595.58,278.64 596.9,278.64 C598.21,278.64 599.27,279.72 599.27,281.05 C599.27,282.39 598.21,283.47 596.9,283.47 C595.58,283.47 594.52,282.39 594.52,281.05 Z" style="stroke-width: 1; stroke: rgb(0, 0, 0); fill: rgb(255, 255, 255); fill-opacity: 1;"/></g><g class="composite-shape"><path class="real" d=" M585.34,257.99 C585.34,256.66 586.4,255.57 587.71,255.57 C589.02,255.57 590.09,256.66 590.09,257.99 C590.09,259.33 589.02,260.41 587.71,260.41 C586.4,260.41 585.34,259.33 585.34,257.99 Z" style="stroke-width: 1; stroke: rgb(0, 0, 0); fill: rgb(255, 255, 255); fill-opacity: 1;"/></g><g class="composite-shape"><path class="real" d=" M575.38,250.98 C575.38,249.64 576.45,248.56 577.76,248.56 C579.07,248.56 580.14,249.64 580.14,250.98 C580.14,252.31 579.07,253.4 577.76,253.4 C576.45,253.4 575.38,252.31 575.38,250.98 Z" style="stroke-width: 1; stroke: rgb(0, 0, 0); fill: rgb(255, 255, 255); fill-opacity: 1;"/></g><g class="composite-shape"><path class="real" d=" M604.17,257.99 C604.17,256.66 605.23,255.57 606.54,255.57 C607.85,255.57 608.92,256.66 608.92,257.99 C608.92,259.33 607.85,260.41 606.54,260.41 C605.23,260.41 604.17,259.33 604.17,257.99 Z" style="stroke-width: 1; stroke: rgb(0, 0, 0); fill: rgb(255, 255, 255); fill-opacity: 1;"/></g><g class="composite-shape"><path class="real" d=" M613.51,280.7 C613.51,279.37 614.57,278.29 615.88,278.29 C617.19,278.29 618.26,279.37 618.26,280.7 C618.26,282.04 617.19,283.12 615.88,283.12 C614.57,283.12 613.51,282.04 613.51,280.7 Z" style="stroke-width: 1; stroke: rgb(0, 0, 0); fill: rgb(255, 255, 255); fill-opacity: 1;"/></g><g class="composite-shape"><path class="real" d=" M648.87,312.61 C648.87,311.27 649.93,310.19 651.25,310.19 C652.56,310.19 653.62,311.27 653.62,312.61 C653.62,313.95 652.56,315.03 651.25,315.03 C649.93,315.03 648.87,313.95 648.87,312.61 Z" style="stroke-width: 1; stroke: rgb(0, 0, 0); fill: rgb(255, 255, 255); fill-opacity: 1;"/></g><g class="composite-shape"><path class="real" d=" M613.81,251.13 C613.81,249.8 614.88,248.72 616.19,248.72 C617.5,248.72 618.56,249.8 618.56,251.13 C618.56,252.47 617.5,253.55 616.19,253.55 C614.88,253.55 613.81,252.47 613.81,251.13 Z" style="stroke-width: 1; stroke: rgb(0, 0, 0); fill: rgb(255, 255, 255); fill-opacity: 1;"/></g><g class="composite-shape"><path class="real" d=" M594.98,235.32 C594.98,233.98 596.04,232.9 597.36,232.9 C598.67,232.9 599.73,233.98 599.73,235.32 C599.73,236.65 598.67,237.74 597.36,237.74 C596.04,237.74 594.98,236.65 594.98,235.32 Z" style="stroke-width: 1; stroke: rgb(0, 0, 0); fill: rgb(255, 255, 255); fill-opacity: 1;"/></g><g class="composite-shape"><path class="real" d=" M595.29,182.96 C595.29,181.62 596.35,180.54 597.66,180.54 C598.98,180.54 600.04,181.62 600.04,182.96 C600.04,184.29 598.98,185.38 597.66,185.38 C596.35,185.38 595.29,184.29 595.29,182.96 Z" style="stroke-width: 1; stroke: rgb(0, 0, 0); fill: rgb(255, 255, 255); fill-opacity: 1;"/></g></g><g/></g><g/><g/><g/></svg>
        <svg xmlns="http://www.w3.org/2000/svg" xmlns:xlink="http://www.w3.org/1999/xlink" width="660" height="346.97265625" style="width:660px;height:346.97265625px;font-family:Asana-Math, Asana;background:transparent;"><g><g><g><text x="553.291015625" y="20.546875" style="white-space:pre;stroke:none;fill:rgb(0,0,0);fill-opacity:1;font-size:21.6px;font-family:Arial, Helvetica, sans-serif;font-weight:400;font-style:normal;dominant-baseline:text-before-edge;text-decoration:none solid rgb(0, 0, 0);">Icosaedro</text></g></g></g><g><g><g><text x="411.26953125" y="19.55078125" style="white-space:pre;stroke:none;fill:rgb(0,0,0);fill-opacity:1;font-size:21.6px;font-family:Arial, Helvetica, sans-serif;font-weight:400;font-style:normal;dominant-baseline:text-before-edge;text-decoration:none solid rgb(0, 0, 0);">Dodecaedro</text></g></g></g><g><g><g><text x="287.470703125" y="19.94140625" style="white-space:pre;stroke:none;fill:rgb(0,0,0);fill-opacity:1;font-size:21.6px;font-family:Arial, Helvetica, sans-serif;font-weight:400;font-style:normal;dominant-baseline:text-before-edge;text-decoration:none solid rgb(0, 0, 0);">Octaedro</text></g></g></g><g><g><g><text x="171.46484375" y="19.74609375" style="white-space:pre;stroke:none;fill:rgb(0,0,0);fill-opacity:1;font-size:21.6px;font-family:Arial, Helvetica, sans-serif;font-weight:400;font-style:normal;dominant-baseline:text-before-edge;text-decoration:none solid rgb(0, 0, 0);">Cubo</text></g></g></g><g><g><g><text x="14.306640625" y="19.35546875" style="white-space:pre;stroke:none;fill:rgb(0,0,0);fill-opacity:1;font-size:21.6px;font-family:Arial, Helvetica, sans-serif;font-weight:400;font-style:normal;dominant-baseline:text-before-edge;text-decoration:none solid rgb(0, 0, 0);">Tetraedro</text></g></g></g></svg>
</svg>
